<svg width="151" height="55" viewBox="0 0 151 55" fill="none" xmlns="http://www.w3.org/2000/svg">
<path d="M4.512 10.736V17.336H13.2V18.872H4.512V26H2.736V9.2H14.256V10.736H4.512ZM29.3955 26L25.5555 20.6C25.1235 20.648 24.6755 20.672 24.2115 20.672H19.6995V26H17.9235V9.2H24.2115C26.3555 9.2 28.0355 9.712 29.2515 10.736C30.4675 11.76 31.0755 13.168 31.0755 14.96C31.0755 16.272 30.7395 17.384 30.0675 18.296C29.4115 19.192 28.4675 19.84 27.2355 20.24L31.3395 26H29.3955ZM24.1635 19.16C25.8275 19.16 27.0995 18.792 27.9795 18.056C28.8595 17.32 29.2995 16.288 29.2995 14.96C29.2995 13.6 28.8595 12.56 27.9795 11.84C27.0995 11.104 25.8275 10.736 24.1635 10.736H19.6995V19.16H24.1635ZM47.1473 24.464V26H35.2673V9.2H46.7873V10.736H37.0433V16.712H45.7313V18.224H37.0433V24.464H47.1473ZM51.3219 9.2H58.1619C59.9379 9.2 61.5059 9.56 62.8659 10.28C64.2259 10.984 65.2819 11.976 66.0339 13.256C66.7859 14.52 67.1619 15.968 67.1619 17.6C67.1619 19.232 66.7859 20.688 66.0339 21.968C65.2819 23.232 64.2259 24.224 62.8659 24.944C61.5059 25.648 59.9379 26 58.1619 26H51.3219V9.2ZM58.0659 24.464C59.5379 24.464 60.8259 24.176 61.9299 23.6C63.0339 23.008 63.8899 22.2 64.4979 21.176C65.1059 20.136 65.4099 18.944 65.4099 17.6C65.4099 16.256 65.1059 15.072 64.4979 14.048C63.8899 13.008 63.0339 12.2 61.9299 11.624C60.8259 11.032 59.5379 10.736 58.0659 10.736H53.0979V24.464H58.0659Z" fill="white"/>
<path d="M55.736 16.2H62.576C64.352 16.2 65.92 16.56 67.28 17.28C68.64 17.984 69.696 18.976 70.448 20.256C71.2 21.52 71.576 22.968 71.576 24.6C71.576 26.232 71.2 27.688 70.448 28.968C69.696 30.232 68.64 31.224 67.28 31.944C65.92 32.648 64.352 33 62.576 33H55.736V16.2ZM62.48 31.464C63.952 31.464 65.24 31.176 66.344 30.6C67.448 30.008 68.304 29.2 68.912 28.176C69.52 27.136 69.824 25.944 69.824 24.6C69.824 23.256 69.52 22.072 68.912 21.048C68.304 20.008 67.448 19.2 66.344 18.624C65.24 18.032 63.952 17.736 62.48 17.736H57.512V31.464H62.48ZM87.4441 31.464V33H75.5641V16.2H87.0841V17.736H77.3401V23.712H86.0281V25.224H77.3401V31.464H87.4441ZM96.2508 33.144C95.0028 33.144 93.8028 32.944 92.6508 32.544C91.5148 32.144 90.6348 31.616 90.0108 30.96L90.7068 29.592C91.3148 30.2 92.1228 30.696 93.1308 31.08C94.1388 31.448 95.1788 31.632 96.2508 31.632C97.7548 31.632 98.8828 31.36 99.6348 30.816C100.387 30.256 100.763 29.536 100.763 28.656C100.763 27.984 100.555 27.448 100.139 27.048C99.7388 26.648 99.2428 26.344 98.6508 26.136C98.0588 25.912 97.2348 25.672 96.1788 25.416C94.9148 25.096 93.9068 24.792 93.1548 24.504C92.4028 24.2 91.7548 23.744 91.2108 23.136C90.6828 22.528 90.4188 21.704 90.4188 20.664C90.4188 19.816 90.6428 19.048 91.0908 18.36C91.5388 17.656 92.2268 17.096 93.1548 16.68C94.0828 16.264 95.2348 16.056 96.6108 16.056C97.5708 16.056 98.5068 16.192 99.4188 16.464C100.347 16.72 101.147 17.08 101.819 17.544L101.219 18.96C100.515 18.496 99.7628 18.152 98.9628 17.928C98.1628 17.688 97.3788 17.568 96.6108 17.568C95.1388 17.568 94.0268 17.856 93.2748 18.432C92.5388 18.992 92.1708 19.72 92.1708 20.616C92.1708 21.288 92.3708 21.832 92.7708 22.248C93.1868 22.648 93.6988 22.96 94.3068 23.184C94.9308 23.392 95.7628 23.624 96.8028 23.88C98.0348 24.184 99.0268 24.488 99.7788 24.792C100.547 25.08 101.195 25.528 101.723 26.136C102.251 26.728 102.515 27.536 102.515 28.56C102.515 29.408 102.283 30.184 101.819 30.888C101.371 31.576 100.675 32.128 99.7308 32.544C98.7868 32.944 97.6268 33.144 96.2508 33.144ZM106.384 16.2H108.16V33H106.384V16.2ZM125.459 24.6H127.163V31.008C126.379 31.696 125.451 32.224 124.379 32.592C123.307 32.96 122.179 33.144 120.995 33.144C119.315 33.144 117.803 32.776 116.459 32.04C115.115 31.304 114.059 30.288 113.291 28.992C112.523 27.68 112.139 26.216 112.139 24.6C112.139 22.984 112.523 21.528 113.291 20.232C114.059 18.92 115.115 17.896 116.459 17.16C117.803 16.424 119.323 16.056 121.019 16.056C122.299 16.056 123.475 16.264 124.547 16.68C125.619 17.08 126.523 17.68 127.259 18.48L126.155 19.608C124.827 18.296 123.139 17.64 121.091 17.64C119.731 17.64 118.499 17.944 117.395 18.552C116.307 19.144 115.451 19.976 114.827 21.048C114.203 22.104 113.891 23.288 113.891 24.6C113.891 25.912 114.203 27.096 114.827 28.152C115.451 29.208 116.307 30.04 117.395 30.648C118.483 31.256 119.707 31.56 121.067 31.56C122.795 31.56 124.259 31.128 125.459 30.264V24.6ZM146.229 16.2V33H144.765L133.965 19.368V33H132.189V16.2H133.653L144.477 29.832V16.2H146.229Z" fill="white"/>
<circle r="2.5" transform="matrix(-1 0 0 1 25 28)" fill="white" stroke="#FCE181"/>
<path d="M26 30C53.2426 63.9946 88.1482 51.7195 107.5 36M107.5 36L106 43M107.5 36L101.5 36" stroke="#FCE181"/>
</svg>
