<svg width="34" height="33" viewBox="0 0 34 33" fill="none" xmlns="http://www.w3.org/2000/svg">
<g clip-path="url(#clip0)">
<path d="M30.7141 0.214844H3.68434C2.03572 0.214844 0.699219 1.51084 0.699219 3.1095V29.3201C0.699219 30.9188 2.03572 32.2148 3.68434 32.2148H30.714C32.3627 32.2148 33.6992 30.9188 33.6992 29.3201V3.1095C33.6992 1.51084 32.3627 0.214844 30.7141 0.214844ZM10.9108 27.8458C10.9108 28.311 10.5219 28.6881 10.0421 28.6881H6.34421C5.86441 28.6881 5.47549 28.311 5.47549 27.8458V12.814C5.47549 12.3488 5.86441 11.9717 6.34421 11.9717H10.0421C10.5219 11.9717 10.9108 12.3488 10.9108 12.814V27.8458ZM8.19316 10.5547C6.25298 10.5547 4.68012 9.0295 4.68012 7.14812C4.68012 5.26674 6.25298 3.74155 8.19316 3.74155C10.1333 3.74155 11.7062 5.26674 11.7062 7.14812C11.7062 9.0295 10.1334 10.5547 8.19316 10.5547ZM30.2359 27.9136C30.2359 28.3413 29.8783 28.6881 29.4372 28.6881H25.4691C25.028 28.6881 24.6703 28.3413 24.6703 27.9136V20.8629C24.6703 19.8111 24.9885 16.2538 21.8357 16.2538C19.3902 16.2538 18.8941 18.6886 18.7945 19.7813V27.9136C18.7945 28.3413 18.437 28.6881 17.9958 28.6881H14.1579C13.7169 28.6881 13.3592 28.3413 13.3592 27.9136V12.7462C13.3592 12.3185 13.7169 11.9717 14.1579 11.9717H17.9958C18.4369 11.9717 18.7945 12.3185 18.7945 12.7462V14.0576C19.7013 12.738 21.049 11.7194 23.9183 11.7194C30.2723 11.7194 30.2359 17.4757 30.2359 20.6385V27.9136Z" fill="white"/>
</g>
<defs>
<clipPath id="clip0">
<rect x="0.699219" y="0.214844" width="33" height="32" fill="white"/>
</clipPath>
</defs>
</svg>
