<svg width="34" height="34" viewBox="0 0 34 34" fill="none" xmlns="http://www.w3.org/2000/svg">
<g clip-path="url(#clip0)">
<path d="M33.637 18.1464C33.6776 17.6728 33.6992 17.1957 33.6992 16.7151C33.6992 12.3076 31.9829 8.16398 28.8665 5.04757C25.7501 1.93116 21.6065 0.214844 17.1992 0.214844C12.792 0.214844 8.64835 1.93116 5.53194 5.04757C2.41553 8.16398 0.699219 12.3076 0.699219 16.7151C0.699219 21.1223 2.41553 25.2657 5.53194 28.3821C8.64835 31.4985 12.792 33.2148 17.1992 33.2148C21.6065 33.2148 25.7501 31.4985 28.8665 28.3821C31.6176 25.631 33.2767 22.0791 33.6282 18.2522C33.633 18.2169 33.6363 18.1817 33.637 18.1464ZM31.7641 16.8234C29.7797 16.2627 27.7255 15.9782 25.6401 15.9782C24.2334 15.9782 22.8464 16.1096 21.4937 16.3629C21.2809 15.8671 21.0624 15.3737 20.837 14.883C20.5337 14.2231 20.2179 13.569 19.8922 12.9197C23.0169 11.5697 25.9507 9.82642 28.6462 7.71658C30.5992 10.1955 31.7656 13.3215 31.7656 16.7151C31.7656 16.7514 31.7644 16.7871 31.7641 16.8234ZM27.3478 6.27646C24.7745 8.27325 21.9614 9.92033 18.9898 11.1887C17.3727 8.20074 15.5141 5.34088 13.4355 2.64241C14.6367 2.3209 15.8981 2.14844 17.1992 2.14844C21.1417 2.14844 24.7226 3.72351 27.3478 6.27646ZM11.5049 3.30809C13.6367 6.01663 15.5328 8.89638 17.1753 11.9093C12.9977 13.4451 8.55067 14.2515 4.04675 14.2515C3.64644 14.2515 3.24512 14.2447 2.84531 14.2324C3.69503 9.305 7.02796 5.21676 11.5049 3.30809ZM2.63281 16.7151C2.63281 16.529 2.63734 16.3442 2.64439 16.1599C3.11067 16.1761 3.57947 16.1851 4.0465 16.1851C8.75385 16.1851 13.3625 15.3742 17.7448 13.7752C17.8594 13.7334 17.9737 13.6906 18.0877 13.6478C18.6127 14.6883 19.1079 15.7433 19.5729 16.811C14.2069 18.3136 9.52678 21.7789 6.52568 26.616C4.11146 24.0154 2.63281 20.535 2.63281 16.7151ZM7.96455 27.9715C10.7383 23.3049 15.1992 19.9821 20.3232 18.6107C21.7631 22.2251 22.8598 25.9749 23.5881 29.8031C21.6581 30.749 19.4896 31.2812 17.1992 31.2812C13.6968 31.2812 10.4797 30.0385 7.96455 27.9715ZM25.3576 28.7764C24.6307 25.1647 23.5884 21.6218 22.2447 18.194C23.3558 18.0082 24.4907 17.9118 25.6401 17.9118C27.6799 17.9118 29.6865 18.2088 31.6166 18.7947C31.0216 22.9378 28.6774 26.5238 25.3576 28.7764Z" fill="white"/>
</g>
<defs>
<clipPath id="clip0">
<rect x="0.699219" y="0.214844" width="33" height="33" fill="white"/>
</clipPath>
</defs>
</svg>
