<svg width="34" height="35" viewBox="0 0 34 35" fill="none" xmlns="http://www.w3.org/2000/svg">
<path fill-rule="evenodd" clip-rule="evenodd" d="M11.7923 2.04981C7.83663 3.40574 4.46605 6.3713 2.58866 10.1242C1.93375 11.4189 1.46222 12.7923 1.17406 14.2182C0.458033 17.7524 0.955761 21.5227 2.57993 24.742C3.63651 26.8415 5.15589 28.7136 6.98962 30.1745C8.7273 31.5566 10.7444 32.5889 12.8925 33.1575C15.5994 33.8836 18.481 33.8661 21.2054 33.245C23.6679 32.6764 25.9993 31.4954 27.8593 29.7808C29.824 27.97 31.2298 25.5905 31.9721 23.0274C32.7842 20.2368 32.8889 17.2537 32.3825 14.3844C27.2917 14.3844 22.1922 14.3844 17.1014 14.3844C17.1014 16.5014 17.1014 18.6184 17.1014 20.7354C20.0528 20.7354 23.0042 20.7354 25.9557 20.7354C25.6151 22.765 24.4101 24.6195 22.7073 25.7655C21.6333 26.4916 20.4021 26.9552 19.1272 27.1827C17.8523 27.4014 16.525 27.4276 15.2502 27.1739C13.9491 26.9115 12.7179 26.3691 11.6351 25.608C9.90613 24.3921 8.58759 22.6162 7.91522 20.613C7.22539 18.5747 7.21665 16.309 7.91522 14.2794C8.40422 12.8448 9.20757 11.5238 10.2729 10.4391C11.5827 9.09191 13.2854 8.12963 15.1279 7.73598C16.6997 7.40355 18.3588 7.46479 19.8956 7.92843C21.2054 8.32209 22.4105 9.04817 23.3972 9.99295C24.3926 8.99568 25.3881 7.99842 26.3835 7.00115C26.9075 6.46752 27.4576 5.9514 27.9641 5.40027C26.4534 4.0006 24.6721 2.87212 22.7335 2.15479C19.2407 0.860088 15.3113 0.833845 11.7923 2.04981Z" fill="white" stroke="#4E4E4E"/>
<path fill-rule="evenodd" clip-rule="evenodd" d="M11.7923 2.04899C15.3026 0.832861 19.2407 0.859108 22.7335 2.14523C24.6721 2.86265 26.4447 3.98254 27.9641 5.39114C27.4576 5.94234 26.9075 6.45854 26.3835 6.99223C25.3881 7.98963 24.3926 8.98703 23.3972 9.98442C22.4105 9.03952 21.2054 8.32209 19.8956 7.91964C18.3588 7.45593 16.6997 7.38594 15.1279 7.72716C13.2942 8.12086 11.5914 9.08327 10.2729 10.4306C9.20759 11.5068 8.40424 12.8366 7.91524 14.2715C6.14263 12.8891 4.37002 11.5155 2.58868 10.1332C4.46608 6.37104 7.83665 3.4051 11.7923 2.04899Z" fill="white"/>
<path fill-rule="evenodd" clip-rule="evenodd" d="M1.18282 14.2093C1.47098 12.7921 1.94251 11.4099 2.59741 10.1152C4.37002 11.4974 6.14263 12.8708 7.92397 14.253C7.22541 16.2913 7.22541 18.557 7.92397 20.5865C6.15136 21.9687 4.37875 23.3509 2.60614 24.7243C0.964515 21.5138 0.466788 17.7434 1.18282 14.2093Z" fill="white"/>
<path fill-rule="evenodd" clip-rule="evenodd" d="M17.1014 14.375C22.1922 14.375 27.2917 14.375 32.3825 14.375C32.889 17.2356 32.7755 20.2186 31.9721 23.018C31.2299 25.5811 29.824 27.9606 27.8593 29.7714C26.1391 28.433 24.4189 27.0945 22.6986 25.7561C24.4014 24.6101 25.6064 22.7555 25.947 20.726C22.9955 20.726 20.0441 20.726 17.0927 20.726C17.1014 18.609 17.1014 16.492 17.1014 14.375Z" fill="white"/>
<path fill-rule="evenodd" clip-rule="evenodd" d="M2.58868 24.7335C4.36129 23.3601 6.1339 21.9779 7.90651 20.5957C8.58762 22.599 9.89743 24.3748 11.6264 25.5908C12.7092 26.3519 13.9491 26.8942 15.2415 27.1567C16.5163 27.4191 17.8349 27.3841 19.1185 27.1654C20.3934 26.938 21.6246 26.4743 22.6986 25.7482C24.4189 27.0867 26.1391 28.4251 27.8593 29.7636C25.9994 31.4869 23.6679 32.6591 21.2055 33.2277C18.481 33.8488 15.5995 33.8663 12.8925 33.1403C10.7444 32.5716 8.72733 31.5481 6.98965 30.1572C5.16464 28.7051 3.64526 26.833 2.58868 24.7335Z" fill="white"/>
</svg>
