<svg width="50" height="50" viewBox="0 0 50 50" fill="none" xmlns="http://www.w3.org/2000/svg">
<path d="M25 4.16602C13.5 4.16602 4.16666 13.4993 4.16666 24.9994C4.16666 36.4994 13.5 45.8327 25 45.8327C36.5 45.8327 45.8333 36.4994 45.8333 24.9994C45.8333 13.4993 36.5 4.16602 25 4.16602ZM25 10.416C28.4583 10.416 31.25 13.2077 31.25 16.666C31.25 20.1244 28.4583 22.916 25 22.916C21.5417 22.916 18.75 20.1244 18.75 16.666C18.75 13.2077 21.5417 10.416 25 10.416ZM25 39.9994C19.7917 39.9994 15.1875 37.3327 12.5 33.291C12.5625 29.1452 20.8333 26.8743 25 26.8743C29.1458 26.8743 37.4375 29.1452 37.5 33.291C34.8125 37.3327 30.2083 39.9994 25 39.9994Z" fill="#196F58"/>
</svg>
