<svg width="50" height="50" viewBox="0 0 50 50" fill="none" xmlns="http://www.w3.org/2000/svg">
<path d="M16.2236 0.802734C13.6584 1.8043 11.4924 3.70078 10.1885 6.26123C7.92402 10.7073 8.57627 16.2137 11.9322 20.83L17.046 27.8605L23.1771 19.9774L20.9474 17.1107C18.4361 13.3492 17.7642 7.93223 22.5531 3.40322C20.8118 2.40029 18.6929 1.52822 16.2236 0.802734V0.802734Z" fill="#196F58"/>
<path d="M10.094 45.4882H12.9919L14.8376 49.1796C15.3535 50.1375 16.756 50.2916 17.4157 49.3847L38.1284 20.8396C41.0813 16.9049 42.3715 11.1311 39.8863 6.26953C37.9236 2.40234 33.9978 0 29.6912 0H22.4255C23.7438 0.615137 24.8278 1.28906 25.7653 1.96279C25.7946 1.96279 25.7946 1.99209 25.7946 1.99209C28.2555 3.7792 29.6032 5.6542 30.3062 7.29482C31.654 10.4296 31.2437 13.9256 29.193 17.0311L8.95156 43.115C8.1582 44.1068 8.925 45.4882 10.094 45.4882V45.4882Z" fill="#196F58"/>
<path d="M35.192 49.1901L37.0445 45.4865H39.9084C40.4678 45.4865 40.9784 45.1675 41.2245 44.6654C41.4706 44.1634 41.4076 43.564 41.0643 43.1219L33.0769 32.7539L26.8674 41.2822L32.6973 49.3961C33.3342 50.2771 34.6966 50.1813 35.192 49.1901Z" fill="#196F58"/>
</svg>
