<svg width="129" height="129" viewBox="0 0 129 129" fill="none" xmlns="http://www.w3.org/2000/svg">
<g clip-path="url(#clip0)">
<path fill-rule="evenodd" clip-rule="evenodd" d="M64.4153 11.1169C63.1737 12.651 65.6069 14.4891 64.1981 15.4434C61.6218 17.1883 59.4033 14.4115 57.1852 13.9038C55.3929 13.4937 52.3881 11.5659 51.9812 9.74487C51.3015 6.70324 51.1206 5.28585 48.1223 3.65633C45.5636 2.26589 41.8007 2.10037 39.0471 3.49937C38.1829 3.93849 36.4566 5.47405 34.2837 6.01445C32.534 6.44954 30.3784 5.59775 28.4219 6.15931C25.3082 7.05293 21.5868 9.17902 21.5868 12.0259C21.5868 19.0406 16.4763 15.0071 11.361 22.3064C9.51027 24.9477 8.76152 25.1286 8.76152 31.1393C8.76152 37.4196 3.53258 40.2093 9.19031 50.7768C10.385 53.0079 20.2148 61.2684 22.5679 60.2977C28.8534 57.7045 30.2635 61.3546 36.1878 57.5105C38.1988 56.206 43.0778 58.7097 46.4071 58.7097C50.5983 58.7097 47.9684 64.3244 47.2206 66.4275C45.3026 71.8218 52.4022 69.35 53.6251 79.2904C54.3691 85.3366 56.0739 88.1273 53.8944 94.4419C52.7035 97.8924 53.91 102.357 55.7958 105.36C60.6299 113.055 57.2275 113.124 60.9116 118.664C63.5746 122.667 60.3057 124.356 66.4734 126.239C72.3508 128.034 79.8136 119.343 84.6677 116.395C85.3159 116.001 87.6506 114.249 88.8715 111.206C89.5112 109.612 89.6583 106.233 89.4993 105.59C87.2667 96.5677 97.0483 99.6529 97.8442 93.183C98.2652 89.7601 97.3444 88.8766 97.3444 84.6075C97.3444 65.9945 99.6446 72.9938 109.708 60.6529C113.879 55.5371 114.961 54.3507 115.796 47.562C116.546 41.4652 107.223 50.5137 103.132 45.6755C99.3352 41.1853 101.332 43.3698 96.5168 40.3148C93.6515 38.4971 93.5704 32.3924 92.3981 29.9829C91.2259 27.5734 89.1791 27.6165 86.7704 23.3628C84.7269 19.7541 87.9333 15.9793 85.2955 12.2761C84.6813 11.414 76.0772 13.7098 72.0061 12.1733C70.812 11.7223 65.3097 10.0124 64.4153 11.1169Z" fill="white"/>
<path fill-rule="evenodd" clip-rule="evenodd" d="M119.293 87.1313C117.418 86.8773 116.132 89.1564 114.95 91.031C113.72 92.9835 112.647 93.1435 110.6 93.852C108.498 94.5796 109.301 99.8679 107.479 103.642C105.497 107.748 105.052 112.99 108.709 113.429C114.936 114.178 115.506 106.365 118.228 103.428C120.462 101.018 121.683 97.9464 122.309 94.7783C122.724 92.6749 122.368 87.5478 119.293 87.1313Z" fill="white"/>
<path d="M111.66 62.245L111.951 61.8888C116.021 56.8999 117.393 55.2193 118.297 47.8695C118.527 45.9966 118.089 44.5896 116.993 43.6871C115.207 42.2163 112.869 42.9784 110.608 43.7158C108.017 44.5603 105.963 45.1211 105.055 44.0489L104.389 43.2586C102.399 40.8989 102.144 40.5959 100.596 39.7791C100.074 39.504 99.2864 39.088 97.8662 38.1871C96.8557 37.5462 96.2341 34.7167 95.8232 32.8443C95.498 31.3631 95.1906 29.9641 94.6633 28.8801C93.9098 27.3312 92.8889 26.4683 91.9885 25.7072C91.0496 24.9136 90.0791 24.0928 88.9625 22.1209C88.4304 21.1814 88.5244 20.1162 88.7214 18.4562C88.9801 16.2744 89.3029 13.5593 87.3471 10.814C86.2406 9.26051 84.5405 9.44568 81.1537 9.81578C78.6026 10.0942 74.7477 10.5149 72.8955 9.81578C72.1614 9.5384 70.3507 8.96247 68.6189 8.59666C66.3366 8.11445 63.8195 7.84866 62.4573 9.5316C61.3951 10.8437 61.4286 12.2162 61.6629 13.2509C61.3926 13.1247 61.0459 12.9413 60.5894 12.6853C59.7606 12.2203 58.8208 11.6935 57.7473 11.4476C56.5219 11.1672 54.6828 9.81981 54.4356 9.17511L54.3464 8.77377C53.6997 5.8508 53.1888 3.54181 49.3254 1.44242C45.9169 -0.409563 41.3281 -0.485396 37.9058 1.25322C37.5209 1.44872 37.1417 1.70544 36.7026 2.00248C35.8548 2.57614 34.7995 3.28987 33.6761 3.56927C33.2594 3.67256 32.527 3.60731 31.8185 3.54433C30.6569 3.44053 29.21 3.31179 27.7273 3.73731C23.5409 4.93854 19.0678 7.74663 19.0678 12.0253C19.0678 13.0416 18.9307 13.7803 18.6916 14.0523C18.4543 14.3227 17.7965 14.5849 17.0352 14.889C15.0713 15.6728 12.1033 16.8574 9.2982 20.8602C9.0828 21.1678 8.88276 21.4401 8.69784 21.6921C6.87885 24.1724 6.24246 25.5396 6.24246 31.1387C6.24246 32.7586 5.79628 34.1264 5.27956 35.7103C4.03525 39.5254 2.62466 43.8496 6.96955 51.9652C8.01005 53.9087 11.8236 57.1365 13.9129 58.7373C19.7863 63.2371 22.0694 63.2278 23.5291 62.6262C25.863 61.6635 27.2557 61.7535 28.8674 61.857C31.0935 62.0006 33.6128 62.1631 37.4891 59.6695C38.1167 59.5269 40.0692 60.029 41.2455 60.3318C42.8942 60.7558 44.5965 61.1937 46.2117 61.2272C46.1698 61.7043 45.9512 62.6783 45.151 64.7717C45.0349 65.0755 44.9303 65.3499 44.8474 65.5837C43.3366 69.8331 45.771 71.6803 47.3822 72.9027C48.1284 73.469 48.8333 74.0039 49.4541 74.8287C50.291 75.9403 51.8699 76.1637 52.9822 75.3266C54.0938 74.4899 54.317 72.9105 53.4803 71.7987C52.4378 70.4138 51.2763 69.5323 50.4281 68.8888C50.0565 68.6069 49.5551 68.2265 49.4143 68.0375C49.4148 67.9587 49.4334 67.7277 49.5954 67.2719C49.6672 67.0701 49.7582 66.8333 49.8584 66.5708C50.7679 64.1907 52.1423 60.5941 50.42 58.0918C49.8232 57.2247 48.6426 56.191 46.4084 56.191C45.373 56.191 43.9133 55.8156 42.5014 55.4523C39.7666 54.7489 36.9386 54.0215 34.8176 55.3974C32.3023 57.0297 31.0648 56.9496 29.1921 56.8294C27.4024 56.714 25.1921 56.5716 21.9819 57.8192C21.2254 57.5993 19.2509 56.5429 16.3952 54.2846C13.4831 51.9819 11.6835 50.0548 11.4127 49.5877C8.08261 43.3682 9.00394 40.544 10.0709 37.2738C10.6385 35.5334 11.2822 33.5608 11.2822 31.1397C11.2822 26.691 11.5956 26.2634 12.7621 24.673C12.9664 24.3946 13.1873 24.093 13.4257 23.7529C15.3668 20.9808 17.1644 20.2633 18.9028 19.5695C21.2211 18.6444 24.1063 17.4928 24.1063 12.026C24.1063 11.0767 26.1641 9.42855 29.117 8.58129C29.6985 8.41476 30.5107 8.48732 31.3711 8.56391C32.4411 8.65939 33.6539 8.76747 34.8917 8.45986C36.8825 7.9648 38.4732 6.88878 39.5258 6.17681C39.7596 6.01885 40.0793 5.80243 40.1884 5.74625C42.1041 4.77277 44.9981 4.82643 46.9196 5.87046C48.7653 6.87341 48.8535 7.27198 49.4269 9.8634L49.5226 10.295C50.1963 13.3081 54.1487 15.7942 56.6234 16.3603C56.9895 16.4442 57.5667 16.768 58.125 17.0809C59.7923 18.0158 62.5825 19.5811 65.6113 17.5298C67.4237 16.3021 67.2758 14.5184 66.9843 13.4074C68.303 13.6465 70.0809 14.1395 71.1163 14.5303C74.0965 15.6552 78.3124 15.1949 81.7007 14.8253C82.33 14.7565 83.1017 14.6724 83.6963 14.6265C83.9754 15.4879 83.8837 16.4664 83.7179 17.8626C83.4897 19.7862 83.2055 22.1801 84.5781 24.6042C86.1383 27.3596 87.6396 28.6289 88.7358 29.5555C89.5047 30.2055 89.8561 30.5169 90.1328 31.0853C90.398 31.6305 90.6543 32.7972 90.9022 33.9256C91.5627 36.9337 92.3848 40.6772 95.1674 42.4423C96.7574 43.4508 97.6523 43.9232 98.2449 44.2358C98.9243 44.5943 98.9243 44.5943 100.537 46.507L101.209 47.3029C104.375 51.0477 109.255 49.4572 112.17 48.5072C112.469 48.4097 112.827 48.2928 113.176 48.187C112.485 53.266 111.669 54.2662 108.048 58.7038L107.756 59.061C104.677 62.8368 102.433 64.649 100.63 66.1052C98.5686 67.7697 96.9403 69.0848 95.9648 71.9491C95.1347 74.3873 94.8258 77.8182 94.8258 84.6079C94.8258 86.738 95.0402 88.139 95.2125 89.2647C95.405 90.5216 95.532 91.352 95.3446 92.8754C95.1788 94.2225 94.4232 94.7027 92.3062 95.7321C89.7004 96.9991 85.347 99.1157 87.0307 106.098C87.0939 106.816 86.9249 109.294 86.5338 110.268C85.478 112.901 83.3814 114.229 83.3602 114.242C81.841 115.165 80.1878 116.515 78.4381 117.946C74.7417 120.966 70.1401 124.724 67.2098 123.83C65.1611 123.204 64.8703 122.78 64.8676 122.776C64.8126 122.684 64.7494 122.243 64.7078 121.952C64.5529 120.87 64.3188 119.237 63.0098 117.268C61.6161 115.173 61.5007 114.241 61.3258 112.831C61.0918 110.942 60.8006 108.59 57.9297 104.02C56.6328 101.955 55.555 98.6856 56.0717 96.0365C56.338 94.671 55.4469 93.3478 54.0812 93.0815C52.7159 92.8155 51.3922 93.7066 51.1262 95.0723C50.2935 99.3421 51.8908 103.879 53.6632 106.7C55.9379 110.321 56.1261 111.841 56.3254 113.45C56.53 115.101 56.7615 116.972 58.8145 120.059C59.4925 121.078 59.5981 121.814 59.72 122.666C60.1319 125.541 61.1754 127.255 65.7383 128.649C66.5286 128.89 67.3237 129 68.1201 129C72.8738 129 77.6654 125.084 81.6266 121.847C83.2367 120.532 84.7574 119.289 85.9761 118.549C86.3368 118.329 89.5475 116.289 91.2103 112.145C92.0099 110.152 92.2525 106.225 91.9457 104.985C91.5766 103.493 91.6068 102.439 92.0361 101.852C92.4745 101.253 93.4631 100.772 94.5094 100.263C96.6284 99.2333 99.8305 97.6763 100.345 93.4904C100.618 91.2766 100.402 89.8663 100.193 88.5021C100.031 87.4462 99.8643 86.3541 99.8643 84.6076C99.8643 78.5849 100.116 75.3878 100.734 73.5733C101.215 72.1607 101.896 71.5586 103.795 70.0251C105.675 68.5066 108.25 66.4271 111.66 62.245Z" fill="#026670"/>
<path d="M123.3 86.9134C122.378 85.623 121.109 84.8352 119.632 84.6352C116.267 84.1809 114.325 87.281 113.041 89.3335L112.819 89.688C112.209 90.6567 111.943 90.7454 110.465 91.2384C110.247 91.3112 110.018 91.3876 109.776 91.4715C107.161 92.3764 106.746 95.1805 106.344 97.8923C106.113 99.4523 105.851 101.22 105.21 102.547C103.682 105.712 102.637 110.17 104.289 113.188C105.138 114.74 106.601 115.714 108.408 115.931C108.812 115.979 109.199 116.003 109.57 116.003C114.808 116.003 116.92 111.392 118.349 108.271C118.913 107.04 119.496 105.767 120.077 105.141C122.399 102.635 123.982 99.3125 124.781 95.2666C125.171 93.2877 125.1 89.4303 123.3 86.9134ZM119.837 94.2906C119.222 97.4066 118.059 99.9048 116.381 101.715C115.252 102.934 114.497 104.58 113.768 106.172C112.005 110.023 111.119 111.182 109.009 110.928C108.781 110.901 108.76 110.862 108.709 110.769C108.23 109.895 108.492 107.34 109.748 104.737C110.722 102.719 111.058 100.452 111.328 98.6307C111.449 97.8162 111.623 96.6419 111.815 96.0998C111.899 96.0718 111.98 96.0446 112.06 96.0179C113.835 95.4256 115.512 94.866 117.082 92.3741L117.314 92.0043C117.759 91.2923 118.561 90.01 119.045 89.6681C119.083 89.6976 119.134 89.7497 119.201 89.8434C119.914 90.8414 120.056 93.1811 119.837 94.2906Z" fill="#026670"/>
<path d="M56.9825 84.2498C56.9825 82.8584 55.8543 81.7305 54.4631 81.7305H54.4613C53.0702 81.7305 51.943 82.8584 51.943 84.2498C51.943 85.6413 53.0717 86.7692 54.4631 86.7692C55.8546 86.7692 56.9825 85.6413 56.9825 84.2498Z" fill="#026670"/>
</g>
<defs>
<clipPath id="clip0">
<rect width="129" height="129" fill="white"/>
</clipPath>
</defs>
</svg>
