<svg width="183" height="183" viewBox="0 0 183 183" fill="none" xmlns="http://www.w3.org/2000/svg">
<g clip-path="url(#clip0)">
<path d="M11.958 47.2685C14.823 47.2685 17.165 43.9415 17.165 41.0655C17.165 38.1895 14.823 35.8535 11.958 35.8535C9.07296 35.8535 6.73096 38.1895 6.73096 41.0655C6.73196 43.9415 9.07996 47.2685 11.958 47.2685Z" fill="#176F58"/>
<path d="M22.238 51.1718C22.217 51.0708 22.169 50.9888 22.142 50.8988C22.1 50.7478 22.061 50.6008 22.007 50.4558C21.951 50.3548 21.87 50.2778 21.811 50.1878C21.703 50.0698 21.619 49.9418 21.507 49.8398C21.404 49.7598 21.306 49.7168 21.206 49.6488C21.094 49.5888 21.008 49.5038 20.885 49.4658C20.7 49.3918 16.561 47.9138 12.755 47.7168L12.223 48.7598H12.218L13.603 59.5608L11.953 62.4418L10.3 59.5608L11.684 48.7598H11.663L11.154 47.7168C7.33198 47.9138 3.19998 49.3908 3.00698 49.4658C2.88298 49.5038 2.79398 49.5898 2.69198 49.6548C2.57998 49.7118 2.47998 49.7608 2.38798 49.8408C2.26398 49.9428 2.17798 50.0658 2.07598 50.1888C2.01298 50.2848 1.94198 50.3558 1.89498 50.4518C1.81298 50.5968 1.77798 50.7438 1.75498 50.8948C1.71698 50.9958 1.67598 51.0728 1.65398 51.1678L0.0129768 65.9868C-0.115023 67.1248 0.700977 68.1408 1.82898 68.2628C1.91098 68.2738 1.97398 68.2738 2.05798 68.2738C3.10098 68.2738 3.98398 67.4938 4.10198 66.4408L5.60398 52.9308C5.77198 52.8868 5.96798 52.8318 6.18098 52.7688V66.8288L4.54698 87.2028C4.42798 88.5658 5.43898 89.7478 6.80398 89.8678C6.88198 89.8788 6.95098 89.8788 7.01198 89.8788C8.29398 89.8788 9.37498 88.8888 9.47098 87.6078L10.956 69.1898C11.258 69.3238 11.583 69.3978 11.958 69.3978C12.304 69.3978 12.636 69.3248 12.956 69.1898L14.426 87.6078C14.538 88.8888 15.619 89.8788 16.885 89.8788C16.95 89.8788 17.025 89.8788 17.095 89.8678C18.447 89.7528 19.462 88.5708 19.355 87.2078L17.713 66.8358V52.7748C17.921 52.8428 18.105 52.8918 18.292 52.9358L19.798 66.4458C19.91 67.4998 20.806 68.2788 21.826 68.2788C21.91 68.2788 21.987 68.2788 22.055 68.2688C23.187 68.1448 24.007 67.1248 23.871 65.9928L22.238 51.1718Z" fill="#176F58"/>
<path d="M65.803 47.3545C68.675 47.3545 71.006 44.0205 71.006 41.1465C71.006 38.2715 68.675 35.9395 65.803 35.9395C62.921 35.9395 60.595 38.2705 60.595 41.1465C60.595 44.0205 62.921 47.3545 65.803 47.3545Z" fill="#176F58"/>
<path d="M76.085 51.2518C76.085 51.1508 76.026 51.0708 75.994 50.9828C75.956 50.8298 75.927 50.6788 75.85 50.5398C75.798 50.4388 75.732 50.3538 75.652 50.2718C75.563 50.1488 75.485 50.0258 75.357 49.9248C75.261 49.8458 75.149 49.8018 75.047 49.7338C74.941 49.6708 74.85 49.5888 74.743 49.5498C74.56 49.4758 70.412 47.9898 66.599 47.7988L66.07 48.8438H66.065L67.45 59.6458L65.804 62.5208L64.161 59.6458L65.538 48.8438H65.526L65 47.7988C61.189 47.9898 57.049 49.4758 56.864 49.5498C56.745 49.5828 56.661 49.6708 56.544 49.7388C56.444 49.8018 56.343 49.8458 56.248 49.9188C56.124 50.0258 56.045 50.1488 55.944 50.2718C55.874 50.3548 55.799 50.4338 55.751 50.5348C55.676 50.6748 55.644 50.8248 55.608 50.9828C55.58 51.0788 55.526 51.1448 55.515 51.2458L53.86 66.0738C53.742 67.1998 54.548 68.2268 55.692 68.3468C55.767 68.3548 55.843 68.3608 55.917 68.3608C56.948 68.3608 57.847 67.5808 57.964 66.5278L59.463 53.0228C59.638 52.9678 59.835 52.9108 60.035 52.8608V66.9028L58.393 87.2758C58.286 88.6428 59.302 89.8358 60.653 89.9458C60.718 89.9508 60.798 89.9508 60.862 89.9508C62.134 89.9508 63.214 88.9718 63.312 87.6808L64.803 69.2618C65.111 69.3978 65.448 69.4808 65.802 69.4808C66.159 69.4808 66.502 69.4038 66.808 69.2618L68.282 87.6808C68.389 88.9708 69.465 89.9508 70.742 89.9508C70.81 89.9508 70.866 89.9508 70.939 89.9458C72.3 89.8258 73.315 88.6428 73.196 87.2758L71.56 66.9028V52.8608C71.763 52.9098 71.966 52.9678 72.143 53.0228L73.64 66.5278C73.764 67.5808 74.655 68.3608 75.683 68.3608C75.764 68.3608 75.842 68.3558 75.914 68.3468C77.041 68.2268 77.858 67.2008 77.73 66.0738L76.085 51.2518Z" fill="#176F58"/>
<path d="M38.877 47.3115C41.791 47.3115 44.134 43.9415 44.134 41.0385C44.134 38.1245 41.786 35.7715 38.877 35.7715C35.968 35.7715 33.617 38.1245 33.617 41.0385C33.617 43.9415 35.968 47.3115 38.877 47.3115Z" fill="#176F58"/>
<path d="M50.475 66.0615L47.16 52.7435C47.137 52.7155 47.127 52.7105 47.121 52.6805C47.085 52.5815 47.025 52.4915 46.992 52.3905C46.929 52.2885 46.892 52.1835 46.817 52.0975C46.812 52.0705 46.812 52.0595 46.779 52.0385C46.646 51.8815 43.305 48.1445 38.877 48.1445C34.45 48.1445 31.105 51.8815 30.97 52.0385C30.954 52.0535 30.954 52.0755 30.937 52.0975C30.877 52.1835 30.82 52.2835 30.781 52.3795C30.725 52.4805 30.664 52.5735 30.634 52.6755C30.623 52.6965 30.613 52.7115 30.608 52.7385L27.286 66.0565C27.05 66.9455 27.597 67.8485 28.495 68.0735C28.624 68.1065 28.752 68.1255 28.886 68.1255C29.644 68.1255 30.312 67.6195 30.506 66.8585L33.702 54.0435L34.547 61.8655L29.089 72.5385C29.089 72.9335 31.313 73.8405 34.547 74.3275L33.478 87.7005C33.377 88.8505 34.232 89.8565 35.383 89.9445C35.44 89.9495 35.489 89.9495 35.551 89.9495C36.627 89.9495 37.536 89.1235 37.622 88.0405L38.7 74.6585C38.756 74.6585 38.823 74.6585 38.873 74.6585C38.927 74.6585 38.99 74.6585 39.047 74.6585L40.128 88.0405C40.219 89.1235 41.118 89.9495 42.188 89.9495C42.262 89.9495 42.311 89.9495 42.363 89.9445C43.513 89.8455 44.369 88.8435 44.268 87.7005L43.192 74.3275C46.421 73.8405 48.657 72.9265 48.657 72.5385L43.192 61.8715L44.039 54.0435L47.251 66.8585C47.429 67.6195 48.102 68.1255 48.865 68.1255C48.993 68.1255 49.127 68.1065 49.25 68.0735C50.164 67.8545 50.706 66.9535 50.475 66.0615Z" fill="#176F58"/>
<path d="M38.5919 103.876C35.7109 103.876 33.3849 100.538 33.3849 97.6669C33.3849 94.7809 35.7109 92.4609 38.5919 92.4609C41.4699 92.4609 43.796 94.7919 43.796 97.6669C43.796 100.539 41.4709 103.876 38.5919 103.876Z" fill="#176F58"/>
<path d="M28.311 107.766C28.311 107.678 28.383 107.585 28.399 107.498C28.439 107.345 28.467 107.191 28.546 107.06C28.591 106.951 28.674 106.874 28.74 106.781C28.83 106.666 28.91 106.54 29.038 106.436C29.129 106.36 29.246 106.31 29.344 106.249C29.456 106.184 29.542 106.103 29.648 106.063C29.839 105.987 33.98 104.51 37.795 104.312L38.327 105.357H38.331L36.949 116.16L38.597 119.032L40.239 116.16L38.859 105.357H38.871L39.398 104.312C43.201 104.51 47.35 105.987 47.532 106.063C47.651 106.102 47.735 106.183 47.847 106.249C47.949 106.31 48.05 106.359 48.156 106.436C48.28 106.54 48.368 106.665 48.452 106.787C48.527 106.875 48.597 106.951 48.65 107.049C48.72 107.193 48.751 107.346 48.795 107.499C48.816 107.598 48.875 107.674 48.884 107.762L50.532 122.591C50.649 123.717 49.842 124.74 48.704 124.866C48.632 124.866 48.554 124.878 48.473 124.878C47.45 124.878 46.554 124.084 46.435 123.039L44.933 109.536C44.758 109.479 44.581 109.419 44.357 109.369V123.417L46.003 143.8C46.122 145.152 45.09 146.351 43.74 146.46C43.677 146.46 43.6 146.465 43.532 146.465C42.26 146.465 41.184 145.485 41.083 144.188L39.592 125.776C39.286 125.912 38.949 125.991 38.597 125.991C38.238 125.991 37.897 125.912 37.598 125.776L36.106 144.188C36.006 145.485 34.93 146.465 33.652 146.465C33.587 146.465 33.524 146.46 33.458 146.46C32.09 146.351 31.08 145.157 31.192 143.8L32.839 123.417V109.369C32.63 109.419 32.431 109.479 32.256 109.536L30.757 123.039C30.64 124.084 29.748 124.878 28.717 124.878C28.637 124.878 28.565 124.866 28.486 124.866C27.353 124.74 26.536 123.717 26.672 122.591L28.311 107.766Z" fill="#176F58"/>
<path d="M11.667 103.91C8.75796 103.91 6.39996 100.539 6.39996 97.639C6.39996 94.722 8.76496 92.373 11.667 92.373C14.571 92.373 16.924 94.727 16.924 97.639C16.929 100.539 14.571 103.91 11.667 103.91Z" fill="#176F58"/>
<path d="M0.0599467 122.668L3.39195 109.346C3.39195 109.332 3.41995 109.305 3.41995 109.294C3.45495 109.185 3.51995 109.103 3.56195 108.999C3.61595 108.895 3.65995 108.791 3.73495 108.703C3.73895 108.687 3.73895 108.665 3.75095 108.649C3.89595 108.49 7.24095 104.752 11.6679 104.752C16.1009 104.752 19.4419 108.49 19.5749 108.649C19.5909 108.659 19.5979 108.687 19.6079 108.703C19.6759 108.791 19.7199 108.889 19.7689 108.987C19.8219 109.092 19.8759 109.178 19.9059 109.284C19.9059 109.305 19.9389 109.327 19.9389 109.338L23.2659 122.662C23.4849 123.555 22.9489 124.451 22.0519 124.671C21.9229 124.703 21.7829 124.731 21.6549 124.731C20.9069 124.731 20.2239 124.222 20.0399 123.467L16.8289 110.654L16.0049 118.471L21.4629 129.135C21.4629 129.54 19.2329 130.443 15.9989 130.931L17.0729 144.304C17.1639 145.453 16.3079 146.46 15.1589 146.55C15.0999 146.55 15.0469 146.55 15.0029 146.55C13.9199 146.55 13.0049 145.728 12.9179 144.632L11.8399 131.264C11.7799 131.264 11.7229 131.264 11.6739 131.264C11.6109 131.264 11.5549 131.264 11.4869 131.264L10.4179 144.632C10.3299 145.728 9.42695 146.55 8.33795 146.55C8.28995 146.55 8.23495 146.55 8.18195 146.55C7.03795 146.455 6.18195 145.453 6.27195 144.304L7.34795 130.931C4.10795 130.443 1.87795 129.54 1.87795 129.135L7.34795 118.483L6.50795 110.654L3.30095 123.467C3.11295 124.222 2.43495 124.731 1.68695 124.731C1.55395 124.731 1.41495 124.704 1.28595 124.671C0.376947 124.452 -0.160053 123.56 0.0599467 122.668Z" fill="#176F58"/>
<path d="M65.515 103.91C62.601 103.91 60.259 100.539 60.259 97.639C60.259 94.722 62.608 92.373 65.515 92.373C68.423 92.373 70.782 94.727 70.782 97.639C70.781 100.539 68.418 103.91 65.515 103.91Z" fill="#176F58"/>
<path d="M53.917 122.668L57.245 109.346C57.25 109.332 57.264 109.305 57.275 109.294C57.308 109.185 57.362 109.103 57.403 108.999C57.462 108.895 57.504 108.791 57.574 108.703C57.592 108.687 57.592 108.665 57.611 108.649C57.75 108.49 61.088 104.752 65.514 104.752C69.942 104.752 73.283 108.49 73.416 108.649C73.444 108.659 73.444 108.687 73.449 108.703C73.517 108.791 73.573 108.889 73.613 108.987C73.669 109.092 73.732 109.178 73.759 109.284C73.764 109.305 73.78 109.327 73.792 109.338L77.11 122.662C77.346 123.555 76.79 124.451 75.894 124.671C75.775 124.703 75.642 124.731 75.507 124.731C74.75 124.731 74.08 124.222 73.888 123.467L70.69 110.654L69.847 118.471L75.305 129.135C75.305 129.54 73.074 130.443 69.847 130.931L70.919 144.304C71.017 145.453 70.155 146.46 69.011 146.55C68.957 146.55 68.899 146.55 68.845 146.55C67.769 146.55 66.861 145.728 66.777 144.632L65.701 131.264C65.638 131.264 65.573 131.264 65.521 131.264C65.465 131.264 65.402 131.264 65.353 131.264L64.263 144.632C64.172 145.728 63.269 146.55 62.2 146.55C62.132 146.55 62.083 146.55 62.024 146.55C60.883 146.455 60.036 145.453 60.12 144.304L61.191 130.931C57.97 130.443 55.732 129.54 55.732 129.135L61.191 118.483L60.356 110.654L57.158 123.467C56.967 124.222 56.288 124.731 55.545 124.731C55.4 124.731 55.277 124.704 55.146 124.671C54.231 124.452 53.683 123.56 53.917 122.668Z" fill="#176F58"/>
<path d="M136.165 91.1973H116.53V146.557H136.165V91.1973Z" fill="#176F58"/>
<path d="M159.244 65.6016H139.616V146.558H159.244V65.6016Z" fill="#176F58"/>
<path d="M182.33 35.8477H162.704V146.557H182.33V35.8477Z" fill="#176F58"/>
<path d="M109.592 91.1638L88.36 76.5508L91.525 86.7588H82.244V95.5698H91.525L88.36 105.781L109.592 91.1638Z" fill="#176F58"/>
</g>
<defs>
<clipPath id="clip0">
<rect width="182.33" height="182.331" fill="white"/>
</clipPath>
</defs>
</svg>
