<svg width="50" height="50" viewBox="0 0 50 50" fill="none" xmlns="http://www.w3.org/2000/svg">
<g clip-path="url(#clip0)">
<path d="M48.8908 8.43279L25.5658 0.0994553C25.1975 -0.0305476 24.7958 -0.0305476 24.4275 0.0994553L1.10833 8.43279C0.4474 8.67103 0.00683594 9.29815 0.00683594 10.0007C0.00683594 10.7033 0.4474 11.3304 1.10833 11.5686L12.5 15.6386V20.8345C12.5 24.0745 23.7208 24.1678 25 24.1678C26.2792 24.1678 37.5 24.0745 37.5 20.8345V15.6386L40 14.7511V16.6678C40 17.5883 40.7462 18.3345 41.6667 18.3345H43.3333C44.2538 18.3345 45 17.5883 45 16.6678V14.1678C44.9975 13.7819 44.9045 13.402 44.7283 13.0586L48.895 11.5686C49.5559 11.3304 49.9965 10.7033 49.9965 10.0007C49.9965 9.29815 49.5559 8.67103 48.895 8.43279H48.8908ZM35.8333 19.0011C32.6592 17.5561 25.9708 17.5011 25 17.5011C24.0292 17.5011 17.3408 17.5561 14.1667 19.0011V11.7411C14.6667 11.0995 18.5967 10.0011 25 10.0011C31.4033 10.0011 35.3333 11.0995 35.8333 11.7411V19.0011ZM25 22.5011C18.8333 22.5011 14.9608 21.4828 14.2367 20.8345C14.9608 20.1861 18.835 19.1678 25 19.1678C31.165 19.1678 35.0392 20.1861 35.7633 20.8345C35.0392 21.4828 31.1667 22.5011 25 22.5011V22.5011ZM40.3908 12.8386L37.5 13.8695V11.6678C37.5 8.42779 26.2792 8.33446 25 8.33446C23.7208 8.33446 12.5 8.42779 12.5 11.6678V13.8686L1.66667 10.0011L25.0117 1.66779L41.6667 7.61946V11.8211C41.1397 12.0084 40.6906 12.3666 40.3908 12.8386ZM43.3333 16.6678H41.6667V14.1678C41.6667 13.7076 42.0398 13.3345 42.5 13.3345C42.9602 13.3345 43.3333 13.7076 43.3333 14.1678V16.6678ZM43.3333 11.7878V8.21529L48.3333 10.0011L43.3333 11.7878Z" fill="#F4BB03"/>
<path d="M47.5 25.834C47.45 25.8338 47.4 25.8383 47.3508 25.8473C39.9569 26.9968 32.4826 27.5497 25 27.5007C17.5174 27.5497 10.0431 26.9968 2.64917 25.8473C2.59988 25.8389 2.55 25.8345 2.5 25.834C1.91667 25.834 0 26.4948 0 35.0006C0 43.5065 1.91667 44.1673 2.5 44.1673C2.55004 44.1662 2.59992 44.1612 2.64917 44.1523C8.33058 43.2524 14.0653 42.7296 19.8158 42.5873L18.1892 46.489C17.9392 47.1137 18.0912 47.8275 18.5739 48.2963C19.0565 48.7651 19.7745 48.8962 20.3917 48.6281L21.0292 48.3556L21.305 48.9898C21.5655 49.6047 22.1697 50.0032 22.8375 50.0006H22.8583C23.5312 49.9954 24.1343 49.5847 24.3858 48.9606L25.8333 45.4956L27.2758 48.9473C27.5251 49.5772 28.1309 49.9936 28.8083 50.0006H28.8333C29.4966 50.0034 30.0975 49.6098 30.36 49.0006L30.6383 48.3615L31.2658 48.6306C31.8857 48.9043 32.6096 48.7739 33.0951 48.3013C33.5806 47.8286 33.7303 47.1084 33.4733 46.4815L31.8783 42.6565C37.063 42.84 42.2316 43.341 47.355 44.1565C47.4029 44.1644 47.4514 44.168 47.5 44.1673C48.0833 44.1673 50 43.5065 50 35.0006C50 26.4948 48.0833 25.834 47.5 25.834V25.834ZM27.6667 29.1423C28.0127 30.4148 28.2143 31.7222 28.2675 33.0398C26.378 32.1612 24.1619 32.3672 22.4667 33.579C22.424 32.0825 22.2323 30.594 21.8942 29.1357C22.9036 29.1568 23.9389 29.1673 25 29.1673C25.9108 29.1673 26.795 29.1573 27.6667 29.1423V29.1423ZM25.8333 42.5006C23.5321 42.5006 21.6667 40.6352 21.6667 38.334C21.6667 36.0328 23.5321 34.1673 25.8333 34.1673C28.1345 34.1673 30 36.0328 30 38.334C29.9972 40.634 28.1334 42.4979 25.8333 42.5006V42.5006ZM2.5 27.9173C3.13851 30.2219 3.41956 32.6108 3.33333 35.0006C3.41956 37.3905 3.13851 39.7794 2.5 42.084C1.86149 39.7794 1.58044 37.3905 1.66667 35.0006C1.58044 32.6108 1.86149 30.2219 2.5 27.9173ZM4.18333 42.2256C4.63917 40.904 5 38.6923 5 35.0006C5 31.309 4.63917 29.0973 4.1825 27.774C9.47799 28.5053 14.8096 28.9457 20.1533 29.0932C20.6532 31.0212 20.882 33.0095 20.8333 35.0006C20.8333 35.1215 20.8333 35.2365 20.8283 35.3523C19.8283 37.012 19.7275 39.0626 20.56 40.8123L20.5233 40.9006C15.056 41.0347 9.60065 41.4776 4.18333 42.2273V42.2256ZM22.8392 48.334L22.2308 46.934C22.0479 46.5136 21.5597 46.32 21.1383 46.5006L19.7358 47.1206L21.69 42.4356C22.4923 43.2486 23.5158 43.8079 24.6333 44.044L22.8392 48.334ZM30.5283 46.5006C30.107 46.32 29.6188 46.5136 29.4358 46.934L28.8192 48.3198L27.0325 44.0423C28.1509 43.8061 29.1753 43.2466 29.9783 42.4331L31.9283 47.0998L30.5283 46.5006ZM47.3333 42.459C41.9794 41.635 36.5808 41.1341 31.1667 40.959L31.1075 40.8156C32.1555 38.6073 31.7062 35.9789 29.9842 34.244C29.9777 32.5158 29.7781 30.7937 29.3892 29.1098C35.3982 28.9753 41.3921 28.4514 47.3333 27.5415C47.72 28.1982 48.3333 30.7956 48.3333 35.0006C48.3333 39.2056 47.7158 41.8023 47.3333 42.459V42.459Z" fill="#F4BB03"/>
</g>
<defs>
<clipPath id="clip0">
<rect width="50" height="50" fill="white"/>
</clipPath>
</defs>
</svg>
