<svg width="50" height="50" viewBox="0 0 50 50" fill="none" xmlns="http://www.w3.org/2000/svg">
<g clip-path="url(#clip0)">
<path d="M48.8919 8.43083L25.5669 0.0975021C25.1986 -0.0325007 24.7969 -0.0325007 24.4285 0.0975021L1.10937 8.43083C0.448438 8.66907 0.00787354 9.29619 0.00787354 9.99875C0.00787354 10.7013 0.448438 11.3284 1.10937 11.5667L12.501 15.6367V20.8325C12.501 24.0725 23.7219 24.1658 25.001 24.1658C26.2802 24.1658 37.501 24.0725 37.501 20.8325V15.6367L40.001 14.7492V16.6658C40.001 17.5863 40.7472 18.3325 41.6677 18.3325H43.3344C44.2549 18.3325 45.001 17.5863 45.001 16.6658V14.1658C44.9986 13.7799 44.9055 13.4 44.7294 13.0567L48.896 11.5667C49.557 11.3284 49.9975 10.7013 49.9975 9.99875C49.9975 9.29619 49.557 8.66907 48.896 8.43083H48.8919ZM35.8344 18.9992C32.6602 17.5542 25.9719 17.4992 25.001 17.4992C24.0302 17.4992 17.3419 17.5542 14.1677 18.9992V11.7392C14.6677 11.0975 18.5977 9.99917 25.001 9.99917C31.4044 9.99917 35.3344 11.0975 35.8344 11.7392V18.9992ZM25.001 22.4992C18.8344 22.4992 14.9619 21.4808 14.2377 20.8325C14.9619 20.1842 18.836 19.1658 25.001 19.1658C31.166 19.1658 35.0402 20.1842 35.7644 20.8325C35.0402 21.4808 31.1677 22.4992 25.001 22.4992V22.4992ZM40.3919 12.8367L37.501 13.8675V11.6658C37.501 8.42583 26.2802 8.3325 25.001 8.3325C23.7219 8.3325 12.501 8.42583 12.501 11.6658V13.8667L1.66771 9.99917L25.0127 1.66583L41.6677 7.6175V11.8192C41.1408 12.0064 40.6917 12.3646 40.3919 12.8367ZM43.3344 16.6658H41.6677V14.1658C41.6677 13.7056 42.0408 13.3325 42.501 13.3325C42.9613 13.3325 43.3344 13.7056 43.3344 14.1658V16.6658ZM43.3344 11.7858V8.21333L48.3344 9.99917L43.3344 11.7858Z" fill="#176F58"/>
<path d="M47.5 25.832C47.45 25.8319 47.4 25.8364 47.3508 25.8454C39.9569 26.9949 32.4826 27.5478 25 27.4987C17.5174 27.5478 10.0431 26.9949 2.64917 25.8454C2.59988 25.837 2.55 25.8325 2.5 25.832C1.91667 25.832 0 26.4929 0 34.9987C0 43.5045 1.91667 44.1654 2.5 44.1654C2.55004 44.1643 2.59992 44.1593 2.64917 44.1504C8.33058 43.2504 14.0653 42.7276 19.8158 42.5854L18.1892 46.487C17.9392 47.1118 18.0912 47.8256 18.5739 48.2944C19.0565 48.7632 19.7745 48.8942 20.3917 48.6262L21.0292 48.3537L21.305 48.9879C21.5655 49.6028 22.1697 50.0013 22.8375 49.9987H22.8583C23.5312 49.9935 24.1343 49.5828 24.3858 48.9587L25.8333 45.4937L27.2758 48.9454C27.5251 49.5753 28.1309 49.9917 28.8083 49.9987H28.8333C29.4966 50.0014 30.0975 49.6079 30.36 48.9987L30.6383 48.3595L31.2658 48.6287C31.8857 48.9023 32.6096 48.772 33.0951 48.2993C33.5806 47.8267 33.7303 47.1065 33.4733 46.4795L31.8783 42.6545C37.063 42.8381 42.2316 43.339 47.355 44.1545C47.4029 44.1625 47.4514 44.1661 47.5 44.1654C48.0833 44.1654 50 43.5045 50 34.9987C50 26.4929 48.0833 25.832 47.5 25.832V25.832ZM27.6667 29.1404C28.0127 30.4128 28.2143 31.7203 28.2675 33.0379C26.378 32.1593 24.1619 32.3652 22.4667 33.577C22.424 32.0806 22.2323 30.5921 21.8942 29.1337C22.9036 29.1548 23.9389 29.1654 25 29.1654C25.9108 29.1654 26.795 29.1554 27.6667 29.1404V29.1404ZM25.8333 42.4987C23.5321 42.4987 21.6667 40.6332 21.6667 38.332C21.6667 36.0308 23.5321 34.1654 25.8333 34.1654C28.1345 34.1654 30 36.0308 30 38.332C29.9972 40.6321 28.1334 42.4959 25.8333 42.4987V42.4987ZM2.5 27.9154C3.13851 30.2199 3.41956 32.6089 3.33333 34.9987C3.41956 37.3885 3.13851 39.7775 2.5 42.082C1.86149 39.7775 1.58044 37.3885 1.66667 34.9987C1.58044 32.6089 1.86149 30.2199 2.5 27.9154ZM4.18333 42.2237C4.63917 40.902 5 38.6904 5 34.9987C5 31.307 4.63917 29.0954 4.1825 27.772C9.47799 28.5034 14.8096 28.9438 20.1533 29.0912C20.6532 31.0192 20.882 33.0075 20.8333 34.9987C20.8333 35.1195 20.8333 35.2345 20.8283 35.3504C19.8283 37.01 19.7275 39.0607 20.56 40.8104L20.5233 40.8987C15.056 41.0327 9.60065 41.4756 4.18333 42.2254V42.2237ZM22.8392 48.332L22.2308 46.932C22.0479 46.5117 21.5597 46.318 21.1383 46.4987L19.7358 47.1187L21.69 42.4337C22.4923 43.2467 23.5158 43.806 24.6333 44.042L22.8392 48.332ZM30.5283 46.4987C30.107 46.318 29.6188 46.5117 29.4358 46.932L28.8192 48.3179L27.0325 44.0404C28.1509 43.8042 29.1753 43.2446 29.9783 42.4312L31.9283 47.0979L30.5283 46.4987ZM47.3333 42.457C41.9794 41.633 36.5808 41.1321 31.1667 40.957L31.1075 40.8137C32.1555 38.6053 31.7062 35.9769 29.9842 34.242C29.9777 32.5138 29.7781 30.7917 29.3892 29.1079C35.3982 28.9733 41.3921 28.4494 47.3333 27.5395C47.72 28.1962 48.3333 30.7937 48.3333 34.9987C48.3333 39.2037 47.7158 41.8004 47.3333 42.457V42.457Z" fill="#176F58"/>
</g>
<defs>
<clipPath id="clip0">
<rect width="50" height="50" fill="white"/>
</clipPath>
</defs>
</svg>
