<svg width="50" height="50" viewBox="0 0 50 50" fill="none" xmlns="http://www.w3.org/2000/svg">
<path d="M39.5833 20.8861V10.4167C39.5833 8.11875 37.7146 6.25 35.4166 6.25H4.1666C1.86865 6.25 0 8.11865 0 10.4167V31.25C0 33.5479 1.86865 35.4167 4.1667 35.4167H27.5275C28.8924 40.2187 33.3079 43.75 38.5417 43.75C40.5559 43.75 42.5364 43.22 44.2719 42.216C44.7693 41.9281 44.9402 41.2913 44.6513 40.7929C44.3634 40.2944 43.7256 40.1225 43.2281 40.4135C41.8101 41.2334 40.1895 41.6667 38.5416 41.6667C33.3719 41.6667 29.1666 37.4613 29.1666 32.2917C29.1666 27.1221 33.372 22.9167 38.5416 22.9167C43.7112 22.9167 47.9166 27.1221 47.9166 32.2917V33.3334C47.9166 34.4818 46.9817 35.4167 45.8333 35.4167C44.6849 35.4167 43.75 34.4818 43.75 33.3334V29.1667C43.75 28.5909 43.2841 28.125 42.7083 28.125C42.4281 28.125 42.1764 28.2384 41.9894 28.418C41.0687 27.5976 39.8688 27.0833 38.5416 27.0833C35.6699 27.0833 33.3333 29.4199 33.3333 32.2916C33.3333 35.1633 35.6699 37.5 38.5417 37.5C40.094 37.5 41.4743 36.8036 42.4294 35.7225C43.184 36.7944 44.4255 37.5 45.8334 37.5C48.1313 37.5 50 35.6313 50 33.3333V32.2916C50 26.3251 45.4145 21.4148 39.5833 20.8861ZM4.1667 8.3333H35.4167C35.4601 8.3333 35.4964 8.35547 35.5392 8.35811L20.6482 20.5811C20.1183 20.9147 19.3502 20.8455 19.0054 20.634L4.04551 8.35791C4.08779 8.35537 4.12373 8.3333 4.1667 8.3333ZM37.5 20.8861C31.6688 21.4148 27.0833 26.3251 27.0833 32.2917C27.0833 32.6433 27.1049 32.9897 27.136 33.3334H4.1667C3.01826 33.3334 2.0834 32.3985 2.0834 31.2501V10.4167C2.0834 10.1217 2.14854 9.84307 2.25967 9.58857L17.7756 22.3125C18.3818 22.7082 19.0787 22.9168 19.7918 22.9168C20.4774 22.9168 21.1478 22.7235 21.7378 22.3573C21.7968 22.3258 21.8527 22.2882 21.9057 22.2444L37.3236 9.58838C37.4349 9.84307 37.5001 10.1217 37.5001 10.4168V20.8861H37.5ZM38.5417 35.4167C36.8185 35.4167 35.4167 34.0149 35.4167 32.2917C35.4167 30.5685 36.8185 29.1667 38.5417 29.1667C40.2649 29.1667 41.6667 30.5685 41.6667 32.2917C41.6667 34.0149 40.2649 35.4167 38.5417 35.4167Z" fill="#196F58"/>
</svg>
