<svg width="50" height="50" viewBox="0 0 50 50" fill="none" xmlns="http://www.w3.org/2000/svg">
<g clip-path="url(#clip0)">
<path d="M19.8276 36.1034V42.2414H15.5172C15.0411 42.2414 14.6552 42.6273 14.6552 43.1034V44.8276C14.6552 45.3037 15.0411 45.6897 15.5172 45.6897H19.8276V49.1379C19.8276 49.614 20.2135 50 20.6896 50H22.4138C22.8899 50 23.2759 49.614 23.2759 49.1379V45.6897H27.5862C28.0623 45.6897 28.4483 45.3037 28.4483 44.8276V43.1034C28.4483 42.6273 28.0623 42.2414 27.5862 42.2414H23.2759V36.1034C28.5383 35.4734 33.0511 32.0525 35.0794 27.156C37.1077 22.2595 36.3358 16.6495 33.0603 12.4828L39.6552 5.88793V9.48276C39.6552 9.95887 40.0411 10.3448 40.5172 10.3448H42.2414C42.7175 10.3448 43.1034 9.95887 43.1034 9.48276V0.862069C43.1034 0.385961 42.7175 0 42.2414 0H33.6207C33.1446 0 32.7586 0.385961 32.7586 0.862069V2.58621C32.7586 3.06231 33.1446 3.44828 33.6207 3.44828H37.2155L30.6207 10.0431C21.2172 2.59224 6.89655 9.15086 6.89655 21.5517C6.89739 28.978 12.4529 35.2298 19.8276 36.1034V36.1034ZM21.5517 10.3448C27.7411 10.3448 32.7586 15.3623 32.7586 21.5517C32.7586 27.7411 27.7411 32.7586 21.5517 32.7586C15.3623 32.7586 10.3448 27.7411 10.3448 21.5517C10.3519 15.3653 15.3653 10.352 21.5517 10.3448V10.3448Z" fill="#F4BB03"/>
<path d="M17.2413 26.7237H25.862C26.8142 26.7237 27.5862 25.9517 27.5862 24.9995C27.5862 24.0473 26.8142 23.2754 25.862 23.2754H17.2413C16.2891 23.2754 15.5172 24.0473 15.5172 24.9995C15.5172 25.9517 16.2891 26.7237 17.2413 26.7237Z" fill="#F4BB03"/>
<path d="M17.2413 19.8272H25.862C26.8142 19.8272 27.5862 19.0553 27.5862 18.103C27.5862 17.1508 26.8142 16.3789 25.862 16.3789H17.2413C16.2891 16.3789 15.5172 17.1508 15.5172 18.103C15.5172 19.0553 16.2891 19.8272 17.2413 19.8272Z" fill="#F4BB03"/>
</g>
<defs>
<clipPath id="clip0">
<rect width="50" height="50" fill="white"/>
</clipPath>
</defs>
</svg>
