<svg width="50" height="50" viewBox="0 0 50 50" fill="none" xmlns="http://www.w3.org/2000/svg">
<path d="M23.0231 3.92127L24.1378 2.8438V9.99897C24.1377 10.22 24.2286 10.432 24.3903 10.5883C24.5519 10.7446 24.7713 10.8324 25 10.8324C25.2286 10.8325 25.4479 10.7447 25.6097 10.5883C25.7713 10.4321 25.8621 10.2201 25.8621 9.99897V2.8438L26.9768 3.92137C27.1941 4.13407 27.5126 4.21796 27.8115 4.1412C28.1103 4.06444 28.3438 3.83875 28.4232 3.54987C28.5026 3.261 28.4158 2.95308 28.1958 2.74302L25.6102 0.243537C25.2726 -0.0811789 24.7271 -0.0811789 24.3897 0.243537L21.8042 2.74292C21.4727 3.0692 21.4753 3.59265 21.8096 3.916C22.144 4.23934 22.6857 4.24169 23.0231 3.92127Z" fill="#176F58"/>
<path d="M40.2646 13.0873L41.3793 12.0098V19.165C41.3792 19.386 41.47 19.598 41.6317 19.7544C41.7934 19.9106 42.0127 19.9984 42.2414 19.9984C42.47 19.9985 42.6893 19.9107 42.8511 19.7544C43.0127 19.5981 43.1035 19.3861 43.1035 19.165V12.0098L44.2182 13.0874C44.4355 13.3001 44.754 13.384 45.0529 13.3072C45.3517 13.2305 45.5852 13.0048 45.6646 12.7159C45.744 12.427 45.6572 12.1191 45.4372 11.909L42.8515 9.40955C42.514 9.08484 41.9684 9.08484 41.631 9.40955L39.0456 11.9089C38.7142 12.2352 38.7167 12.7587 39.0511 13.082C39.3855 13.4054 39.927 13.4076 40.2646 13.0873Z" fill="#176F58"/>
<path d="M5.7819 13.0873L6.8966 12.0098V19.165C6.8965 19.386 6.98732 19.598 7.14905 19.7544C7.31069 19.9106 7.53001 19.9984 7.75873 19.9984C7.98735 19.9985 8.20667 19.9107 8.36841 19.7544C8.53005 19.5981 8.62087 19.3861 8.62087 19.165V12.0098L9.73556 13.0874C10.0728 13.4093 10.6156 13.4076 10.9508 13.0837C11.2859 12.7597 11.2876 12.235 10.9546 11.9089L8.36881 9.40955C8.03129 9.08484 7.48577 9.08484 7.14835 9.40955L4.56295 11.9089C4.23149 12.2352 4.23402 12.7587 4.56841 13.082C4.9028 13.4054 5.44438 13.4076 5.7819 13.0873Z" fill="#176F58"/>
<path d="M46.3067 38.2687C48.5872 36.8895 49.6464 34.2166 48.903 31.7175C48.1596 29.2184 45.7933 27.4979 43.1033 27.5004C43.017 27.5004 42.9331 27.5095 42.8477 27.5129C42.0811 25.0434 39.736 23.3475 37.0689 23.3336C36.9828 23.3336 36.8984 23.3415 36.813 23.345C36.0459 20.876 33.7012 19.1807 31.0344 19.1668C30.9484 19.1668 30.8639 19.1747 30.7785 19.1782C30.0239 16.7009 27.6715 15 25 15C22.3285 15 19.9761 16.7009 19.2215 19.1782C19.1361 19.1747 19.0516 19.1668 18.9656 19.1668C16.2988 19.1806 13.9541 20.876 13.187 23.345C13.1016 23.3415 13.0172 23.3336 12.9311 23.3336C10.264 23.3474 7.91893 25.0433 7.15227 27.5129C7.0669 27.5095 6.98295 27.5004 6.89668 27.5004C4.20662 27.4978 1.84035 29.2183 1.09691 31.7175C0.353481 34.2166 1.41281 36.8895 3.69332 38.2687C1.42474 39.4197 0.00272764 41.6909 0 44.1675V48.3344C0.00111126 49.2544 0.772325 50 1.72417 50.0011H48.2758C49.2276 50 49.9989 49.2544 50 48.3344V44.1675C49.9972 41.6909 48.5752 39.4197 46.3067 38.2687ZM41.5062 29.4715C41.6503 29.4198 41.7972 29.3756 41.9462 29.3391C42.0646 29.3075 42.1793 29.2677 42.302 29.2456C43.5637 29.0048 44.8705 29.3248 45.8614 30.1173C46.8522 30.9098 47.4222 32.0909 47.4136 33.334C47.4212 34.9231 46.4932 36.378 45.0211 37.0849C43.5488 37.792 41.7889 37.6279 40.4835 36.6621C39.1781 35.6962 38.5546 34.0968 38.8761 32.5383C38.8916 32.4608 38.9197 32.3879 38.9396 32.3119C38.984 32.133 39.0406 31.9571 39.1091 31.7854C39.141 31.7083 39.1815 31.6358 39.218 31.561C39.2953 31.3994 39.3833 31.243 39.4814 31.0924C39.5254 31.0259 39.5738 30.9627 39.6214 30.8989C39.7309 30.7525 39.85 30.6129 39.9781 30.4813C40.0322 30.4258 40.0873 30.3716 40.1444 30.3191C40.28 30.196 40.4237 30.0813 40.5744 29.976C40.6419 29.9285 40.7081 29.8796 40.7786 29.8359C40.9272 29.7461 41.0813 29.6651 41.2401 29.5934C41.3288 29.5524 41.4142 29.5067 41.5062 29.4715ZM35.6953 25.2237C35.8183 25.184 35.947 25.1567 36.0748 25.1275C36.3997 25.0471 36.7335 25.0045 37.0688 25.0005C38.9077 25.009 40.5412 26.1376 41.1451 27.8166C41.1151 27.8265 41.0884 27.8423 41.0586 27.8526C40.8286 27.9327 40.6038 28.0261 40.3856 28.1327C40.3378 28.1558 40.2882 28.1755 40.2413 28.1999C40.026 28.3142 39.8181 28.4411 39.6189 28.5798C39.5351 28.6372 39.4537 28.6963 39.3732 28.7576C39.2105 28.8813 39.0543 29.0131 38.9054 29.1522C38.8204 29.2319 38.741 29.3152 38.6611 29.3995C38.5438 29.5231 38.4321 29.6514 38.3258 29.7841C38.2639 29.8618 38.2017 29.9384 38.1439 30.019C38.0072 30.2093 37.8824 30.4071 37.7702 30.6117C37.7321 30.6815 37.6992 30.7531 37.664 30.8245C37.5705 31.0129 37.4876 31.2061 37.4157 31.4031C37.3966 31.4558 37.3738 31.5065 37.3562 31.5599C37.2755 31.808 37.2122 32.061 37.1668 32.3173C37.1553 32.3801 37.1461 32.4432 37.1368 32.5066C37.0937 32.7805 37.0711 33.057 37.0688 33.334C37.0666 33.0569 37.0438 32.7802 37.0009 32.5063C36.9916 32.4431 36.9824 32.3803 36.971 32.3177C36.9255 32.0613 36.8622 31.8081 36.7814 31.5599C36.7638 31.5066 36.741 31.4558 36.7219 31.4031C36.6499 31.206 36.567 31.0129 36.4735 30.8245C36.4384 30.7532 36.4055 30.6815 36.3674 30.6117C36.255 30.407 36.1302 30.209 35.9934 30.0187C35.9358 29.9381 35.8736 29.8618 35.8118 29.7842C35.7057 29.651 35.5939 29.5227 35.4764 29.3994C35.3965 29.3151 35.3171 29.2317 35.2322 29.1521C35.0833 29.013 34.9271 28.8812 34.7643 28.7575C34.6839 28.6963 34.6027 28.6373 34.5189 28.5799C34.3195 28.4412 34.1116 28.3142 33.8962 28.1999C33.8493 28.1755 33.7998 28.1559 33.752 28.1327C33.5338 28.0261 33.309 27.9326 33.079 27.8526C33.0509 27.8429 33.0258 27.8281 32.9975 27.8187C33.0213 27.7511 33.053 27.6874 33.0803 27.6215C33.1305 27.4925 33.1875 27.366 33.2508 27.2426C33.2717 27.2038 33.2984 27.1686 33.3205 27.1305C33.4087 26.9755 33.5071 26.826 33.615 26.6831L33.6213 26.6758C34.0166 26.1689 34.5247 25.7546 35.1082 25.4634C35.1399 25.4477 35.1742 25.4366 35.2063 25.4217C35.365 25.346 35.5283 25.2799 35.6953 25.2237ZM23.1634 29.1521C23.0145 29.013 22.8583 28.8812 22.6956 28.7575C22.6151 28.6963 22.5339 28.6373 22.4502 28.5799C22.2507 28.4412 22.0428 28.3142 21.8275 28.1999C21.7805 28.1755 21.731 28.1559 21.6832 28.1327C21.465 28.0261 21.2402 27.9326 21.0102 27.8526C20.9821 27.8429 20.957 27.8281 20.9287 27.8187C20.9525 27.7511 20.9842 27.6874 21.0115 27.6215C21.0617 27.4925 21.1187 27.366 21.182 27.2426C21.2029 27.2038 21.2296 27.1686 21.2517 27.1305C21.3399 26.9755 21.4383 26.826 21.5462 26.6831L21.5525 26.6758C21.9478 26.1689 22.4559 25.7546 23.0394 25.4634C23.0711 25.4477 23.1054 25.4366 23.1375 25.4217C23.2961 25.3461 23.4594 25.28 23.6264 25.2237C23.7494 25.184 23.8781 25.1567 24.0059 25.1275C24.0963 25.1063 24.1844 25.0787 24.2769 25.0632C24.3094 25.057 24.3471 25.0541 24.3813 25.0488C24.5828 25.0188 24.7862 25.0029 24.9901 25.0012L25.0126 25.0014C25.2154 25.0032 25.4178 25.019 25.6183 25.0488C25.6526 25.0541 25.6904 25.057 25.7231 25.0632C25.8155 25.0787 25.9036 25.1064 25.9941 25.1275C26.122 25.1567 26.2506 25.184 26.3736 25.2237C26.5406 25.28 26.7039 25.3461 26.8625 25.4217C26.8946 25.4366 26.9289 25.4477 26.9606 25.4634C27.5441 25.7546 28.0522 26.1689 28.4475 26.6758L28.4538 26.6831C28.5617 26.8261 28.66 26.9755 28.7483 27.1305C28.7704 27.1686 28.7971 27.2038 28.818 27.2426C28.8813 27.366 28.9383 27.4925 28.9885 27.6215C29.0158 27.6875 29.0475 27.7511 29.0712 27.8187C29.043 27.8281 29.0179 27.8428 28.9898 27.8526C28.7598 27.9327 28.535 28.0261 28.3168 28.1327C28.269 28.1558 28.2195 28.1755 28.1725 28.1999C27.9573 28.3142 27.7494 28.4411 27.5501 28.5798C27.4663 28.6372 27.385 28.6963 27.3044 28.7576C27.1417 28.8813 26.9855 29.0131 26.8366 29.1522C26.7516 29.2319 26.6722 29.3152 26.5923 29.3995C26.475 29.5231 26.3633 29.6514 26.257 29.7841C26.1951 29.8618 26.1329 29.9384 26.0751 30.019C25.9384 30.2093 25.8136 30.4071 25.7014 30.6117C25.6633 30.6815 25.6304 30.7531 25.5952 30.8245C25.5017 31.0129 25.4188 31.2061 25.3469 31.4031C25.3278 31.4558 25.305 31.5065 25.2874 31.5599C25.2067 31.808 25.1435 32.061 25.098 32.3173C25.0865 32.3801 25.0773 32.4432 25.068 32.5066C25.0251 32.7804 25.0023 33.057 25 33.334C24.9978 33.0569 24.975 32.7802 24.9321 32.5063C24.9228 32.4431 24.9136 32.3803 24.9022 32.3177C24.8567 32.0613 24.7934 31.8081 24.7126 31.5599C24.695 31.5066 24.6722 31.4558 24.6531 31.4031C24.5812 31.206 24.4982 31.0129 24.4048 30.8245C24.3696 30.7532 24.3367 30.6815 24.2986 30.6117C24.1863 30.407 24.0614 30.209 23.9246 30.0187C23.867 29.9381 23.8048 29.8618 23.7431 29.7842C23.6369 29.651 23.5252 29.5227 23.4077 29.3994C23.3278 29.3151 23.2484 29.2318 23.1634 29.1521ZM21.5777 36.6469C20.2749 37.6081 18.5209 37.7716 17.0522 37.0686C15.5834 36.3658 14.6544 34.9182 14.6552 33.334C14.6564 33.0668 14.6843 32.8004 14.7383 32.5384C14.7539 32.4609 14.782 32.388 14.8019 32.312C14.8462 32.1331 14.9028 31.9572 14.9713 31.7855C15.0032 31.7084 15.0437 31.6359 15.0802 31.5611C15.1576 31.3995 15.2456 31.2431 15.3437 31.0925C15.3876 31.026 15.436 30.9628 15.4837 30.899C15.5931 30.7526 15.7122 30.613 15.8403 30.4814C15.8944 30.4259 15.9495 30.3717 16.0067 30.3192C16.1423 30.1961 16.2859 30.0814 16.4366 29.9761C16.5041 29.9286 16.5703 29.8797 16.6408 29.836C16.7894 29.7462 16.9436 29.6652 17.1024 29.5935C17.191 29.5525 17.2763 29.5068 17.3684 29.4716C17.5124 29.4199 17.6593 29.3757 17.8083 29.3392C17.9267 29.3076 18.0414 29.2678 18.1641 29.2457C18.4257 29.1961 18.6916 29.1701 18.9581 29.168H18.9727C19.2393 29.1701 19.5051 29.1961 19.7667 29.2457C19.8895 29.2678 20.0041 29.3075 20.1225 29.3392C20.2715 29.3757 20.4184 29.4199 20.5624 29.4716C20.6545 29.5068 20.7398 29.5525 20.8284 29.5935C20.9872 29.6652 21.1414 29.7463 21.29 29.836C21.3605 29.8797 21.4267 29.9286 21.4942 29.9761C21.645 30.0814 21.7886 30.196 21.9241 30.3192C21.9814 30.3718 22.0365 30.4259 22.0905 30.4814C22.2186 30.613 22.3377 30.7526 22.4471 30.899C22.4948 30.9629 22.5432 31.0261 22.5872 31.0925C22.6852 31.2431 22.7732 31.3996 22.8506 31.5611C22.8872 31.6359 22.9276 31.7084 22.9595 31.7855C23.028 31.9572 23.0846 32.1331 23.1289 32.312C23.1488 32.388 23.177 32.4608 23.1925 32.5384C23.5065 34.0934 22.8805 35.6858 21.5777 36.6469ZM26.8073 32.5384C26.8229 32.4609 26.851 32.388 26.8709 32.312C26.9152 32.1331 26.9718 31.9572 27.0403 31.7855C27.0722 31.7084 27.1127 31.6359 27.1492 31.5611C27.2266 31.3995 27.3146 31.2431 27.4126 31.0925C27.4566 31.026 27.505 30.9628 27.5527 30.899C27.6621 30.7526 27.7812 30.613 27.9093 30.4814C27.9634 30.4259 28.0185 30.3717 28.0757 30.3192C28.2112 30.1961 28.3549 30.0814 28.5056 29.9761C28.5731 29.9286 28.6393 29.8797 28.7098 29.836C28.8584 29.7462 29.0126 29.6652 29.1714 29.5935C29.26 29.5525 29.3453 29.5068 29.4374 29.4716C29.5814 29.4199 29.7283 29.3757 29.8773 29.3392C29.9957 29.3076 30.1104 29.2678 30.2331 29.2457C30.4927 29.1967 30.7562 29.1709 31.0207 29.1687L31.0463 29.1685C31.3112 29.1707 31.5755 29.1966 31.8357 29.2457C31.9585 29.2678 32.0731 29.3075 32.1915 29.3392C32.3405 29.3757 32.4874 29.4199 32.6314 29.4716C32.7235 29.5068 32.8088 29.5525 32.8974 29.5935C33.0562 29.6652 33.2104 29.7463 33.359 29.836C33.4295 29.8797 33.4957 29.9286 33.5632 29.9761C33.714 30.0814 33.8575 30.196 33.9931 30.3192C34.0504 30.3718 34.1054 30.4259 34.1595 30.4814C34.2876 30.613 34.4067 30.7526 34.5161 30.899C34.5638 30.9629 34.6122 31.0261 34.6561 31.0925C34.7542 31.2431 34.8422 31.3996 34.9196 31.5611C34.9561 31.6359 34.9966 31.7084 35.0285 31.7855C35.097 31.9572 35.1536 32.1331 35.1979 32.312C35.2178 32.388 35.246 32.4608 35.2615 32.5384C35.5756 34.0935 34.9497 35.6861 33.6468 36.6474C32.3439 37.6087 30.5897 37.7722 29.121 37.0692C27.6522 36.3662 26.7232 34.9185 26.7241 33.3341C26.7253 33.0668 26.7532 32.8004 26.8073 32.5384ZM29.6602 21.0571C29.7842 21.017 29.9138 20.9894 30.0427 20.9602C30.3669 20.8802 30.6998 20.8377 31.0344 20.8337C32.8737 20.842 34.5075 21.9711 35.1107 23.6508C35.0731 23.6632 35.0384 23.6812 35.001 23.6943C34.9172 23.7242 34.8357 23.7588 34.7534 23.7923C33.6854 24.2199 32.7679 24.9365 32.1112 25.8561C32.0867 25.8903 32.0635 25.9254 32.0396 25.96C31.9585 26.079 31.8782 26.1977 31.8061 26.3227C31.7173 26.4749 31.6354 26.6313 31.5607 26.7919C31.5279 26.8632 31.5009 26.9371 31.4711 27.01C31.4173 27.1395 31.3674 27.2704 31.3232 27.4043C31.312 27.4387 31.2958 27.4708 31.2853 27.5055C31.2356 27.5035 31.1847 27.5063 31.1341 27.5055C31.1006 27.5049 31.0681 27.5006 31.0344 27.5006C31.0008 27.5006 30.9683 27.5049 30.9347 27.5055C30.8841 27.5063 30.8333 27.5035 30.7836 27.5055C30.773 27.4708 30.7568 27.4387 30.7457 27.4043C30.7015 27.2704 30.6517 27.1394 30.5978 27.01C30.5679 26.9371 30.5409 26.8631 30.5082 26.7919C30.4335 26.6313 30.3516 26.4747 30.2626 26.3223C30.1907 26.1977 30.1104 26.079 30.0295 25.9603C30.0056 25.9256 29.9824 25.8904 29.9577 25.8562C29.3012 24.9368 28.3839 24.2203 27.3162 23.7927C27.2336 23.7591 27.152 23.7244 27.0679 23.6944C27.0322 23.6819 26.9991 23.6647 26.9631 23.6529C26.9859 23.588 27.0165 23.527 27.0425 23.4637C27.0937 23.3317 27.1519 23.2023 27.2169 23.0759C27.2372 23.0383 27.2629 23.0042 27.2843 22.9673C27.3729 22.8113 27.4717 22.661 27.5802 22.5173L27.5875 22.5089C27.9824 22.0023 28.4901 21.5883 29.0731 21.2972C29.1065 21.2807 29.1426 21.2689 29.1765 21.2533C29.3332 21.1783 29.4948 21.1129 29.6602 21.0571ZM25 16.6669C26.8421 16.6669 28.4803 17.7991 29.0763 19.4839C29.0386 19.4963 29.004 19.5143 28.9666 19.5274C28.8827 19.5573 28.8012 19.5919 28.719 19.6254C27.651 20.053 26.7335 20.7696 26.0768 21.6892C26.0523 21.7234 26.029 21.7585 26.0052 21.7931C25.9241 21.9121 25.8437 22.0308 25.7716 22.1557C25.6828 22.3079 25.601 22.4644 25.5262 22.6249C25.4935 22.6962 25.4664 22.7701 25.4366 22.843C25.3829 22.9725 25.333 23.1034 25.2887 23.2373C25.2775 23.2717 25.2613 23.3038 25.2508 23.3385C25.1683 23.3353 25.085 23.3336 25 23.3336C24.9149 23.3336 24.8316 23.3353 24.7492 23.3385C24.7386 23.3038 24.7224 23.2717 24.7113 23.2373C24.667 23.1034 24.6172 22.9725 24.5634 22.843C24.5335 22.7701 24.5065 22.6961 24.4738 22.6249C24.399 22.4643 24.3172 22.3077 24.2282 22.1553C24.1563 22.0306 24.0759 21.912 23.995 21.7933C23.9712 21.7586 23.9479 21.7234 23.9233 21.6892C23.2667 20.7698 22.3494 20.0533 21.2817 19.6257C21.1992 19.5921 21.1176 19.5574 21.0334 19.5274C20.9961 19.5143 20.9615 19.4964 20.9239 19.484C21.5197 17.7991 23.1579 16.6669 25 16.6669ZM18.9655 20.8336C19.3 20.8377 19.6329 20.8801 19.9571 20.9601C20.086 20.9894 20.2156 21.017 20.3396 21.057C20.5049 21.1128 20.6665 21.1782 20.8236 21.253C20.8575 21.2686 20.8937 21.2805 20.927 21.2969C21.5099 21.588 22.0177 22.002 22.4126 22.5085L22.4199 22.5169C22.5283 22.6606 22.6272 22.8109 22.7158 22.9669C22.7371 23.0038 22.7629 23.0379 22.7832 23.0755C22.8481 23.2018 22.9063 23.3313 22.9576 23.4633C22.9836 23.5267 23.0142 23.5876 23.037 23.6525C23.0009 23.6644 22.9678 23.6815 22.932 23.6941C22.8482 23.7241 22.7667 23.7586 22.6844 23.7921C21.6164 24.2197 20.6989 24.9363 20.0423 25.8559C20.0177 25.8901 19.9945 25.9252 19.9706 25.9599C19.8895 26.0788 19.8092 26.1976 19.7371 26.3225C19.6483 26.4747 19.5664 26.6311 19.4917 26.7917C19.459 26.863 19.4319 26.9369 19.4021 27.0098C19.3483 27.1393 19.2984 27.2702 19.2542 27.4041C19.243 27.4385 19.2268 27.4706 19.2163 27.5053C19.1339 27.5022 19.0505 27.5005 18.9655 27.5005C18.8804 27.5005 18.7971 27.5022 18.7146 27.5054C18.704 27.4707 18.6878 27.4386 18.6767 27.4042C18.6325 27.2703 18.5827 27.1393 18.5288 27.0099C18.4989 26.937 18.472 26.863 18.4392 26.7918C18.3645 26.6312 18.2826 26.4746 18.1936 26.3222C18.1217 26.1976 18.0414 26.0789 17.9605 25.9602C17.9366 25.9255 17.9134 25.8903 17.8887 25.8561C17.2322 24.9367 16.3149 24.2202 15.2472 23.7926C15.1646 23.759 15.083 23.7243 14.9989 23.6943C14.9616 23.6812 14.9269 23.6633 14.8894 23.6509C15.4925 21.971 17.1262 20.8419 18.9655 20.8336ZM8.85472 27.8166C9.45823 26.1373 11.0919 25.0086 12.931 25.0005C13.2646 25.0045 13.5965 25.0466 13.9198 25.1262C14.0501 25.1557 14.1808 25.1837 14.3059 25.2241C14.4685 25.2791 14.6274 25.3434 14.782 25.4168C14.8186 25.4336 14.8576 25.4465 14.8937 25.4642C15.472 25.7533 15.9761 26.1636 16.3694 26.6651C16.3749 26.6722 16.3815 26.6783 16.3869 26.6855C16.492 26.8252 16.588 26.9711 16.6743 27.1224C16.6985 27.1637 16.7274 27.202 16.75 27.2442C16.8152 27.3642 16.8655 27.4921 16.9184 27.6187C16.9461 27.6856 16.9782 27.7502 17.0024 27.8188C16.9741 27.8282 16.949 27.8429 16.9209 27.8527C16.6909 27.9328 16.4661 28.0262 16.2479 28.1328C16.2001 28.1559 16.1505 28.1756 16.1037 28.2C15.8884 28.3143 15.6806 28.4412 15.4813 28.5799C15.3974 28.6373 15.3161 28.6963 15.2356 28.7577C15.0728 28.8814 14.9166 29.0132 14.7677 29.1523C14.6828 29.232 14.6034 29.3153 14.5235 29.3996C14.4062 29.5232 14.2944 29.6515 14.1882 29.7842C14.1263 29.8619 14.064 29.9385 14.0062 30.0191C13.8695 30.2094 13.7448 30.4072 13.6325 30.6118C13.5944 30.6816 13.5615 30.7532 13.5263 30.8246C13.4328 31.013 13.35 31.2062 13.278 31.4032C13.2589 31.4559 13.2361 31.5066 13.2185 31.56C13.1378 31.8081 13.0746 32.0611 13.0291 32.3174C13.0176 32.3802 13.0084 32.4433 12.9991 32.5067C12.9561 32.7805 12.9333 33.057 12.931 33.3341C12.9288 33.057 12.9061 32.7803 12.8631 32.5064C12.8538 32.4432 12.8446 32.3804 12.8332 32.3178C12.7878 32.0614 12.7244 31.8082 12.6436 31.56C12.626 31.5067 12.6032 31.4559 12.5841 31.4032C12.5122 31.2061 12.4292 31.013 12.3358 30.8246C12.3006 30.7533 12.2677 30.6816 12.2296 30.6118C12.1173 30.4071 11.9924 30.2091 11.8556 30.0187C11.798 29.9382 11.7358 29.8619 11.6741 29.7843C11.5679 29.6511 11.4562 29.5228 11.3387 29.3995C11.2588 29.3152 11.1794 29.2318 11.0944 29.1522C10.9455 29.0131 10.7893 28.8813 10.6266 28.7576C10.5462 28.6964 10.4649 28.6374 10.3812 28.58C10.1818 28.4413 9.97386 28.3143 9.75847 28.2C9.7115 28.1756 9.662 28.156 9.61421 28.1328C9.396 28.0262 9.17122 27.9327 8.94119 27.8527C8.91139 27.8423 8.88472 27.8265 8.85472 27.8166ZM2.5862 33.334C2.57772 32.0908 3.14759 30.9098 4.13843 30.1173C5.12927 29.3248 6.43611 29.0048 7.69779 29.2456C7.82064 29.2677 7.9352 29.3074 8.0536 29.3391C8.20261 29.3756 8.3495 29.4198 8.49356 29.4715C8.58559 29.5067 8.67095 29.5524 8.75955 29.5934C8.91836 29.6651 9.07252 29.7462 9.22113 29.8359C9.29164 29.8796 9.35781 29.9285 9.4253 29.976C9.57612 30.0813 9.71968 30.1959 9.85525 30.3191C9.91253 30.3717 9.96749 30.4258 10.0216 30.4813C10.1497 30.6129 10.2688 30.7525 10.3783 30.8989C10.4259 30.9628 10.4743 31.026 10.5183 31.0924C10.6164 31.243 10.7044 31.3995 10.7817 31.561C10.8183 31.6358 10.8587 31.7083 10.8906 31.7854C10.9591 31.9571 11.0157 32.133 11.0601 32.3119C11.08 32.3879 11.1081 32.4607 11.1236 32.5383C11.4376 34.0934 10.8116 35.6859 9.50884 36.6471C8.20604 37.6084 6.45187 37.7719 4.98309 37.0688C3.51431 36.3658 2.58529 34.9183 2.5862 33.334ZM12.0689 48.3344H1.72407V44.1675C1.72407 41.4061 4.03983 39.1674 6.89647 39.1674C9.75312 39.1674 12.0689 41.4061 12.0689 44.1675V48.3344ZM10.0998 38.2687C11.3425 37.5141 12.2594 36.3488 12.6798 34.9895C12.7639 34.9928 12.8445 35.0006 12.9309 35.0006C13.0173 35.0006 13.098 34.9928 13.1821 34.9895C13.6024 36.3487 14.5193 37.5141 15.7621 38.2687C14.5692 38.8767 13.5854 39.8074 12.9309 40.9472C12.2765 39.8075 11.2927 38.8767 10.0998 38.2687ZM24.1379 48.3344H13.793V44.1675C13.793 41.4061 16.1088 39.1674 18.9655 39.1674C21.8221 39.1674 24.1379 41.4061 24.1379 44.1675V48.3344V48.3344ZM22.1688 38.2687C23.4115 37.5141 24.3284 36.3488 24.7488 34.9896C24.8329 34.9928 24.9133 35.0007 24.9999 35.0007C25.0865 35.0007 25.167 34.9929 25.251 34.9896C25.6714 36.3488 26.5883 37.5141 27.8311 38.2687C26.6382 38.8767 25.6544 39.8074 24.9999 40.9472C24.3454 39.8075 23.3616 38.8767 22.1688 38.2687ZM36.2068 48.3344H25.862V44.1675C25.862 41.4061 28.1778 39.1674 31.0344 39.1674C33.8911 39.1674 36.2068 41.4061 36.2068 44.1675V48.3344ZM34.2378 38.2687C35.4805 37.5141 36.3974 36.3488 36.8177 34.9896C36.9019 34.9928 36.9823 35.0007 37.0689 35.0007C37.1555 35.0007 37.236 34.9929 37.32 34.9896C37.7404 36.3488 38.6573 37.5141 39.9001 38.2687C38.7072 38.8767 37.7234 39.8074 37.0689 40.9472C36.4143 39.8075 35.4306 38.8767 34.2378 38.2687ZM48.2757 48.3344H37.9309V44.1675C37.9309 41.4061 40.2467 39.1674 43.1033 39.1674C45.96 39.1674 48.2757 41.4061 48.2757 44.1675V48.3344V48.3344Z" fill="#176F58"/>
</svg>
