<svg width="50" height="50" viewBox="0 0 50 50" fill="none" xmlns="http://www.w3.org/2000/svg">
<path d="M49.1445 24.2392H44.9144C46.673 20.2468 46.4829 17.0149 45.8175 14.8285C44.6768 10.9312 40.827 6.70117 35.1236 6.70117C33.6027 6.70117 32.0817 6.98634 30.5133 7.55668C27.8042 8.55478 25.9981 9.64794 25.1901 10.2183C24.3821 9.64794 22.6236 8.55478 19.8669 7.55668C18.2985 6.98634 16.73 6.70117 15.2567 6.70117C9.55323 6.70117 5.70342 10.9312 4.56274 14.8285C3.89734 17.1574 3.6597 20.6746 5.89354 25.0947H0.760456C0.3327 25.0947 0 25.4274 0 25.8552C0 26.2829 0.3327 26.6156 0.760456 26.6156H6.79658C7.03422 27.0434 7.31939 27.4711 7.65209 27.8989C12.5951 35.0282 23.3365 42.7753 25.2852 43.2506V43.2981C25.2852 43.2981 25.3327 43.2981 25.3802 43.2506C25.4278 43.2506 25.4753 43.2506 25.5228 43.2506V43.2031C27.1863 42.3951 37.5 35.7411 42.9183 27.8514C43.4411 27.1384 43.8688 26.4255 44.249 25.7126H49.2395C49.6673 25.7126 50 25.3799 50 24.9521C50 24.5244 49.5722 24.2392 49.1445 24.2392ZM41.5399 27.0434C36.5019 34.4103 27.2338 40.3514 25.2376 41.6346C23.1939 40.3514 13.9734 34.3628 8.88783 27.0434C8.79278 26.9008 8.69772 26.7582 8.60266 26.6156H15.5894C15.8745 26.6156 16.1597 26.473 16.3023 26.1879L19.4867 19.9141L24.4772 32.6993C24.5722 32.9844 24.9049 33.1746 25.1901 33.1746C25.1901 33.1746 25.1901 33.1746 25.2376 33.1746C25.5703 33.1746 25.8555 32.9369 25.9506 32.6042L30.3232 17.6327L32.6521 25.1898C32.7471 25.4749 32.9848 25.6651 33.27 25.7126C33.5551 25.7601 33.8403 25.6175 34.0304 25.3799L35.884 22.6708L37.4525 25.3324C37.5951 25.57 37.8327 25.7126 38.1179 25.7126H42.3954C42.1103 26.1879 41.8251 26.6156 41.5399 27.0434ZM43.251 24.2392H38.5932L36.6445 20.9122C36.5019 20.6746 36.2643 20.532 35.9791 20.532C35.6939 20.532 35.4563 20.627 35.3137 20.8647L33.6977 23.2411L31.0837 14.7335C30.9886 14.4008 30.6559 14.2107 30.3232 14.1631C29.9905 14.1631 29.6578 14.4008 29.5627 14.7335L25.1426 29.9901L20.3422 17.7278C20.2471 17.4426 19.962 17.2525 19.6768 17.2525C19.3441 17.2525 19.1065 17.3951 18.9639 17.6803L15.2091 25.0472H7.65209C5.75095 21.5776 5.22814 18.2506 6.08365 15.2563C7.08175 11.8818 10.3612 8.26961 15.3042 8.26961C16.635 8.26961 18.0133 8.55478 19.3916 9.03007C22.8612 10.3133 24.7148 11.7867 24.7624 11.7867C25.0475 12.0244 25.4278 12.0244 25.7129 11.7867C25.7129 11.7867 27.5665 10.3133 31.0837 9.03007C32.462 8.50726 33.8403 8.26961 35.1711 8.26961C40.0665 8.26961 43.3935 11.8818 44.3916 15.2563C45.1996 18.013 44.7719 21.0548 43.251 24.2392Z" fill="#F4BB03"/>
</svg>
