<svg id="diatom-logo" width="680" viewBox="0 0 680 201" fill="none" xmlns="http://www.w3.org/2000/svg">
  <g clip-path="url(#clip0)">
    <path
      d="M263.679 100.492C263.65 103.178 263.089 105.831 262.03 108.299C260.97 110.767 259.432 113.001 257.505 114.871C255.578 116.742 253.3 118.212 250.802 119.198C248.304 120.183 245.635 120.664 242.95 120.613H226.989V80.3387H242.999C245.684 80.2875 248.353 80.7699 250.85 81.7579C253.348 82.746 255.624 84.22 257.548 86.0946C259.472 87.9692 261.004 90.2071 262.057 92.6785C263.109 95.1499 263.661 97.8057 263.679 100.492ZM261.199 100.492C261.18 98.1214 260.692 95.7782 259.763 93.5975C258.833 91.4168 257.481 89.4418 255.785 87.7867C254.088 86.1315 252.08 84.829 249.877 83.9544C247.674 83.0797 245.32 82.6503 242.95 82.6908H229.405V118.245H242.999C245.361 118.281 247.707 117.85 249.902 116.976C252.097 116.102 254.098 114.803 255.789 113.153C257.481 111.504 258.829 109.536 259.758 107.363C260.686 105.19 261.176 102.855 261.199 100.492Z"
      fill="#196F58" />
    <path d="M275.663 80.3227V120.597H273.247V80.3227H275.663Z" fill="#196F58" />
    <path d="M314.431 109.143H290.867L285.681 120.613H283.039L301.304 80.3388H303.897L322.323 120.613H319.682L314.431 109.143ZM313.336 106.726L302.56 83.0935L291.898 106.726H313.336Z" fill="#196F58" />
    <path d="M349.511 80.3227V82.6908H335.917V120.613H333.501V82.6908H319.907V80.3227H349.511Z" fill="#196F58" />
    <path
      d="M391.806 100.444C391.961 104.619 390.863 108.744 388.654 112.29C386.446 115.836 383.227 118.64 379.413 120.343C375.598 122.045 371.362 122.567 367.248 121.841C363.134 121.116 359.332 119.177 356.329 116.273C353.326 113.369 351.26 109.633 350.396 105.546C349.533 101.458 349.911 97.2059 351.483 93.3353C353.055 89.4646 355.749 86.1526 359.217 83.8252C362.686 81.4977 366.772 80.2611 370.949 80.2743C376.387 80.1881 381.637 82.2633 385.548 86.0446C389.458 89.8259 391.709 95.0043 391.806 100.444ZM352.571 100.444C352.452 104.106 353.43 107.72 355.378 110.823C357.326 113.927 360.157 116.377 363.507 117.861C366.856 119.345 370.573 119.794 374.18 119.152C377.787 118.509 381.119 116.804 383.751 114.255C386.383 111.706 388.194 108.429 388.951 104.844C389.709 101.259 389.379 97.529 388.003 94.1328C386.628 90.7365 384.27 87.8284 381.231 85.7813C378.193 83.7341 374.612 82.6411 370.949 82.6424C366.157 82.5862 361.538 84.4253 358.096 87.7593C354.654 91.0932 352.668 95.6522 352.571 100.444Z"
      fill="#196F58" />
    <path d="M404.692 80.3227L420.879 112.026L436.985 80.3227H440.335V120.597H438.032V83.6574L421.41 116.231H420.379L403.661 83.6735V120.613H401.358V80.3388L404.692 80.3227Z" fill="#196F58" />
    <path d="M470.309 80.2743V120.548H462.578V80.2743H470.309Z" fill="#196F58" />
    <path d="M489.154 80.2743L501.83 106.146L514.458 80.2743H523.316V120.548H516.294V91.7283L504.375 116.392H499.301L487.366 91.8249V120.613H480.231V80.3388L489.154 80.2743Z" fill="#196F58" />
    <path
      d="M565.773 94.1608C565.773 103.376 559.958 108.659 549.811 108.659H541.001V120.532H533.286V80.2582H549.811C559.958 80.2743 565.773 85.2844 565.773 94.1608ZM558.46 94.3863C558.46 89.4407 555.239 87.0081 549.408 87.0081H541.001V101.942H549.408C555.175 101.942 558.46 99.4609 558.46 94.3863Z"
      fill="#196F58" />
    <path d="M595.795 112.075H576.081L572.505 120.613H564.452L582.169 80.3388H590.222L607.682 120.613H599.387L595.795 112.075ZM593.025 105.454L585.986 88.5064L578.851 105.454H593.025Z" fill="#196F58" />
    <path
      d="M629.764 86.8954C626.21 86.8954 622.801 88.3075 620.288 90.8211C617.775 93.3347 616.363 96.7438 616.363 100.299C616.363 103.853 617.775 107.263 620.288 109.776C622.801 112.29 626.21 113.702 629.764 113.702C633.881 113.58 637.794 111.885 640.7 108.966L645.258 114.04C641.062 118.328 635.358 120.808 629.361 120.951C626.619 121.025 623.89 120.546 621.336 119.544C618.783 118.542 616.456 117.036 614.496 115.118C612.535 113.199 610.98 110.905 609.923 108.373C608.866 105.841 608.328 103.123 608.342 100.379C608.342 88.8607 617.619 80.0488 629.651 80.0488C635.478 80.0896 641.06 82.4013 645.21 86.4926L640.716 92.1471C639.353 90.5614 637.676 89.2759 635.791 88.3719C633.906 87.4679 631.853 86.9651 629.764 86.8954Z"
      fill="#196F58" />
    <path d="M680 80.2743V87.137H667.453V120.613H659.674V87.137H647.11V80.2743H680Z" fill="#196F58" />
    <path d="M87.5901 68.4902C90.3846 68.1871 92.4043 65.6755 92.1013 62.8804C91.7982 60.0853 89.287 58.0652 86.4925 58.3683C83.6979 58.6715 81.6782 61.1831 81.9813 63.9782C82.2844 66.7733 84.7955 68.7934 87.5901 68.4902Z" fill="#196F58" />
    <path
      d="M70.8685 74.2977C70.0538 73.7073 69.0824 73.3717 68.0771 73.3333C67.0718 73.2948 66.0777 73.5552 65.2202 74.0815C64.3628 74.6078 63.6805 75.3765 63.2597 76.2905C62.8388 77.2044 62.6981 78.2226 62.8555 79.2165C63.0129 80.2103 63.4612 81.1352 64.1438 81.8744C64.8265 82.6135 65.7128 83.1337 66.6909 83.3693C67.6689 83.6049 68.6949 83.5453 69.6391 83.198C70.5833 82.8507 71.4035 82.2314 71.9959 81.4181C72.3903 80.8769 72.6739 80.2631 72.8307 79.612C72.9875 78.961 73.0142 78.2853 72.9095 77.6239C72.8048 76.9624 72.5706 76.3282 72.2203 75.7574C71.8701 75.1866 71.4107 74.6906 70.8685 74.2977Z"
      fill="#196F58" />
    <path d="M62.2578 106.794C64.9936 106.148 66.6879 103.407 66.0422 100.67C65.3965 97.9339 62.6553 96.2392 59.9195 96.8851C57.1837 97.5309 55.4894 100.273 56.1351 103.009C56.7808 105.745 59.522 107.44 62.2578 106.794Z" fill="#196F58" />
    <path
      d="M66.407 120.613C65.5939 121.205 64.9746 122.026 64.6274 122.97C64.2802 123.915 64.2206 124.941 64.4562 125.919C64.6917 126.897 65.2118 127.784 65.9508 128.467C66.6898 129.149 67.6146 129.598 68.6082 129.755C69.6019 129.913 70.6199 129.772 71.5336 129.351C72.4474 128.93 73.2159 128.248 73.7422 127.39C74.2684 126.532 74.5287 125.538 74.4903 124.532C74.4518 123.527 74.1163 122.555 73.5261 121.741C73.1332 121.198 72.6373 120.739 72.0666 120.388C71.496 120.038 70.8618 119.804 70.2005 119.699C69.5392 119.594 68.8637 119.621 68.2127 119.778C67.5618 119.935 66.9481 120.218 66.407 120.613Z"
      fill="#196F58" />
    <path
      d="M88.0058 143.231C88.9607 143.548 89.9883 143.576 90.9587 143.309C91.9292 143.043 92.7989 142.495 93.458 141.734C94.117 140.974 94.5359 140.035 94.6616 139.036C94.7873 138.037 94.6141 137.024 94.1641 136.124C93.7141 135.223 93.0073 134.477 92.1331 133.978C91.259 133.48 90.2566 133.251 89.2528 133.322C88.249 133.393 87.2887 133.76 86.4934 134.377C85.6981 134.994 85.1034 135.832 84.7845 136.787C84.3607 138.069 84.4617 139.466 85.0654 140.674C85.6691 141.881 86.7262 142.801 88.0058 143.231Z"
      fill="#196F58" />
    <path d="M113.921 142.651C116.732 142.651 119.011 140.372 119.011 137.56C119.011 134.749 116.732 132.47 113.921 132.47C111.11 132.47 108.832 134.749 108.832 137.56C108.832 140.372 111.11 142.651 113.921 142.651Z" fill="#196F58" />
    <path
      d="M129.013 119.582C128.423 120.397 128.087 121.368 128.049 122.374C128.01 123.379 128.271 124.374 128.797 125.231C129.323 126.089 130.092 126.771 131.005 127.192C131.919 127.613 132.937 127.754 133.931 127.596C134.924 127.439 135.849 126.991 136.588 126.308C137.327 125.625 137.847 124.739 138.083 123.76C138.318 122.782 138.259 121.756 137.912 120.811C137.564 119.867 136.945 119.047 136.132 118.454C135.038 117.662 133.674 117.336 132.34 117.547C131.005 117.758 129.809 118.49 129.013 119.582Z"
      fill="#196F58" />
    <path d="M141.032 104.119C143.768 103.473 145.462 100.732 144.817 97.9953C144.171 95.259 141.43 93.5643 138.694 94.2101C135.958 94.856 134.264 97.5977 134.909 100.334C135.555 103.07 138.296 104.765 141.032 104.119Z" fill="#196F58" />
    <path
      d="M135.681 73.2667C135.089 72.4534 134.268 71.8341 133.324 71.4868C132.38 71.1395 131.354 71.0799 130.376 71.3155C129.398 71.5511 128.512 72.0713 127.829 72.8104C127.146 73.5496 126.698 74.4745 126.541 75.4683C126.383 76.4622 126.524 77.4804 126.945 78.3943C127.366 79.3083 128.048 80.077 128.905 80.6033C129.763 81.1296 130.757 81.39 131.762 81.3515C132.767 81.3131 133.739 80.9775 134.554 80.3871C135.098 79.9956 135.559 79.5002 135.91 78.9295C136.261 78.3587 136.496 77.724 136.601 77.062C136.706 76.3999 136.679 75.7237 136.521 75.0722C136.363 74.4208 136.077 73.8071 135.681 73.2667Z"
      fill="#196F58" />
    <path d="M111.595 67.6962C114.403 67.5794 116.586 65.2076 116.469 62.3985C116.352 59.5895 113.981 57.4069 111.172 57.5237C108.364 57.6404 106.182 60.0123 106.298 62.8213C106.415 65.6304 108.786 67.8129 111.595 67.6962Z" fill="#196F58" />
    <path
      d="M75.7971 43.206C76.1161 44.1607 76.7108 44.9993 77.5061 45.616C78.3014 46.2327 79.2617 46.5997 80.2655 46.6707C81.2693 46.7417 82.2716 46.5135 83.1458 46.0149C84.02 45.5162 84.7267 44.7696 85.1768 43.8694C85.6268 42.9691 85.7999 41.9556 85.6742 40.957C85.5486 39.9583 85.1297 39.0194 84.4706 38.2587C83.8116 37.4981 82.9419 36.95 81.9714 36.6836C81.001 36.4172 79.9733 36.4446 79.0184 36.7622C78.3836 36.9733 77.7966 37.3076 77.2911 37.7458C76.7855 38.184 76.3713 38.7177 76.0721 39.3161C75.7729 39.9146 75.5946 40.5662 75.5475 41.2337C75.5003 41.9012 75.5851 42.5714 75.7971 43.206Z"
      fill="#8DC63F" />
    <path
      d="M45.7101 61.5388C45.1199 62.3537 44.7844 63.3252 44.7459 64.3307C44.7074 65.3362 44.9678 66.3306 45.494 67.1882C46.0202 68.0458 46.7888 68.7282 47.7025 69.1491C48.6163 69.5701 49.6343 69.7108 50.628 69.5534C51.6216 69.396 52.5464 68.9476 53.2854 68.2648C54.0244 67.582 54.5445 66.6955 54.78 65.7173C55.0156 64.739 54.956 63.7128 54.6088 62.7684C54.2615 61.824 53.6423 61.0037 52.8292 60.4111C51.7348 59.6188 50.3711 59.2926 49.0368 59.504C47.7024 59.7153 46.5062 60.4471 45.7101 61.5388Z"
      fill="#8DC63F" />
    <path d="M39.5522 106.133C42.288 105.488 43.9823 102.746 43.3366 100.009C42.6909 97.2732 39.9497 95.5785 37.2139 96.2243C34.4782 96.8702 32.7838 99.6119 33.4295 102.348C34.0752 105.085 36.8164 106.779 39.5522 106.133Z" fill="#8DC63F" />
    <path
      d="M47.6429 133.436C46.8299 134.029 46.2106 134.849 45.8634 135.793C45.5162 136.738 45.4566 137.764 45.6921 138.742C45.9277 139.721 46.4478 140.607 47.1868 141.29C47.9258 141.973 48.8505 142.421 49.8442 142.578C50.8378 142.736 51.8558 142.595 52.7696 142.174C53.6834 141.753 54.4519 141.071 54.9781 140.213C55.5044 139.356 55.7647 138.361 55.7262 137.356C55.6878 136.35 55.3522 135.379 54.762 134.564C53.966 133.472 52.7698 132.74 51.4354 132.529C50.101 132.318 48.7373 132.644 47.6429 133.436Z"
      fill="#8DC63F" />
    <path
      d="M86.7817 161.354C87.0992 160.399 87.1266 159.371 86.8603 158.401C86.5939 157.43 86.0459 156.56 85.2854 155.901C84.525 155.242 83.5862 154.823 82.5877 154.697C81.5893 154.571 80.576 154.745 79.6759 155.195C78.7758 155.645 78.0294 156.352 77.5308 157.226C77.0323 158.1 76.8041 159.103 76.8751 160.107C76.9461 161.111 77.313 162.071 77.9296 162.867C78.5462 163.662 79.3847 164.257 80.3391 164.576C80.9736 164.788 81.6437 164.873 82.311 164.826C82.9784 164.779 83.6299 164.6 84.2282 164.301C84.8266 164.002 85.3601 163.588 85.7983 163.082C86.2364 162.576 86.5706 161.989 86.7817 161.354Z"
      fill="#8DC63F" />
    <path
      d="M125.164 157.874C124.845 156.92 124.25 156.081 123.455 155.464C122.659 154.848 121.699 154.481 120.695 154.41C119.691 154.339 118.689 154.567 117.815 155.066C116.941 155.564 116.234 156.311 115.784 157.211C115.334 158.111 115.161 159.125 115.286 160.124C115.412 161.122 115.831 162.061 116.49 162.822C117.149 163.582 118.019 164.131 118.989 164.397C119.96 164.663 120.987 164.636 121.942 164.318C122.577 164.107 123.164 163.773 123.67 163.335C124.175 162.896 124.589 162.363 124.889 161.764C125.188 161.166 125.366 160.514 125.413 159.847C125.46 159.179 125.376 158.509 125.164 157.874Z"
      fill="#8DC63F" />
    <path
      d="M155.25 139.461C155.841 138.646 156.176 137.675 156.215 136.669C156.253 135.664 155.993 134.669 155.467 133.812C154.94 132.954 154.172 132.272 153.258 131.851C152.344 131.43 151.326 131.289 150.333 131.447C149.339 131.604 148.414 132.052 147.675 132.735C146.936 133.418 146.416 134.304 146.181 135.283C145.945 136.261 146.005 137.287 146.352 138.232C146.699 139.176 147.318 139.996 148.131 140.589C149.226 141.381 150.589 141.707 151.924 141.496C153.258 141.285 154.454 140.553 155.25 139.461Z"
      fill="#8DC63F" />
    <path d="M163.738 104.78C166.474 104.134 168.168 101.392 167.522 98.6559C166.876 95.9196 164.135 94.225 161.399 94.8708C158.664 95.5166 156.969 98.2584 157.615 100.995C158.261 103.731 161.002 105.426 163.738 104.78Z" fill="#8DC63F" />
    <path
      d="M153.318 67.5638C154.131 66.9712 154.75 66.1509 155.097 65.2065C155.444 64.2621 155.504 63.236 155.268 62.2577C155.033 61.2794 154.513 60.3929 153.774 59.7102C153.035 59.0274 152.11 58.579 151.116 58.4216C150.123 58.2642 149.105 58.4049 148.191 58.8258C147.277 59.2468 146.509 59.9292 145.982 60.7868C145.456 61.6444 145.196 62.6387 145.234 63.6442C145.273 64.6497 145.608 65.6213 146.199 66.4361C146.995 67.5279 148.191 68.2596 149.525 68.471C150.86 68.6823 152.223 68.3561 153.318 67.5638Z"
      fill="#8DC63F" />
    <path
      d="M114.179 39.6458C113.861 40.6009 113.834 41.6287 114.1 42.5994C114.367 43.57 114.915 44.4399 115.675 45.0991C116.436 45.7583 117.374 46.1772 118.373 46.3029C119.371 46.4286 120.385 46.2555 121.285 45.8054C122.185 45.3552 122.931 44.6483 123.43 43.774C123.928 42.8996 124.156 41.8971 124.085 40.8931C124.014 39.8891 123.648 38.9287 123.031 38.1332C122.414 37.3377 121.576 36.7429 120.621 36.4239C119.987 36.2118 119.317 36.127 118.65 36.1742C117.982 36.2214 117.331 36.3997 116.732 36.6989C116.134 36.9982 115.6 37.4125 115.162 37.9181C114.724 38.4238 114.39 39.0109 114.179 39.6458Z"
      fill="#8DC63F" />
    <path
      d="M195.871 95.4013C194.86 95.3981 193.871 95.6953 193.028 96.2552C192.186 96.8151 191.529 97.6125 191.141 98.5463C190.753 99.4801 190.65 100.508 190.847 101.5C191.043 102.492 191.53 103.404 192.245 104.119C192.96 104.834 193.871 105.321 194.863 105.517C195.855 105.714 196.883 105.611 197.816 105.223C198.75 104.834 199.547 104.177 200.107 103.335C200.667 102.493 200.964 101.503 200.961 100.492C200.956 99.1431 200.419 97.8507 199.465 96.897C198.512 95.9432 197.22 95.4055 195.871 95.4013Z"
      fill="#8DC63F" />
    <path
      d="M192.762 75.8603C193.717 75.5413 194.555 74.9465 195.172 74.151C195.789 73.3555 196.155 72.3951 196.226 71.3911C196.297 70.387 196.069 69.3845 195.571 68.5102C195.072 67.6358 194.326 66.9289 193.426 66.4788C192.526 66.0287 191.512 65.8555 190.514 65.9812C189.515 66.1069 188.577 66.5259 187.816 67.1851C187.056 67.8443 186.508 68.7142 186.241 69.6848C185.975 70.6554 186.002 71.6832 186.32 72.6383C186.531 73.2733 186.865 73.8604 187.303 74.366C187.741 74.8717 188.275 75.286 188.873 75.5852C189.472 75.8845 190.123 76.0628 190.791 76.11C191.458 76.1572 192.128 76.0723 192.762 75.8603Z"
      fill="#8DC63F" />
    <path
      d="M180.634 48.5544C181.45 47.9633 182.071 47.1436 182.421 46.199C182.77 45.2544 182.832 44.2274 182.597 43.2478C182.363 42.2683 181.843 41.3803 181.104 40.6962C180.365 40.0121 179.44 39.5627 178.445 39.4048C177.451 39.2469 176.432 39.3876 175.517 39.8092C174.603 40.2307 173.834 40.9142 173.308 41.773C172.782 42.6318 172.522 43.6274 172.562 44.6338C172.602 45.6402 172.939 46.6122 173.531 47.4267C174.324 48.5174 175.518 49.2488 176.85 49.4602C178.181 49.6716 179.543 49.3459 180.634 48.5544Z"
      fill="#8DC63F" />
    <path
      d="M153.543 27.3863C154.358 27.9767 155.329 28.3123 156.335 28.3507C157.34 28.3892 158.334 28.1288 159.191 27.6025C160.049 27.0762 160.731 26.3075 161.152 25.3935C161.573 24.4796 161.714 23.4614 161.556 22.4675C161.399 21.4737 160.951 20.5488 160.268 19.8096C159.585 19.0705 158.699 18.5502 157.721 18.3147C156.743 18.0791 155.717 18.1387 154.773 18.486C153.828 18.8332 153.008 19.4526 152.416 20.2659C152.019 20.8063 151.734 21.42 151.576 22.0714C151.418 22.7228 151.391 23.3991 151.496 24.0611C151.6 24.7232 151.835 25.3579 152.187 25.9286C152.538 26.4994 152.999 26.9948 153.543 27.3863Z"
      fill="#8DC63F" />
    <path
      d="M128.385 14.6114C129.34 14.929 130.367 14.9563 131.338 14.69C132.308 14.4236 133.178 13.8755 133.837 13.1148C134.496 12.3542 134.915 11.4153 135.041 10.4166C135.166 9.41798 134.993 8.40449 134.543 7.50423C134.093 6.60397 133.386 5.85735 132.512 5.35873C131.638 4.86011 130.636 4.63188 129.632 4.70287C128.628 4.77385 127.668 5.14088 126.872 5.75757C126.077 6.37425 125.482 7.21291 125.163 8.16755C124.951 8.80219 124.867 9.47241 124.914 10.1399C124.961 10.8073 125.139 11.459 125.438 12.0574C125.738 12.6559 126.152 13.1896 126.657 13.6278C127.163 14.066 127.75 14.4003 128.385 14.6114Z"
      fill="#8DC63F" />
    <path
      d="M100.472 10.1974C101.483 10.2006 102.471 9.90377 103.313 9.34457C104.155 8.78538 104.812 7.98893 105.201 7.05608C105.59 6.12323 105.693 5.09593 105.498 4.10425C105.303 3.11258 104.818 2.20114 104.104 1.48533C103.391 0.769527 102.481 0.281554 101.49 0.0831991C100.499 -0.115155 99.4721 -0.0149698 98.5382 0.371071C97.6043 0.757111 96.8059 1.41164 96.2442 2.25179C95.6824 3.09194 95.3826 4.07991 95.3826 5.09062C95.3826 6.44223 95.9183 7.73872 96.8723 8.69596C97.8263 9.6532 99.1209 10.1931 100.472 10.1974Z"
      fill="#8DC63F" />
    <path
      d="M72.5758 14.6114C73.5302 14.2924 74.3687 13.6976 74.9853 12.9021C75.6019 12.1066 75.9688 11.1462 76.0398 10.1422C76.1108 9.13818 75.8826 8.13565 75.3841 7.26132C74.8855 6.38698 74.1391 5.68007 73.239 5.22994C72.3389 4.77981 71.3256 4.60666 70.3272 4.73237C69.3287 4.85808 68.3899 5.277 67.6295 5.9362C66.869 6.5954 66.321 7.46529 66.0546 8.43593C65.7883 9.40656 65.8157 10.4344 66.1332 11.3895C66.3443 12.0244 66.6785 12.6115 67.1166 13.1172C67.5548 13.6228 68.0883 14.0371 68.6867 14.3364C69.285 14.6356 69.9365 14.8139 70.6038 14.8611C71.2712 14.9083 71.9413 14.8235 72.5758 14.6114Z"
      fill="#8DC63F" />
    <path
      d="M47.4175 27.3864C48.2305 26.7938 48.8498 25.9735 49.197 25.0291C49.5442 24.0847 49.6038 23.0586 49.3683 22.0803C49.1327 21.102 48.6126 20.2155 47.8736 19.5328C47.1346 18.85 46.2099 18.4016 45.2162 18.2442C44.2226 18.0868 43.2046 18.2275 42.2908 18.6484C41.377 19.0694 40.6085 19.7518 40.0823 20.6094C39.556 21.467 39.2957 22.4613 39.3342 23.4668C39.3726 24.4723 39.7082 25.4439 40.2984 26.2587C41.0944 27.3505 42.2907 28.0822 43.625 28.2936C44.9594 28.5049 46.3231 28.1787 47.4175 27.3864Z"
      fill="#8DC63F" />
    <path d="M23.3061 49.521C26.117 49.521 28.3957 47.2418 28.3957 44.4303C28.3957 41.6189 26.117 39.3397 23.3061 39.3397C20.4951 39.3397 18.2164 41.6189 18.2164 44.4303C18.2164 47.2418 20.4951 49.521 23.3061 49.521Z" fill="#8DC63F" />
    <path
      d="M11.2745 66.1784C10.3196 65.8608 9.29199 65.8335 8.32155 66.0998C7.3511 66.3662 6.48139 66.9143 5.82231 67.675C5.16324 68.4356 4.7444 69.3745 4.61871 70.3732C4.49303 71.3718 4.66615 72.3853 5.11619 73.2856C5.56623 74.1858 6.273 74.9325 7.14717 75.4311C8.02133 75.9297 9.02366 76.1579 10.0275 76.0869C11.0313 76.0159 11.9916 75.6489 12.7869 75.0322C13.5822 74.4156 14.1769 73.5769 14.4958 72.6223C14.7078 71.9876 14.7927 71.3174 14.7455 70.6499C14.6983 69.9825 14.52 69.3309 14.2208 68.7324C13.9216 68.1339 13.5074 67.6003 13.0019 67.162C12.4963 66.7238 11.9093 66.3896 11.2745 66.1784Z"
      fill="#8DC63F" />
    <path d="M10.0396 101.667C10.6853 98.9311 8.99099 96.1894 6.25522 95.5435C3.51945 94.8977 0.778223 96.5924 0.132523 99.3287C-0.513178 102.065 1.18116 104.807 3.91693 105.453C6.6527 106.098 9.39392 104.404 10.0396 101.667Z" fill="#8DC63F" />
    <path
      d="M8.18213 125.14C7.22767 125.459 6.38918 126.053 5.77262 126.849C5.15605 127.644 4.7891 128.605 4.71812 129.609C4.64715 130.613 4.87534 131.615 5.37386 132.49C5.87238 133.364 6.61885 134.071 7.51894 134.521C8.41902 134.971 9.43232 135.144 10.4308 135.019C11.4292 134.893 12.368 134.474 13.1285 133.815C13.8889 133.156 14.437 132.286 14.7033 131.315C14.9696 130.345 14.9423 129.317 14.6247 128.362C14.4136 127.727 14.0794 127.14 13.6413 126.634C13.2031 126.128 12.6696 125.714 12.0713 125.415C11.4729 125.115 10.8214 124.937 10.1541 124.89C9.48673 124.843 8.81664 124.928 8.18213 125.14Z"
      fill="#8DC63F" />
    <path
      d="M20.3103 152.446C19.4972 153.038 18.878 153.858 18.5308 154.803C18.1835 155.747 18.1239 156.773 18.3595 157.752C18.595 158.73 19.1151 159.616 19.8542 160.299C20.5932 160.982 21.5179 161.43 22.5115 161.588C23.5052 161.745 24.5232 161.604 25.437 161.184C26.3507 160.763 27.1193 160.08 27.6455 159.223C28.1717 158.365 28.4321 157.371 28.3936 156.365C28.3551 155.36 28.0196 154.388 27.4294 153.573C26.6307 152.485 25.4348 151.756 24.1017 151.545C22.7686 151.334 21.4061 151.657 20.3103 152.446Z"
      fill="#8DC63F" />
    <path d="M47.2149 181.921C49.5597 180.37 50.2038 177.212 48.6536 174.867C47.1034 172.522 43.9458 171.877 41.601 173.428C39.2562 174.978 38.6121 178.137 40.1623 180.482C41.7125 182.827 44.8701 183.471 47.2149 181.921Z" fill="#8DC63F" />
    <path
      d="M72.5758 186.389C71.6209 186.071 70.5933 186.044 69.6228 186.31C68.6524 186.576 67.7827 187.124 67.1236 187.885C66.4645 188.646 66.0457 189.585 65.92 190.583C65.7943 191.582 65.9674 192.595 66.4175 193.496C66.8675 194.396 67.5743 195.143 68.4484 195.641C69.3226 196.14 70.3249 196.368 71.3288 196.297C72.3326 196.226 73.2928 195.859 74.0881 195.242C74.8835 194.626 75.4782 193.787 75.7971 192.832C76.0091 192.198 76.0939 191.528 76.0468 190.86C75.9996 190.193 75.8213 189.541 75.5221 188.943C75.2229 188.344 74.8087 187.81 74.3031 187.372C73.7976 186.934 73.2106 186.6 72.5758 186.389Z"
      fill="#8DC63F" />
    <path d="M100.753 200.999C103.559 200.844 105.709 198.442 105.553 195.635C105.398 192.828 102.997 190.678 100.19 190.834C97.3833 190.989 95.234 193.391 95.3895 196.198C95.5449 199.005 97.9462 201.155 100.753 200.999Z" fill="#8DC63F" />
    <path
      d="M128.385 186.389C127.43 186.708 126.592 187.302 125.975 188.098C125.359 188.893 124.992 189.854 124.921 190.858C124.85 191.862 125.078 192.864 125.577 193.739C126.075 194.613 126.822 195.32 127.722 195.77C128.622 196.22 129.635 196.393 130.634 196.268C131.632 196.142 132.571 195.723 133.331 195.064C134.092 194.405 134.64 193.535 134.906 192.564C135.172 191.593 135.145 190.566 134.827 189.61C134.616 188.976 134.282 188.388 133.844 187.883C133.406 187.377 132.872 186.963 132.274 186.664C131.676 186.364 131.024 186.186 130.357 186.139C129.689 186.092 129.019 186.176 128.385 186.389Z"
      fill="#8DC63F" />
    <path
      d="M153.543 173.565C152.73 174.158 152.111 174.978 151.764 175.923C151.416 176.867 151.357 177.893 151.592 178.871C151.828 179.85 152.348 180.736 153.087 181.419C153.826 182.102 154.751 182.55 155.744 182.707C156.738 182.865 157.756 182.724 158.67 182.303C159.584 181.882 160.352 181.2 160.878 180.342C161.405 179.485 161.665 178.49 161.627 177.485C161.588 176.479 161.253 175.508 160.662 174.693C160.269 174.151 159.774 173.691 159.203 173.341C158.632 172.991 157.998 172.756 157.337 172.652C156.675 172.547 156 172.574 155.349 172.73C154.698 172.887 154.084 173.171 153.543 173.565Z"
      fill="#8DC63F" />
    <path
      d="M180.634 152.446C179.82 151.855 178.848 151.52 177.843 151.481C176.838 151.443 175.843 151.703 174.986 152.229C174.129 152.756 173.446 153.524 173.025 154.438C172.605 155.352 172.464 156.371 172.621 157.364C172.779 158.358 173.227 159.283 173.91 160.022C174.592 160.761 175.479 161.282 176.457 161.517C177.435 161.753 178.461 161.693 179.405 161.346C180.349 160.999 181.169 160.379 181.762 159.566C182.156 159.025 182.44 158.411 182.596 157.76C182.753 157.109 182.78 156.433 182.675 155.772C182.571 155.11 182.336 154.476 181.986 153.905C181.636 153.334 181.176 152.838 180.634 152.446Z"
      fill="#8DC63F" />
    <path
      d="M192.762 125.14C191.808 124.822 190.78 124.795 189.809 125.061C188.839 125.327 187.969 125.876 187.31 126.636C186.651 127.397 186.232 128.336 186.107 129.334C185.981 130.333 186.154 131.347 186.604 132.247C187.054 133.147 187.761 133.894 188.635 134.392C189.509 134.891 190.512 135.119 191.515 135.048C192.519 134.977 193.479 134.61 194.275 133.994C195.07 133.377 195.665 132.538 195.984 131.584C196.196 130.949 196.281 130.279 196.233 129.611C196.186 128.944 196.008 128.292 195.709 127.694C195.41 127.095 194.995 126.562 194.49 126.123C193.984 125.685 193.397 125.351 192.762 125.14Z"
      fill="#8DC63F" />
    <path d="M155.347 53.3229C159.599 53.3229 163.046 49.8753 163.046 45.6225C163.046 41.3697 159.599 37.9221 155.347 37.9221C151.095 37.9221 147.648 41.3697 147.648 45.6225C147.648 49.8753 151.095 53.3229 155.347 53.3229Z" fill="#196F58" />
    <path d="M135.713 39.0497C139.965 39.0497 143.412 35.6022 143.412 31.3493C143.412 27.0965 139.965 23.6489 135.713 23.6489C131.461 23.6489 128.014 27.0965 128.014 31.3493C128.014 35.6022 131.461 39.0497 135.713 39.0497Z" fill="#196F58" />
    <path
      d="M111.409 31.446C112.912 31.6757 114.45 31.4547 115.828 30.811C117.207 30.1673 118.363 29.1296 119.153 27.829C119.942 26.5284 120.328 25.0231 120.263 23.5031C120.197 21.9831 119.683 20.5166 118.785 19.2885C117.888 18.0604 116.646 17.1259 115.218 16.6028C113.789 16.0798 112.238 15.9917 110.76 16.3496C109.281 16.7075 107.942 17.4954 106.911 18.6139C105.88 19.7323 105.203 21.1312 104.966 22.634C104.808 23.6361 104.849 24.6594 105.088 25.6454C105.327 26.6313 105.758 27.5604 106.356 28.3792C106.955 29.1981 107.709 29.8905 108.577 30.4168C109.444 30.9431 110.406 31.2929 111.409 31.446Z"
      fill="#196F58" />
    <path
      d="M89.5522 31.446C91.0547 31.2089 92.4533 30.532 93.5716 29.5007C94.6898 28.4694 95.4776 27.1298 95.8354 25.6511C96.1933 24.1725 96.1051 22.6209 95.5822 21.1922C95.0592 19.7636 94.1249 18.5219 92.8971 17.6238C91.6692 16.7258 90.203 16.2117 88.6833 16.1463C87.1636 16.081 85.6586 16.4674 84.3582 17.2567C83.0579 18.046 82.0204 19.2029 81.3768 20.5814C80.7332 21.9599 80.5123 23.4982 80.7419 25.0021C80.895 26.0049 81.2447 26.9676 81.7709 27.8348C82.2971 28.702 82.9894 29.4566 83.8081 30.0554C84.6268 30.6542 85.5557 31.0853 86.5414 31.3239C87.5272 31.5626 88.5503 31.6041 89.5522 31.446Z"
      fill="#196F58" />
    <path d="M72.5872 33.7025C73.8849 29.6526 71.6544 25.3173 67.6053 24.0193C63.5562 22.7214 59.2217 24.9523 57.924 29.0022C56.6263 33.0521 58.8568 37.3874 62.9059 38.6854C66.955 39.9833 71.2895 37.7524 72.5872 33.7025Z" fill="#196F58" />
    <path d="M45.6136 53.3229C49.8656 53.3229 53.3125 49.8753 53.3125 45.6225C53.3125 41.3697 49.8656 37.9221 45.6136 37.9221C41.3616 37.9221 37.9147 41.3697 37.9147 45.6225C37.9147 49.8753 41.3616 53.3229 45.6136 53.3229Z" fill="#196F58" />
    <path
      d="M24.4819 61.7644C23.7911 63.1215 23.5181 64.653 23.6974 66.1653C23.8767 67.6775 24.5003 69.1027 25.4894 70.2605C26.4785 71.4183 27.7886 72.2568 29.254 72.6699C30.7195 73.0831 32.2746 73.0524 33.7226 72.5816C35.1706 72.1108 36.4465 71.2212 37.3891 70.0252C38.3316 68.8292 38.8985 67.3805 39.0179 65.8624C39.1373 64.3442 38.804 62.8246 38.0601 61.4959C37.3161 60.1672 36.195 59.0889 34.8384 58.3975C33.9374 57.9382 32.9548 57.661 31.9466 57.5816C30.9385 57.5023 29.9246 57.6224 28.9628 57.9351C28.0011 58.2477 27.1104 58.7468 26.3415 59.4039C25.5727 60.0609 24.9408 60.863 24.4819 61.7644Z"
      fill="#196F58" />
    <path
      d="M22.6296 95.9651C24.1333 96.1948 25.6713 95.9739 27.0495 95.3301C28.4277 94.6864 29.5844 93.6487 30.3736 92.3481C31.1628 91.0475 31.5491 89.5422 31.4837 88.0223C31.4184 86.5023 30.9044 85.0357 30.0065 83.8076C29.1086 82.5796 27.8672 81.645 26.4388 81.122C25.0104 80.5989 23.4592 80.5108 21.9808 80.8687C20.5024 81.2266 19.1631 82.0145 18.132 83.133C17.1008 84.2515 16.4241 85.6504 16.187 87.1532C16.029 88.1552 16.0705 89.1786 16.3091 90.1645C16.5477 91.1505 16.9787 92.0795 17.5774 92.8984C18.176 93.7172 18.9305 94.4096 19.7976 94.9359C20.6646 95.4622 21.6271 95.812 22.6296 95.9651Z"
      fill="#196F58" />
    <path
      d="M25.0456 120.242C26.5481 120.005 27.9467 119.328 29.065 118.297C30.1832 117.266 30.971 115.926 31.3288 114.448C31.6867 112.969 31.5986 111.417 31.0756 109.989C30.5527 108.56 29.6183 107.318 28.3905 106.42C27.1627 105.522 25.6964 105.008 24.1767 104.943C22.657 104.877 21.152 105.264 19.8517 106.053C18.5513 106.842 17.5139 107.999 16.8702 109.378C16.2266 110.756 16.0057 112.295 16.2353 113.799C16.3885 114.801 16.7381 115.764 17.2643 116.631C17.7905 117.498 18.4829 118.253 19.3015 118.852C20.1202 119.451 21.0491 119.882 22.0348 120.12C23.0206 120.359 24.0438 120.4 25.0456 120.242Z"
      fill="#196F58" />
    <path
      d="M38.2046 132.244C37.5154 130.885 36.4385 129.761 35.1104 129.015C33.7822 128.268 32.2625 127.932 30.7436 128.05C29.2246 128.168 27.7747 128.734 26.5775 129.676C25.3802 130.619 24.4894 131.895 24.0178 133.344C23.5462 134.793 23.515 136.349 23.9282 137.816C24.3413 139.283 25.1803 140.594 26.3388 141.583C27.4973 142.573 28.9234 143.196 30.4364 143.375C31.9494 143.554 33.4813 143.279 34.8383 142.586C36.6541 141.66 38.0282 140.05 38.6593 138.111C39.2904 136.172 39.1268 134.062 38.2046 132.244Z"
      fill="#196F58" />
    <path d="M45.6136 163.078C49.8656 163.078 53.3125 159.63 53.3125 155.377C53.3125 151.125 49.8656 147.677 45.6136 147.677C41.3616 147.677 37.9147 151.125 37.9147 155.377C37.9147 159.63 41.3616 163.078 45.6136 163.078Z" fill="#196F58" />
    <path d="M66.8114 177.19C70.9755 176.33 73.654 172.256 72.7939 168.091C71.9338 163.926 67.861 161.248 63.6969 162.108C59.5328 162.968 56.8543 167.042 57.7144 171.207C58.5745 175.371 62.6474 178.05 66.8114 177.19Z" fill="#196F58" />
    <path
      d="M89.5521 169.554C88.0484 169.324 86.5105 169.545 85.1322 170.189C83.754 170.833 82.5973 171.87 81.8082 173.171C81.019 174.472 80.6327 175.977 80.698 177.497C80.7634 179.017 81.2774 180.483 82.1753 181.711C83.0731 182.94 84.3146 183.874 85.7429 184.397C87.1713 184.92 88.7226 185.008 90.201 184.65C91.6794 184.293 93.0187 183.505 94.0498 182.386C95.0809 181.268 95.7577 179.869 95.9947 178.366C96.1527 177.364 96.1113 176.341 95.8727 175.355C95.6341 174.369 95.2031 173.44 94.6044 172.621C94.0057 171.802 93.2512 171.109 92.3842 170.583C91.5171 170.057 90.5547 169.707 89.5521 169.554Z"
      fill="#196F58" />
    <path
      d="M111.409 169.554C109.906 169.791 108.507 170.468 107.389 171.499C106.271 172.531 105.483 173.87 105.125 175.349C104.768 176.828 104.856 178.379 105.379 179.808C105.902 181.236 106.836 182.478 108.064 183.376C109.292 184.274 110.758 184.788 112.278 184.854C113.797 184.919 115.302 184.533 116.603 183.743C117.903 182.954 118.94 181.797 119.584 180.419C120.228 179.04 120.448 177.502 120.219 175.998C120.066 174.995 119.716 174.032 119.19 173.165C118.664 172.298 117.971 171.543 117.153 170.945C116.334 170.346 115.405 169.915 114.419 169.676C113.434 169.437 112.41 169.396 111.409 169.554Z"
      fill="#196F58" />
    <path d="M135.713 177.351C139.965 177.351 143.412 173.903 143.412 169.651C143.412 165.398 139.965 161.95 135.713 161.95C131.461 161.95 128.014 165.398 128.014 169.651C128.014 173.903 131.461 177.351 135.713 177.351Z" fill="#196F58" />
    <path d="M155.347 163.078C159.599 163.078 163.046 159.63 163.046 155.377C163.046 151.125 159.599 147.677 155.347 147.677C151.095 147.677 147.648 151.125 147.648 155.377C147.648 159.63 151.095 163.078 155.347 163.078Z" fill="#196F58" />
    <path d="M172.002 143.069C176.046 141.755 178.259 137.411 176.945 133.366C175.631 129.321 171.288 127.108 167.244 128.422C163.2 129.736 160.987 134.08 162.301 138.125C163.615 142.17 167.958 144.383 172.002 143.069Z" fill="#196F58" />
    <path d="M181.641 118.865C185.081 116.365 185.844 111.549 183.344 108.109C180.845 104.668 176.031 103.905 172.591 106.405C169.151 108.905 168.388 113.721 170.887 117.161C173.387 120.602 178.201 121.364 181.641 118.865Z" fill="#196F58" />
    <path
      d="M175.915 80.7577C174.413 80.9947 173.014 81.6716 171.896 82.7029C170.777 83.7343 169.99 85.0738 169.632 86.5525C169.274 88.0312 169.362 89.5828 169.885 91.0114C170.408 92.4401 171.342 93.6818 172.57 94.5798C173.798 95.4778 175.264 95.992 176.784 96.0573C178.304 96.1227 179.809 95.7363 181.109 94.947C182.409 94.1576 183.447 93.0007 184.09 91.6222C184.734 90.2437 184.955 88.7055 184.725 87.2015C184.572 86.1987 184.223 85.2361 183.696 84.3689C183.17 83.5017 182.478 82.747 181.659 82.1482C180.84 81.5494 179.912 81.1184 178.926 80.8797C177.94 80.6411 176.917 80.5996 175.915 80.7577Z"
      fill="#196F58" />
    <path
      d="M162.756 68.756C163.447 70.1128 164.526 71.2342 165.854 71.9782C167.182 72.7223 168.702 73.0557 170.22 72.9362C171.737 72.8168 173.186 72.2499 174.382 71.3071C175.577 70.3644 176.467 69.0882 176.937 67.6399C177.408 66.1916 177.439 64.6363 177.026 63.1705C176.613 61.7047 175.774 60.3944 174.617 59.4051C173.459 58.4158 172.034 57.7921 170.522 57.6127C169.01 57.4334 167.479 57.7065 166.122 58.3974C165.221 58.8564 164.419 59.4884 163.762 60.2574C163.105 61.0264 162.606 61.9173 162.294 62.8792C161.981 63.8411 161.861 64.8552 161.94 65.8636C162.02 66.8719 162.297 67.8548 162.756 68.756Z"
      fill="#196F58" />
    <path d="M54.7703 88.5654C57.6277 84.7478 56.85 79.3362 53.0332 76.4782C49.2163 73.6203 43.8058 74.3982 40.9484 78.2157C38.0909 82.0333 38.8687 87.4449 42.6855 90.3029C46.5023 93.1609 51.9129 92.383 54.7703 88.5654Z" fill="#8DC63F" />
    <path d="M100.472 53.8062C105.24 53.8062 109.105 49.9402 109.105 45.1714C109.105 40.4025 105.24 36.5366 100.472 36.5366C95.7044 36.5366 91.8392 40.4025 91.8392 45.1714C91.8392 49.9402 95.7044 53.8062 100.472 53.8062Z" fill="#8DC63F" />
    <path d="M74.5926 61.2785C77.6548 57.6232 77.1746 52.1771 73.52 49.1143C69.8655 46.0515 64.4204 46.5318 61.3582 50.1871C58.296 53.8424 58.7762 59.2885 62.4308 62.3513C66.0854 65.4141 71.5304 64.9338 74.5926 61.2785Z" fill="#8DC63F" />
    <path
      d="M45.1947 109.384C43.5701 109.911 42.1383 110.908 41.0803 112.249C40.0223 113.59 39.3857 115.215 39.2511 116.918C39.1165 118.621 39.4899 120.325 40.3241 121.816C41.1582 123.306 42.4157 124.516 43.9374 125.292C45.459 126.067 47.1765 126.374 48.8725 126.173C50.5685 125.972 52.1669 125.273 53.4653 124.163C54.7638 123.053 55.704 121.584 56.1671 119.939C56.6301 118.295 56.5951 116.55 56.0666 114.926C55.355 112.753 53.8117 110.949 51.7743 109.911C49.7369 108.872 47.3713 108.683 45.1947 109.384Z"
      fill="#8DC63F" />
    <path d="M74.5396 150.855C77.6335 147.227 77.2009 141.777 73.5732 138.682C69.9454 135.587 64.4964 136.02 61.4024 139.649C58.3085 143.277 58.7411 148.727 62.3689 151.822C65.9966 154.916 71.4456 154.484 74.5396 150.855Z" fill="#8DC63F" />
    <path d="M100.472 164.463C105.24 164.463 109.105 160.597 109.105 155.828C109.105 151.06 105.24 147.194 100.472 147.194C95.7044 147.194 91.8392 151.06 91.8392 155.828C91.8392 160.597 95.7044 164.463 100.472 164.463Z" fill="#8DC63F" />
    <path
      d="M138.065 152.252C139.448 151.25 140.503 149.86 141.096 148.258C141.69 146.656 141.795 144.914 141.398 143.252C141.001 141.591 140.12 140.084 138.867 138.923C137.613 137.763 136.044 137 134.357 136.731C132.67 136.463 130.942 136.701 129.39 137.416C127.839 138.13 126.534 139.289 125.641 140.745C124.748 142.202 124.308 143.89 124.374 145.597C124.441 147.304 125.013 148.953 126.017 150.335C127.362 152.186 129.386 153.427 131.644 153.786C133.903 154.146 136.212 153.594 138.065 152.252Z"
      fill="#8DC63F" />
    <path
      d="M150.435 125.8C152.056 126.341 153.802 126.388 155.451 125.935C157.099 125.482 158.576 124.55 159.695 123.256C160.813 121.963 161.522 120.366 161.732 118.669C161.942 116.972 161.644 115.251 160.875 113.724C160.105 112.197 158.9 110.932 157.412 110.091C155.924 109.25 154.219 108.869 152.514 108.998C150.81 109.127 149.181 109.759 147.836 110.814C146.491 111.87 145.489 113.301 144.958 114.926C144.245 117.094 144.422 119.457 145.448 121.496C146.475 123.534 148.268 125.082 150.435 125.8Z"
      fill="#8DC63F" />
    <path d="M157.766 90.6395C161.772 88.0541 162.925 82.7098 160.34 78.7026C157.755 74.6954 152.412 73.5428 148.405 76.1282C144.399 78.7137 143.246 84.058 145.831 88.0652C148.416 92.0724 153.76 93.225 157.766 90.6395Z" fill="#8DC63F" />
    <path d="M132.991 64.3741C137.759 64.3741 141.624 60.5082 141.624 55.7394C141.624 50.9705 137.759 47.1046 132.991 47.1046C128.223 47.1046 124.358 50.9705 124.358 55.7394C124.358 60.5082 128.223 64.3741 132.991 64.3741Z" fill="#8DC63F" />
    <path d="M100.472 122.369C112.552 122.369 122.345 112.574 122.345 100.492C122.345 88.4096 112.552 78.615 100.472 78.615C88.3923 78.615 78.5996 88.4096 78.5996 100.492C78.5996 112.574 88.3923 122.369 100.472 122.369Z" fill="#196F58" />
  </g>
  <defs>
    <clipPath id="clip0">
      <rect width="680" height="201" fill="white" />
    </clipPath>
  </defs>
</svg>
