<svg width="50" height="50" viewBox="0 0 50 50" fill="none" xmlns="http://www.w3.org/2000/svg">
<path d="M24.1073 26.0769L19.7998 25H7.666L3.35839 26.0769C1.81513 26.4627 0.732422 27.8493 0.732422 29.4401V46.6674H26.7333V29.4402C26.7333 27.8493 25.6506 26.4627 24.1073 26.0769Z" fill="#2A7D6B"/>
<path d="M24.1073 26.0764L21.3796 25.3945C20.8496 26.6893 18.8249 30.9987 14.2328 34.1964C13.9365 34.4026 13.5293 34.4026 13.233 34.1964C8.6409 30.9986 6.6162 26.6893 6.08612 25.3945L3.35839 26.0765C1.81513 26.4623 0.732422 27.8489 0.732422 29.4397V46.667H26.7333V29.4397C26.7333 27.8488 25.6506 26.4621 24.1073 26.0764Z" fill="#B48764"/>
<path d="M18.0665 20.666H9.39954V25.8662H18.0665V20.666Z" fill="#D29B6E"/>
<path d="M21.5332 11.999V9.39891C21.5332 6.04824 18.8169 3.33203 15.4663 3.33203H11.9995C8.64892 3.33203 5.93261 6.04824 5.93261 9.39891V11.999C4.97529 11.999 4.19922 12.7751 4.19922 13.7324C4.19922 14.6897 4.97529 15.4658 5.93261 15.4658C5.93261 19.7738 9.42489 23.2661 13.7329 23.2661C18.0409 23.2661 21.5332 19.7738 21.5332 15.4658C22.4905 15.4658 23.2666 14.6897 23.2666 13.7324C23.2666 12.7751 22.4905 11.999 21.5332 11.999Z" fill="#F0C087"/>
<path d="M10.2661 15.4658V9.39891C10.2661 6.19453 12.7521 3.57695 15.8997 3.35391C15.7559 3.34365 15.6127 3.33203 15.4663 3.33203H11.9995C8.64892 3.33203 5.93261 6.04824 5.93261 9.39891V11.999C4.97529 11.999 4.19922 12.7751 4.19922 13.7324C4.19922 14.6897 4.97529 15.4658 5.93261 15.4658C5.93261 19.7738 9.42489 23.2661 13.7329 23.2661C14.4856 23.2661 15.211 23.1537 15.8997 22.9547C12.6471 22.015 10.2661 19.0211 10.2661 15.4658Z" fill="#E6AF78"/>
<path d="M7.66596 7.0166C7.66596 6.05928 6.88989 5.2832 5.93257 5.2832C4.97525 5.2832 4.19917 6.05918 4.19917 7.0166C4.19917 7.36972 4.30601 7.69736 4.48736 7.97128C3.57349 8.22568 2.89908 9.05507 2.89908 10.05C2.89908 11.2467 3.8691 12.2168 5.06587 12.2168C6.26265 12.2168 7.23266 11.2467 7.23266 10.05C7.23266 9.48417 7.01069 8.97343 6.65552 8.58759C7.25063 8.31298 7.66596 7.71494 7.66596 7.0166Z" fill="#196F58"/>
<path d="M19.7997 7.0166C19.7997 6.05928 20.5757 5.2832 21.533 5.2832C22.4904 5.2832 23.2664 6.05928 23.2664 7.0166C23.2664 7.36972 23.1596 7.69736 22.9783 7.97128C23.8921 8.22568 24.5665 9.05507 24.5665 10.05C24.5665 11.2467 23.5965 12.2168 22.3997 12.2168C21.203 12.2168 20.233 11.2467 20.233 10.05C20.233 9.48417 20.4549 8.97343 20.8101 8.58759C20.215 8.31298 19.7997 7.71494 19.7997 7.0166Z" fill="#196F58"/>
<path d="M4.66337 30.6648L1.40283 27.4043C0.982128 27.9819 0.732422 28.6861 0.732422 29.4406V46.668H5.93261V33.7291C5.93261 32.5798 5.47606 31.4775 4.66337 30.6648Z" fill="#72C730"/>
<path d="M22.8024 30.6648L26.0629 27.4043C26.4836 27.9819 26.7334 28.6861 26.7334 29.4406V46.668H21.5332V33.7291C21.5332 32.5798 21.9897 31.4775 22.8024 30.6648Z" fill="#72C730"/>
<path d="M8.53271 23.2656L13.7329 25.8657L11.8041 28.4375C11.4642 28.8907 10.7879 28.9013 10.434 28.4589L7.66602 24.999L8.53271 23.2656Z" fill="#72C730"/>
<path d="M18.9332 23.2656L13.733 25.8657L15.6618 28.4375C16.0017 28.8907 16.678 28.9013 17.0319 28.4589L19.7998 24.999L18.9332 23.2656Z" fill="#72C730"/>
<path d="M43.2007 24.1328C44.6367 24.1328 45.8008 25.2969 45.8008 26.7329C45.8008 26.7858 45.7884 26.8353 45.7853 26.8873C46.8008 27.2411 47.5342 28.1968 47.5342 29.333C47.5342 30.769 46.3701 31.9331 44.9341 31.9331H40.6006V26.7329C40.6006 25.2969 41.7647 24.1328 43.2007 24.1328Z" fill="#181818"/>
<path d="M31.0669 24.1328C29.6309 24.1328 28.4669 25.2969 28.4669 26.7329C28.4669 26.7858 28.4793 26.8353 28.4824 26.8873C27.4669 27.2411 26.7335 28.1968 26.7335 29.333C26.7335 30.769 27.8975 31.9331 29.3336 31.9331H33.667V26.7329C33.667 25.2969 32.503 24.1328 31.0669 24.1328Z" fill="#181818"/>
<path d="M46.5434 31.7097L41.69 29.7684C41.1965 29.5709 40.8305 29.163 40.6781 28.6724L40.6005 26.7324H33.6669L33.5892 28.6724C33.437 29.163 33.0708 29.5709 32.5773 29.7684L27.724 31.7097C26.0787 32.3678 24.9999 33.9612 24.9999 35.7332V46.6669L49.2675 46.6665V35.7332C49.2675 33.9612 48.1887 32.3678 46.5434 31.7097Z" fill="#966D50"/>
<path d="M46.5434 31.7104L42.7509 30.1934C41.3994 31.7863 39.386 32.8 37.1336 32.8C34.8811 32.8 32.8678 31.7863 31.5164 30.1934L27.724 31.7104C26.0787 32.3684 24.9999 33.9619 24.9999 35.7339V46.6674L49.2675 46.6672V35.7339C49.2675 33.9619 48.1887 32.3685 46.5434 31.7104Z" fill="#2A7D6B"/>
<path d="M37.1336 25.8671C42.3986 25.8671 46.6668 21.599 46.6668 16.334C46.6668 11.0689 42.3986 6.80078 37.1336 6.80078C31.8686 6.80078 27.6004 11.0689 27.6004 16.334C27.6004 21.599 31.8686 25.8671 37.1336 25.8671Z" fill="#121212"/>
<path d="M33.667 16.3325C33.667 12.129 36.3909 8.56826 40.1673 7.3001C39.2134 6.97979 38.1956 6.79883 37.1338 6.79883C31.8684 6.79883 27.6001 11.0672 27.6001 16.3325C27.6001 21.5978 31.8684 25.8662 37.1338 25.8662C38.1956 25.8662 39.2134 25.6852 40.1673 25.3649C36.3909 24.0967 33.667 20.536 33.667 16.3325Z" fill="#1C1C1E"/>
<path d="M37.1337 29.3325C32.8257 29.3325 29.3334 25.8402 29.3334 21.5322V19.7093C29.3334 18.7861 29.8289 17.9395 30.6232 17.469C31.782 16.7825 32.6746 15.8428 33.1851 15.2285C33.4596 14.8982 33.9378 14.819 34.2936 15.0595C38.6365 17.9936 44.9339 17.3616 44.9339 20.6656V21.5323C44.9339 25.8402 41.4417 29.3325 37.1337 29.3325Z" fill="#C39772"/>
<path d="M33.6669 21.533V14.9453C33.4847 14.9838 33.3123 15.0763 33.1851 15.2293C32.6746 15.8437 31.782 16.7833 30.6232 17.4698C29.8289 17.9404 29.3334 18.7869 29.3334 19.7101V21.2537C29.3334 24.8359 31.6393 28.1084 35.0941 29.0556C36.5836 29.464 38.007 29.3957 39.3004 29.0219C36.0477 28.0822 33.6669 25.0883 33.6669 21.533Z" fill="#B48764"/>
<path d="M40.6006 19.3672C39.8833 19.3672 39.3005 19.9499 39.3005 20.6673C39.3005 21.3847 39.8832 21.9674 40.6006 21.9674C41.318 21.9674 41.9007 21.3847 41.9007 20.6673C41.9007 19.9499 41.3179 19.3672 40.6006 19.3672Z" fill="#196F58"/>
<path d="M33.667 19.3672C32.9497 19.3672 32.3669 19.9499 32.3669 20.6673C32.3669 21.3847 32.9496 21.9674 33.667 21.9674C34.3844 21.9674 34.9671 21.3847 34.9671 20.6673C34.9671 19.9499 34.3843 19.3672 33.667 19.3672Z" fill="#196F58"/>
<path d="M29.3334 37.1334L25.6571 33.457C25.2415 34.128 24.9999 34.909 24.9999 35.7335V46.6671L29.3334 46.667V37.1334Z" fill="#FFC850"/>
<path d="M44.934 37.1334L48.6104 33.457C49.0259 34.128 49.2675 34.909 49.2675 35.7335V46.6671L44.934 46.667V37.1334Z" fill="#FFC850"/>
<path d="M37.1336 36.2672C40.8902 36.2672 44.2083 34.4216 46.2554 31.5952L42.7508 30.1934C41.3993 31.7863 39.386 32.8 37.1335 32.8C34.8811 32.8 32.8677 31.7863 31.5162 30.1934L28.0117 31.5952C30.0589 34.4216 33.3771 36.2672 37.1336 36.2672Z" fill="#FFC850"/>
<path d="M24.4805 26.838C24.5514 26.8595 24.6229 26.8698 24.6933 26.8698C25.0075 26.8698 25.298 26.666 25.3939 26.3497C25.5113 25.9626 25.2926 25.5537 24.9055 25.4362L20.1098 23.9819L19.5881 22.9385C19.4255 22.6132 19.0538 22.4628 18.7174 22.567V22.3854C20.7034 20.9507 22.0511 18.6847 22.2422 16.101C23.1729 15.841 23.9052 15.0843 24.0585 14.1409C24.1553 13.5459 24.029 12.96 23.7397 12.4731C24.6655 11.9885 25.2991 11.0187 25.2991 9.9034C25.2991 8.89188 24.763 7.9702 23.9295 7.45097C23.9755 7.26191 23.9991 7.06708 23.9991 6.87001C23.9991 5.51035 22.8929 4.4042 21.5333 4.4042C21.2071 4.4042 20.8958 4.46845 20.6106 4.58398C19.1992 3.30176 17.392 2.59961 15.4664 2.59961H11.9996C10.0825 2.59961 8.26776 3.30293 6.85516 4.58388C6.57001 4.46836 6.25878 4.4042 5.9327 4.4042C4.57304 4.4042 3.46689 5.51035 3.46689 6.87001C3.46689 7.06718 3.49042 7.262 3.53642 7.45097C2.70283 7.9702 2.16689 8.89188 2.16689 9.9034C2.16689 11.0181 2.7997 11.9873 3.7245 12.4722C3.43593 12.9575 3.31025 13.5431 3.40742 14.1409C3.56074 15.0843 4.29306 15.841 5.22372 16.101C5.41444 18.6812 6.75887 20.9444 8.74031 22.3794V22.5642C8.40614 22.465 8.03905 22.6159 7.87772 22.9384L7.35643 23.9809L2.375 25.4753C0.954393 25.9016 0 27.1844 0 28.6675V46.667C0 47.0715 0.327929 47.3994 0.73242 47.3994C1.13691 47.3994 1.46484 47.0715 1.46484 46.667V28.6675C1.46484 28.6138 1.46728 28.5607 1.47168 28.508L4.39931 31.4356C4.91581 31.9521 5.20019 32.6387 5.20019 33.3691V46.6669C5.20019 47.0714 5.52811 47.3993 5.93261 47.3993C6.3371 47.3993 6.66503 47.0714 6.66503 46.6669V33.3691C6.66503 32.2474 6.22821 31.1929 5.43505 30.3998L2.20966 27.1744C2.38232 27.0455 2.5789 26.9436 2.79589 26.8786L6.09579 25.8886C6.35419 26.6149 8.27313 31.6028 13.3266 34.9717C13.4497 35.0537 13.5913 35.0948 13.7329 35.0948C13.8745 35.0948 14.0161 35.0537 14.1391 34.9717C19.3619 31.4899 21.225 26.3429 21.3783 25.8973L24.4805 26.838ZM18.6055 24.2489L18.9351 24.9081L16.46 28.002C16.426 28.0445 16.3852 28.0532 16.353 28.0524C16.323 28.0519 16.2803 28.0422 16.2477 27.9987L14.8455 26.129L18.6055 24.2489ZM22.5341 6.87011C22.5341 7.06562 22.4765 7.25595 22.3676 7.4205C22.2382 7.61591 22.2102 7.86142 22.2922 8.08095C22.3743 8.30048 22.5563 8.46747 22.782 8.53036C23.4015 8.70282 23.8342 9.26747 23.8342 9.9035C23.8342 10.6944 23.1908 11.3379 22.3999 11.3379C21.6089 11.3379 20.9655 10.6944 20.9655 9.9035C20.9655 9.54911 21.1017 9.20585 21.3491 8.9371C21.5077 8.76483 21.5743 8.52714 21.5284 8.29755C21.4825 8.06796 21.3295 7.87411 21.117 7.77606C20.7618 7.6121 20.5322 7.25653 20.5322 6.87011C20.5322 6.31816 20.9812 5.86913 21.5332 5.86913C22.0851 5.86913 22.5341 6.31816 22.5341 6.87011ZM4.68378 8.53046C4.90956 8.46757 5.09159 8.30057 5.17353 8.08104C5.25546 7.86151 5.22743 7.61601 5.09813 7.4206C4.98925 7.25605 4.93163 7.06571 4.93163 6.87021C4.93163 6.31825 5.38065 5.86923 5.93261 5.86923C6.48456 5.86923 6.93358 6.31816 6.93358 6.87011C6.93358 7.25653 6.70399 7.6122 6.34872 7.77606C6.13612 7.87411 5.98319 8.06796 5.93739 8.29755C5.89149 8.52714 5.95809 8.76483 6.11669 8.9371C6.36405 9.20585 6.50028 9.54911 6.50028 9.9035C6.50028 10.6944 5.85682 11.3379 5.06591 11.3379C4.27499 11.3379 3.63154 10.6944 3.63154 9.9035C3.63163 9.26757 4.06425 8.70292 4.68378 8.53046ZM6.66503 15.4659C6.66503 15.0614 6.3371 14.7335 5.93261 14.7335C5.39393 14.7335 4.92978 14.3777 4.85312 13.9059C4.76571 13.3684 5.09462 12.874 5.61806 12.756C5.64638 12.7497 5.67362 12.7413 5.70038 12.7319C6.99471 12.4417 7.96502 11.2842 7.96502 9.9036C7.96502 9.45565 7.85995 9.01825 7.6619 8.62186C8.12401 8.16591 8.39842 7.537 8.39842 6.87011C8.39842 6.37568 8.25155 5.91503 7.99998 5.52861C9.11785 4.58232 10.5209 4.06455 11.9995 4.06455H15.4663C16.9514 4.06455 18.3503 4.57978 19.467 5.52685C19.2146 5.91367 19.0673 6.37489 19.0673 6.87011C19.0673 7.537 19.3418 8.16591 19.8039 8.62186C19.6057 9.01825 19.5007 9.45565 19.5007 9.9036C19.5007 11.312 20.5105 12.4886 21.844 12.7487C21.8665 12.7579 21.8895 12.7662 21.9132 12.7732C22.3321 12.8983 22.7068 13.3275 22.6127 13.906C22.5361 14.3778 22.0719 14.7336 21.5333 14.7336C21.1288 14.7336 20.8008 15.0615 20.8008 15.466C20.8008 19.3632 17.6302 22.5338 13.733 22.5338C9.83572 22.5338 6.66503 19.3632 6.66503 15.4659ZM13.7329 23.9986C14.9872 23.9986 16.1789 23.726 17.2526 23.2378V23.2876L13.7329 25.0474L10.2051 23.2836V23.2344C11.2808 23.7249 12.4755 23.9986 13.7329 23.9986ZM8.62821 24.7128L8.86024 24.2489L12.6204 26.129L11.2181 27.9987C11.1855 28.0422 11.1428 28.0519 11.1129 28.0524C11.0808 28.0549 11.0398 28.0445 11.0058 28.002L8.55028 24.9326C8.58768 24.8642 8.61395 24.7901 8.62821 24.7128ZM13.7329 33.4733C10.454 31.1429 8.68924 28.093 7.93924 26.5136L9.86199 28.917C10.1679 29.2995 10.6216 29.5172 11.1099 29.5172C11.1185 29.5172 11.1271 29.5171 11.1357 29.517C11.6339 29.5092 12.091 29.2761 12.3899 28.8776L13.0004 28.0636V31.0665C13.0004 31.471 13.3283 31.799 13.7328 31.799C14.1373 31.799 14.4652 31.471 14.4652 31.0665V28.0636L15.0757 28.8776C15.3746 29.2762 15.8317 29.5092 16.3299 29.517C16.3384 29.5171 16.347 29.5172 16.3556 29.5172C16.844 29.5172 17.2976 29.2995 17.6036 28.917L19.5322 26.5062C18.7882 28.0813 17.0288 31.1321 13.7329 33.4733Z" fill="black"/>
<path d="M16.0351 18.5278C16.2899 18.2137 16.2418 17.7524 15.9277 17.4976C15.6135 17.2428 15.1523 17.2909 14.8975 17.6051C14.586 17.9892 14.1724 18.2008 13.733 18.2008C13.2935 18.2008 12.8799 17.9892 12.5684 17.6051C12.3137 17.2909 11.8524 17.2429 11.5382 17.4976C11.2241 17.7524 11.176 18.2137 11.4308 18.5278C12.0173 19.2509 12.8564 19.6655 13.7331 19.6655C14.6097 19.6655 15.4486 19.2508 16.0351 18.5278Z" fill="black"/>
<path d="M10.2661 13C9.86165 13 9.53372 13.3279 9.53372 13.7324V14.5991C9.53372 15.0036 9.86165 15.3315 10.2661 15.3315C10.6706 15.3315 10.9986 15.0036 10.9986 14.5991V13.7324C10.9986 13.3279 10.6706 13 10.2661 13Z" fill="black"/>
<path d="M17.1997 15.3315C17.6042 15.3315 17.9322 15.0036 17.9322 14.5991V13.7324C17.9322 13.3279 17.6042 13 17.1997 13C16.7952 13 16.4673 13.3279 16.4673 13.7324V14.5991C16.4673 15.0036 16.7952 15.3315 17.1997 15.3315Z" fill="black"/>
<path d="M24.6511 28.8161C24.3651 28.5301 23.9013 28.5301 23.6154 28.8161L22.0307 30.4008C21.2376 31.1939 20.8008 32.2484 20.8008 33.3701V46.6679C20.8008 47.0724 21.1287 47.4003 21.5332 47.4003C21.9377 47.4003 22.2656 47.0724 22.2656 46.6679V33.3701C22.2656 32.6397 22.5501 31.953 23.0665 31.4366L24.6511 29.8519C24.9372 29.5659 24.9372 29.1021 24.6511 28.8161Z" fill="black"/>
<path d="M37.1337 25.7319C38.0104 25.7319 38.8494 25.3172 39.436 24.5942C39.6907 24.2801 39.6427 23.8188 39.3285 23.564C39.0144 23.3092 38.5531 23.3573 38.2984 23.6715C37.9868 24.0556 37.5733 24.2672 37.1338 24.2672C36.6944 24.2672 36.2808 24.0556 35.9693 23.6715C35.7146 23.3573 35.2533 23.3093 34.9391 23.564C34.6249 23.8188 34.5769 24.2801 34.8317 24.5942C35.418 25.3172 36.2571 25.7319 37.1337 25.7319Z" fill="black"/>
<path d="M29.3334 36.4023C28.9289 36.4023 28.601 36.7303 28.601 37.1348V46.6684C28.601 47.0729 28.9289 47.4009 29.3334 47.4009C29.7379 47.4009 30.0658 47.0729 30.0658 46.6684V37.1348C30.0658 36.7303 29.7379 36.4023 29.3334 36.4023Z" fill="black"/>
<path d="M44.934 36.4023C44.5295 36.4023 44.2016 36.7303 44.2016 37.1348V46.6684C44.2016 47.0729 44.5295 47.4009 44.934 47.4009C45.3385 47.4009 45.6664 47.0729 45.6664 46.6684V37.1348C45.6664 36.7303 45.3385 36.4023 44.934 36.4023Z" fill="black"/>
<path d="M47.5515 31.3957C48.009 30.8154 48.2665 30.092 48.2665 29.333C48.2665 28.0987 47.5895 26.9941 46.5303 26.4195C46.5322 26.3795 46.5331 26.3395 46.5331 26.2996C46.5331 25.3475 46.0722 24.476 45.3197 23.9397C45.3695 23.7708 45.4158 23.6006 45.4549 23.4284C45.5498 23.0101 45.6104 22.5681 45.6388 22.0838C46.7916 20.3828 47.3998 18.3984 47.3998 16.3325C47.3998 10.6718 42.7944 6.06641 37.1337 6.06641C31.473 6.06641 26.8676 10.6718 26.8676 16.3325C26.8676 18.3986 27.4759 20.383 28.6287 22.0839C28.6572 22.5685 28.7177 23.0104 28.8125 23.4283C28.8516 23.6005 28.8979 23.7706 28.9477 23.9396C28.1952 24.4759 27.7343 25.3474 27.7343 26.2996C27.7343 26.3395 27.7353 26.3795 27.7371 26.4195C26.6778 26.9941 26.0009 28.0988 26.0009 29.333C26.0009 30.092 26.2585 30.8154 26.7159 31.3957C25.2066 32.3013 24.2675 33.9282 24.2675 35.7336V46.6673C24.2675 47.0718 24.5954 47.3997 24.9999 47.3997C25.4044 47.3997 25.7324 47.0718 25.7324 46.6673V35.7336C25.7324 34.2526 26.6209 32.9402 27.996 32.3901L28.1362 32.334C30.3025 35.2618 33.6398 36.999 37.1338 36.999C40.6756 36.999 43.9398 35.3018 46.1308 32.3338L46.2715 32.3901C47.6467 32.9402 48.5352 34.2526 48.5352 35.7336V46.6669C48.5352 47.0714 48.8631 47.3993 49.2676 47.3993C49.6721 47.3993 50 47.0714 50 46.6669V35.7336C49.9999 33.9282 49.0608 32.3013 47.5515 31.3957ZM45.0683 26.2996C45.0683 26.4079 45.0497 26.5268 45.0097 26.6738C44.9066 27.0526 45.1206 27.4453 45.4948 27.564C46.2765 27.8122 46.8017 28.523 46.8017 29.333C46.8017 29.8866 46.5567 30.4061 46.1387 30.7594L41.962 29.0887C41.8116 29.0286 41.6817 28.9339 41.5788 28.8154C41.8967 28.6216 42.2028 28.4072 42.4941 28.1718C43.435 27.4113 44.2006 26.4578 44.7435 25.3906C44.9491 25.6416 45.0683 25.9599 45.0683 26.2996ZM34.0195 29.4744C35.006 29.8608 36.0632 30.0654 37.1337 30.0654C38.2042 30.0654 39.2614 29.8608 40.248 29.4744C40.508 29.8881 40.887 30.2167 41.3444 30.4169C40.2057 31.4741 38.716 32.0672 37.1336 32.0672C35.5528 32.0672 34.0624 31.4736 32.9233 30.4167C33.3807 30.2166 33.7595 29.8879 34.0195 29.4744ZM28.3325 16.3325C28.3325 11.4795 32.2807 7.53125 37.1337 7.53125C41.9867 7.53125 45.935 11.4795 45.935 16.3325C45.935 17.567 45.6813 18.7671 45.1935 19.8747C44.1382 17.6039 41.7927 16.9676 39.5109 16.3502C37.6663 15.8511 35.7589 15.3348 34.1243 14.0272C33.9516 13.889 33.7255 13.8362 33.5097 13.8838C33.2937 13.9312 33.1107 14.0737 33.0117 14.2716C33.0041 14.2867 32.2368 15.7953 30.7392 16.5441C30.3774 16.725 30.2307 17.1649 30.4116 17.5267C30.5925 17.8886 31.0323 18.0353 31.3943 17.8543C32.5864 17.2582 33.4077 16.3117 33.8708 15.6564C35.5769 16.8031 37.4515 17.3104 39.1283 17.7641C39.6787 17.9131 40.1853 18.0543 40.6483 18.2014C40.6322 18.2011 40.6164 18.2003 40.6004 18.2003C39.7078 18.2003 38.9245 18.6769 38.4917 19.3891C38.0868 19.1807 37.6221 19.067 37.1337 19.067C36.6452 19.067 36.1804 19.1807 35.7756 19.3891C35.3427 18.677 34.5594 18.2003 33.6669 18.2003C32.3072 18.2003 31.2011 19.3064 31.2011 20.6661C31.2011 22.0258 32.3072 23.1319 33.6669 23.1319C34.9341 23.1319 35.9807 22.171 36.1172 20.9395C36.3562 20.6852 36.7298 20.5318 37.1337 20.5318C37.5375 20.5318 37.9111 20.6852 38.1501 20.9395C38.2866 22.171 39.3332 23.1319 40.6004 23.1319C41.9601 23.1319 43.0662 22.0258 43.0662 20.6661C43.0662 19.9538 42.7623 19.3114 42.2777 18.8609C43.3252 19.4317 43.9694 20.2286 44.2082 21.636C44.1959 21.6851 44.1881 21.7361 44.1861 21.7887C44.1687 22.2771 44.1163 22.7074 44.0263 23.1043C43.6776 24.6407 42.8064 26.0358 41.5731 27.0328C40.304 28.0586 38.769 28.6007 37.1336 28.6007C35.4983 28.6007 33.9631 28.0586 32.6942 27.0328C31.4609 26.0359 30.5897 24.6407 30.2409 23.1043C30.1511 22.7082 30.0988 22.2783 30.0812 21.79C30.0741 21.5961 29.9922 21.4219 29.8637 21.2952C28.8615 19.8302 28.3325 18.1172 28.3325 16.3325ZM41.6015 20.666C41.6015 21.2179 41.1524 21.667 40.6005 21.667C40.0485 21.667 39.5995 21.2179 39.5995 20.666C39.5995 20.114 40.0485 19.665 40.6005 19.665C41.1524 19.665 41.6015 20.114 41.6015 20.666ZM33.6669 21.667C33.115 21.667 32.6659 21.2179 32.6659 20.666C32.6659 20.114 33.115 19.665 33.6669 19.665C34.2189 19.665 34.6679 20.114 34.6679 20.666C34.6679 21.2179 34.2189 21.667 33.6669 21.667ZM28.7726 27.564C29.1468 27.4453 29.3607 27.0526 29.2577 26.6738C29.2177 26.5268 29.1991 26.4079 29.1991 26.2996C29.1991 25.9599 29.3183 25.6416 29.524 25.3906C30.0668 26.4579 30.8324 27.4113 31.7734 28.1718C32.0646 28.4072 32.3706 28.6217 32.6886 28.8154C32.5857 28.9339 32.4557 29.0286 32.3053 29.0887L28.1287 30.7593C27.7107 30.406 27.4659 29.8865 27.4659 29.3329C27.4658 28.523 27.9909 27.8122 28.7726 27.564ZM37.1337 35.5341C34.1816 35.5341 31.4534 34.1704 29.5486 31.7691L31.4489 31.009C32.9028 32.618 34.9494 33.5322 37.1338 33.5322C39.3202 33.5322 41.3648 32.6183 42.8185 31.0089L44.7195 31.7694C42.8138 34.1699 40.0811 35.5341 37.1337 35.5341Z" fill="black"/>
</svg>
