<svg width="149" height="155" viewBox="0 0 149 155" fill="none" xmlns="http://www.w3.org/2000/svg">
<path d="M52.1706 29.0961L74.5 46.9633L96.8295 29.0987C100.542 26.129 102.759 21.42 102.759 16.503C102.759 11.2392 100.29 6.33764 96.1538 3.39874L95.4294 2.88238C92.7782 0.996759 89.6852 0 86.4894 0C82.2454 0 78.0991 1.82397 75.114 5.00948L74.5 5.66457L73.886 5.00948C70.9009 1.82397 66.7546 0 62.5107 0C59.3123 0 56.2218 0.996759 53.5681 2.88495L52.8462 3.39874C48.7102 6.33764 46.2414 11.2392 46.2414 16.503C46.2414 21.42 48.4584 26.129 52.1706 29.0961Z" fill="#026670"/>
<path d="M69.3622 135.716C69.3622 133.124 67.2556 131.018 64.6635 131.018C63.4099 131.018 62.2307 131.506 61.3418 132.395L52.7538 140.983C51.8675 141.869 51.3794 143.048 51.3794 144.302C51.3794 146.894 53.4859 149 56.078 149C57.3317 149 58.5108 148.512 59.3997 147.623L67.9878 139.035C68.8741 138.149 69.3622 136.97 69.3622 135.716Z" fill="#026670"/>
<path d="M53.9483 130.578C53.9483 127.986 51.8418 125.879 49.2497 125.879C47.996 125.879 46.8169 126.367 45.928 127.256L37.34 135.844C36.4537 136.731 35.9656 137.91 35.9656 139.164C35.9656 141.756 38.0721 143.862 40.6642 143.862C41.9179 143.862 43.097 143.374 43.9859 142.485L52.5739 133.897C53.4602 133.011 53.9483 131.832 53.9483 130.578Z" fill="#026670"/>
<path d="M0 28.3384V91.5247L27.38 49.4013L0 28.3384Z" fill="#026670"/>
<path d="M41.1034 122.871C41.1034 120.279 38.9969 118.173 36.4048 118.173C35.1511 118.173 33.972 118.661 33.0831 119.55L24.4951 128.138C23.6088 129.024 23.1207 130.203 23.1207 131.457C23.1207 134.049 25.2272 136.156 27.8193 136.156C29.073 136.156 30.2521 135.668 31.141 134.779L39.729 126.191C40.6153 125.304 41.1034 124.125 41.1034 122.871Z" fill="#026670"/>
<path d="M88.4469 135.752C89.3589 137.242 89.9137 138.979 89.9137 140.854C89.9137 143.433 88.917 145.853 87.1213 147.698C87.9999 148.533 89.1379 149 90.353 149C92.9451 149 95.0517 146.894 95.0517 144.301C95.0517 143.048 94.5636 141.869 93.6747 140.98L88.4469 135.752Z" fill="#026670"/>
<path d="M121.62 49.4013L149 91.5247V28.3384L121.62 49.4013Z" fill="#026670"/>
<path d="M98.078 51.3794C91.9356 51.3794 85.9267 53.8764 81.5955 58.2308L64.1291 75.8411C61.1439 78.8519 57.6578 81.2256 53.7633 82.8955L53.4499 83.0291C52.1551 83.584 51.3613 84.7811 51.3819 86.1503C51.4101 88.2954 53.0543 89.9139 55.0452 89.9139H61.0874C65.9017 89.9139 69.863 88.3956 72.8584 85.4002L75.1679 83.0907C79.0496 79.2064 84.2107 77.0691 89.7006 77.0691C95.4371 77.0691 100.76 74.2201 103.938 69.4495L107.172 64.5967L111.447 67.4457L108.213 72.2985C106.283 75.1937 103.73 77.5161 100.816 79.1987L133.72 112.102L148.188 99.6991L116.777 51.3794H98.078Z" fill="#026670"/>
<path d="M95.7069 81.3567C93.775 81.8987 91.7635 82.207 89.7006 82.207C85.5826 82.207 81.7111 83.81 78.7979 86.7207L76.4884 89.0302C72.5528 92.9709 67.2247 95.0518 61.0875 95.0518H55.0453C50.2619 95.0518 46.3133 91.1598 46.244 86.3764C46.19 82.7927 48.2247 79.6843 51.4282 78.3099L51.7416 78.1763C55.0221 76.7685 57.9636 74.7673 60.4786 72.2291L73.475 59.1274L72.5374 58.1897C68.147 53.7968 62.3077 51.3794 56.0985 51.3794H32.22L0.840088 99.6605L25.5176 119.85L29.4507 115.917C31.308 114.057 33.7794 113.035 36.4049 113.035C41.2756 113.035 45.3346 116.595 46.1078 121.253C47.1072 120.916 48.1656 120.741 49.2497 120.741C53.7608 120.741 57.532 123.811 58.6855 127.958C60.399 126.635 62.4644 125.879 64.6635 125.879C69.1746 125.879 72.9458 128.949 74.0993 133.096C75.8128 131.773 77.8782 131.017 80.0773 131.017C81.9526 131.017 83.6867 131.572 85.1792 132.484L71.3993 118.704L75.0318 115.072L102.445 142.485C103.334 143.374 104.513 143.862 105.767 143.862C108.359 143.862 110.466 141.756 110.466 139.164C110.466 137.91 109.977 136.731 109.089 135.842L82.9596 109.713L86.5922 106.08L117.859 137.347C118.748 138.236 119.927 138.724 121.181 138.724C123.773 138.724 125.879 136.618 125.879 134.026C125.879 132.772 125.391 131.593 124.502 130.704L93.2355 99.437L96.868 95.8045L130.704 129.64C131.593 130.529 132.772 131.017 134.026 131.017C136.618 131.017 138.724 128.911 138.724 126.319C138.724 125.065 138.236 123.886 137.347 122.997L95.7069 81.3567Z" fill="#026670"/>
<path d="M80.0773 136.155C78.8236 136.155 77.6445 136.643 76.7556 137.532L68.1675 146.12C67.2813 147.007 66.7932 148.186 66.7932 149.439C66.7932 152.031 68.8997 154.138 71.4918 154.138C72.7454 154.138 73.9246 153.65 74.8135 152.761L83.4015 144.173C84.2878 143.287 84.7759 142.108 84.7759 140.854C84.7759 138.262 82.6694 136.155 80.0773 136.155Z" fill="#026670"/>
</svg>
