<svg width="50" height="50" viewBox="0 0 50 50" fill="none" xmlns="http://www.w3.org/2000/svg">
<g clip-path="url(#clip0)">
<path d="M23.0717 33.9133C23.4535 33.5315 23.4535 32.9135 23.0717 32.5316C22.6895 32.1509 22.0703 32.1509 21.6877 32.5316C21.3062 32.9135 21.3062 33.5315 21.6877 33.9133C22.0703 34.294 22.6895 34.294 23.0717 33.9133Z" fill="#F4BB03"/>
<path d="M18.4393 10.7391C18.4393 16.6607 23.2663 21.4787 29.1994 21.4787C35.1326 21.4787 39.9596 16.6607 39.9596 10.7391C39.9596 4.81758 35.1326 0 29.1994 0C23.2663 0 18.4393 4.81758 18.4393 10.7391V10.7391ZM38.0034 10.7391C38.0034 15.5842 34.0539 19.5259 29.1994 19.5259C24.3449 19.5259 20.3955 15.5842 20.3955 10.7391C20.3955 5.89447 24.3449 1.95274 29.1994 1.95274C34.0539 1.95274 38.0034 5.89447 38.0034 10.7391Z" fill="#F4BB03"/>
<path d="M11.3163 49.7113C11.6954 50.0928 12.3127 50.097 12.6968 49.7193L17.4394 45.0562C18.2451 44.2521 18.4901 43.0615 18.1358 42.0266L19.1559 41.0447C19.7052 40.5152 20.4283 40.2234 21.1927 40.2234H34.1969C36.5039 40.2234 38.6845 39.3391 40.3376 37.7335C40.4056 37.6675 39.8212 38.3546 49.2092 27.1561C50.6016 25.512 50.3933 23.0431 48.7444 21.6519C47.1059 20.2737 44.6513 20.4716 43.255 22.0876L37.4828 28.0087C36.7539 27.1134 35.6424 26.5553 34.4415 26.5553H23.5334C21.9812 25.9072 20.3343 25.5791 18.6349 25.5791C13.9245 25.5791 9.81148 27.7505 7.60419 31.8215C6.67425 31.6457 5.69349 31.9264 4.98792 32.6306L0.334432 37.2887C-0.0454911 37.6691 -0.0462555 38.2844 0.332903 38.6659L11.3163 49.7113ZM18.6346 27.5315C20.1329 27.5315 21.5815 27.8325 22.941 28.4261C23.0648 28.4802 23.1982 28.5081 23.3331 28.5081H34.4415C35.5022 28.5081 36.3981 29.3713 36.3981 30.4604C36.3981 31.5373 35.5205 32.4132 34.4415 32.4132H26.4604C25.9204 32.4132 25.4824 32.8503 25.4824 33.3894C25.4824 33.9288 25.9204 34.3655 26.4604 34.3655H34.4415C36.5991 34.3655 38.3542 32.6138 38.3542 30.4604C38.3542 30.2888 38.342 30.1186 38.3198 29.95C43.9036 24.2215 44.691 23.4166 44.7246 23.3765C45.4218 22.5552 46.6594 22.4511 47.4827 23.1438C48.3068 23.8393 48.4111 25.0737 47.712 25.8996L38.9383 36.3679C37.6571 37.5954 35.975 38.271 34.1969 38.271H21.1927C19.9184 38.271 18.7122 38.7574 17.7971 39.6397L16.9658 40.4404L9.30237 32.7924C11.0934 29.4389 14.4543 27.5315 18.6346 27.5315V27.5315ZM6.3723 34.0104C6.69489 33.6884 7.19025 33.6304 7.58355 33.8731C7.75287 33.9761 7.26669 33.5343 16.0561 42.2944C16.4471 42.6846 16.4261 43.3064 16.0615 43.6704L12.0184 47.6457L2.40681 37.9796L6.3723 34.0104Z" fill="#F4BB03"/>
<path d="M28.0256 4.88086V6.02489C26.887 6.42772 26.0691 7.513 26.0691 8.78597C26.0691 10.4007 27.3854 11.7149 29.0037 11.7149C29.543 11.7149 29.9818 12.1528 29.9818 12.6911C29.9818 13.2293 29.543 13.6673 29.0037 13.6673C28.586 13.6673 28.1346 13.4052 27.7336 12.9287C27.3858 12.516 26.7689 12.463 26.3553 12.8097C25.9418 13.1568 25.8883 13.7725 26.2361 14.1853C26.759 14.8059 27.3739 15.2385 28.0256 15.4567V16.5962C28.0256 17.1356 28.4636 17.5724 29.0037 17.5724C29.5438 17.5724 29.9818 17.1356 29.9818 16.5962V15.4522C31.1204 15.0489 31.9384 13.9637 31.9384 12.6911C31.9384 11.0759 30.622 9.76215 29.0037 9.76215C28.4644 9.76215 28.0256 9.32422 28.0256 8.78597C28.0256 8.24771 28.4644 7.8094 29.0037 7.8094C29.3504 7.8094 29.7162 7.98602 30.0617 8.31981C30.45 8.6948 31.0692 8.6845 31.4449 8.2973C31.8207 7.90973 31.8103 7.29175 31.4224 6.91676C30.9259 6.43726 30.429 6.16603 29.9818 6.01802V4.88086C29.9818 4.34146 29.5438 3.9043 29.0037 3.9043C28.4636 3.9043 28.0256 4.34146 28.0256 4.88086V4.88086Z" fill="#F4BB03"/>
</g>
<defs>
<clipPath id="clip0">
<rect width="50" height="50" fill="white"/>
</clipPath>
</defs>
</svg>
