<svg width="50" height="50" viewBox="0 0 50 50" fill="none" xmlns="http://www.w3.org/2000/svg">
<g clip-path="url(#clip0)">
<path d="M20.4399 36.3789C11.2019 37.0686 4.29689 39.8152 4.29689 43.1031C4.29689 46.9117 13.5597 49.9997 24.9867 49.9997V43.1031C24.9867 43.1031 22.9725 40.3058 20.4399 36.3789Z" fill="#72C730"/>
<path d="M29.533 36.3789C27.0005 40.3058 24.9867 43.1031 24.9867 43.1031V49.9997C36.4132 49.9997 45.6761 46.9117 45.6761 43.1031C45.6761 39.8152 38.7711 37.0686 29.533 36.3789Z" fill="#72C730"/>
<path d="M24.9867 0V10.3447C27.3671 10.3447 29.2969 12.2746 29.2969 14.6549C29.2969 17.0357 27.3671 18.9655 24.9867 18.9655V43.1034C24.9867 43.1034 27.0005 40.3057 29.533 36.3792C33.8364 29.6997 39.6416 19.7498 39.6416 14.6549C39.6416 6.56128 33.0803 0 24.9867 0Z" fill="#196F58"/>
<path d="M24.9867 10.3447V0C16.8926 0 10.3313 6.56128 10.3313 14.6553C10.3313 19.7498 16.1366 29.7001 20.4399 36.3792C22.9725 40.3061 24.9867 43.1034 24.9867 43.1034V18.9655C22.6059 18.9655 20.676 17.0357 20.676 14.6553C20.676 12.2746 22.6059 10.3447 24.9867 10.3447Z" fill="#196F58"/>
</g>
<defs>
<clipPath id="clip0">
<rect width="50" height="50" fill="white"/>
</clipPath>
</defs>
</svg>
