<svg width="50" height="50" viewBox="0 0 50 50" fill="none" xmlns="http://www.w3.org/2000/svg">
<g clip-path="url(#clip0)">
<path d="M50 18.2066C50 26.5946 44.7241 41.0428 25 47.4135C5.27586 41.0428 0 26.5946 0 18.2066C0 9.84456 5.10345 2.58594 12.5 2.58594C16.6698 2.60357 20.687 4.15643 23.7845 6.94801C24.2193 7.33169 24.6256 7.74658 25 8.18939L25.0517 8.12904C28.2405 4.61781 32.7569 2.60668 37.5 2.58594C44.8966 2.58594 50 9.84456 50 18.2066V18.2066Z" fill="#196F58"/>
<path d="M25 8.1906L22.6293 11.1389C22.4658 11.3426 22.218 11.4601 21.9569 11.4578C21.7595 11.4581 21.568 11.3912 21.4138 11.2682C21.2352 11.1262 21.1211 10.9186 21.0968 10.6918C21.0725 10.465 21.1401 10.2379 21.2845 10.0613L23.7844 6.94922C24.2193 7.3329 24.6255 7.74779 25 8.1906V8.1906Z" fill="#196F58"/>
<path d="M46.5518 19.8262C46.0371 22.4271 44.6907 24.7902 42.7155 26.559C42.5007 26.7529 42.3352 26.9952 42.2328 27.2658C41.9483 28.0417 42.1466 29.0417 42.2587 30.3521C42.3822 31.5362 42.3386 32.7318 42.1293 33.9038C41.6196 35.6269 40.9229 37.2891 40.0518 38.8607L39.8535 39.2227C35.5276 42.9586 30.4681 45.7482 25 47.4124C21.1645 46.2044 17.5105 44.4818 14.138 42.2917C13.34 39.7747 13.4997 37.0517 14.5862 34.6452C15.5583 32.953 16.6806 31.3517 17.9397 29.8607C15.8487 30.0999 13.7754 30.4743 11.7328 30.9814C5.06037 32.8952 3.55175 24.3607 6.87072 23.4038C10.1897 22.4469 10.3104 26.0072 11.138 25.7658C11.8966 25.5503 17.0776 24.059 20.2069 23.1624C20.4914 23.0762 20.7586 22.9986 21.0345 22.921C21.8433 22.6756 22.7021 22.6459 23.5259 22.8348C23.8076 22.9023 24.0819 22.9976 24.3449 23.1193C24.5263 22.6176 24.8689 22.1902 25.319 21.9038C26.6361 21.1729 28.1535 20.8857 29.6466 21.0848C29.4997 20.7968 29.3702 20.5003 29.2586 20.1969C28.6995 18.7249 28.5216 17.1354 28.7414 15.5762C29.0523 13.1827 30.3151 11.0158 32.2442 9.56528C34.1733 8.11481 36.6057 7.50339 38.9914 7.86929C44.9483 8.78309 47.25 14.921 46.5518 19.8262V19.8262Z" fill="#BA9369"/>
<path d="M40.9078 21.5946C40.4708 21.5943 40.0411 21.4824 39.6595 21.2696C39.3827 21.1243 39.2062 20.8405 39.1983 20.528C39.1905 20.2155 39.3524 19.9232 39.6215 19.7641C39.8907 19.6051 40.2248 19.6042 40.4948 19.7618C40.9117 19.9923 41.4364 19.8411 41.6668 19.4243C41.8972 19.0075 41.7461 18.4828 41.3293 18.2523C41.0525 18.107 40.876 17.8233 40.8682 17.5107C40.8603 17.1982 41.0222 16.9059 41.2914 16.7469C41.5605 16.5878 41.8947 16.5869 42.1647 16.7446C43.1983 17.3155 43.7139 18.5141 43.4177 19.6572C43.1215 20.8002 42.0886 21.5975 40.9078 21.5946V21.5946Z" fill="#956838"/>
<path d="M34.6026 32.9018C27.7259 29.4259 25.1595 26.1061 25.0509 24.1595C24.9835 23.5488 25.2698 22.953 25.7888 22.6242C28.1836 21.0552 32.6699 22.5449 32.7147 22.5595C33.1618 22.7011 33.64 22.4593 33.791 22.0153C33.942 21.5714 33.7105 21.0881 33.2698 20.9276C33.0535 20.8535 27.9448 19.1518 24.844 21.1811C23.8073 21.8449 23.224 23.0287 23.3293 24.2552C23.4155 25.8449 24.4121 27.563 26.1897 29.2932C26.1328 30.1509 26.0276 30.8449 26.0086 30.944C25.6802 32.5328 23.8923 34.7509 21.7552 36.2173C21.5013 36.3918 21.3597 36.6885 21.3838 36.9956C21.408 37.3028 21.5941 37.5737 21.8722 37.7064C22.1503 37.8391 22.478 37.8133 22.7319 37.6388C25.2785 35.8897 27.275 33.3397 27.7009 31.2759C27.7207 31.1664 27.7526 30.9569 27.7871 30.6854C29.6699 32.1331 31.6913 33.3913 33.8216 34.4414C33.9423 34.5018 34.0754 34.5334 34.2104 34.5337C34.61 34.5345 34.9577 34.2605 35.0505 33.8718C35.1434 33.4831 34.9569 33.0816 34.6 32.9018H34.6026Z" fill="#956838"/>
<path d="M42.2587 30.3526C41.7694 28.8879 40.5199 27.807 39 27.5336L32.2673 26.2836C31.7983 26.1955 31.4895 25.7439 31.5776 25.275C31.6657 24.806 32.1173 24.4972 32.5862 24.5853L39.319 25.8353C40.3983 26.0506 41.4027 26.5438 42.2328 27.2663C41.9483 28.0422 42.1466 29.0422 42.2587 30.3526V30.3526Z" fill="#956838"/>
</g>
<defs>
<clipPath id="clip0">
<rect width="50" height="50" fill="white"/>
</clipPath>
</defs>
</svg>
