<svg width="131" height="130" viewBox="0 0 131 130" fill="none" xmlns="http://www.w3.org/2000/svg">
<path d="M59.1561 41.061C59.1561 43.7645 56.9612 45.9327 54.2844 45.9327H7.28074C4.57722 45.9327 2.40906 43.7378 2.40906 41.061V7.30723C2.40906 4.60371 4.60399 2.43555 7.28074 2.43555H54.2576C56.9612 2.43555 59.1293 4.63048 59.1293 7.30723V41.061H59.1561Z" fill="white"/>
<path d="M0 7.30752V41.0613C0 45.0764 3.26563 48.3688 7.30752 48.3688H28.3735V55.6763H21.3337C19.9953 55.6763 18.8978 56.7738 18.8978 58.1122C18.8978 59.4506 19.9953 60.548 21.3337 60.548H40.2315C41.5699 60.548 42.6673 59.4506 42.6673 58.1122C42.6673 56.7738 41.5699 55.6763 40.2315 55.6763H33.1917V48.3688H54.2577C58.2728 48.3688 61.5652 45.1032 61.5652 41.0613V7.30752C61.5652 3.2924 58.2995 0 54.2577 0H7.28075C3.26563 0 0 3.2924 0 7.30752ZM56.7203 7.30752V41.0613C56.7203 42.3997 55.6228 43.4971 54.2844 43.4971H7.28075C5.94238 43.4971 4.84491 42.3997 4.84491 41.0613V7.30752C4.84491 5.96915 5.94238 4.87168 7.28075 4.87168H54.2577C55.6228 4.87168 56.7203 5.96915 56.7203 7.30752Z" fill="#026670"/>
<path d="M123.719 69.4614H76.7155C72.7004 69.4614 69.408 72.7271 69.408 76.769V110.496C69.408 114.511 72.6736 117.803 76.7155 117.803H97.7815V125.111H90.7416C89.4033 125.111 88.3058 126.208 88.3058 127.547C88.3058 128.885 89.4033 129.983 90.7416 129.983H109.666C111.005 129.983 112.102 128.885 112.102 127.547C112.102 126.208 111.005 125.111 109.666 125.111H102.626V117.803H123.692C127.708 117.803 131 114.538 131 110.496V76.7422C131 72.7271 127.734 69.4614 123.719 69.4614ZM126.155 110.496C126.155 111.834 125.058 112.932 123.719 112.932H76.7155C75.3771 112.932 74.2796 111.834 74.2796 110.496V76.7422C74.2796 75.4038 75.3771 74.3063 76.7155 74.3063H123.692C125.031 74.3063 126.128 75.4038 126.128 76.7422V110.496H126.155Z" fill="#026670"/>
<path d="M74.4939 26.6071H97.7816V52.1165C97.7816 52.411 97.8352 52.7054 97.9422 52.9731L93.4721 48.5029C92.5352 47.5661 90.9827 47.5661 90.0458 48.5029C89.109 49.4398 89.109 50.9923 90.0458 51.9292L98.5044 60.3877C98.9862 60.8695 99.6018 61.1104 100.217 61.1104C100.833 61.1104 101.449 60.8695 101.931 60.3877L110.389 51.9292C111.326 50.9923 111.326 49.4398 110.389 48.5029C109.452 47.5661 107.9 47.5661 106.963 48.5029L102.493 52.9731C102.6 52.7054 102.653 52.411 102.653 52.1165V24.198C102.653 22.8597 101.556 21.7622 100.217 21.7622H74.4939C73.1556 21.7622 72.0581 22.8597 72.0581 24.198C72.0849 25.5364 73.1556 26.6071 74.4939 26.6071Z" fill="#026670"/>
<path d="M28.3468 107.204C28.3468 108.542 29.4442 109.64 30.7826 109.64H56.5062C57.8445 109.64 58.942 108.542 58.942 107.204C58.942 105.865 57.8445 104.768 56.5062 104.768H33.2184V79.2585C33.2184 78.964 33.1649 78.6696 33.0578 78.4019L37.528 82.8721C38.0098 83.3539 38.6255 83.5948 39.2411 83.5948C39.8568 83.5948 40.4724 83.3539 40.9543 82.8721C41.8911 81.9352 41.8911 80.3827 40.9543 79.4458L32.4957 70.9873C31.5589 70.0505 30.0064 70.0505 29.0695 70.9873L20.611 79.4458C19.6741 80.3827 19.6741 81.9352 20.611 82.8721C21.5478 83.8089 23.1003 83.8089 24.0372 82.8721L28.5074 78.4019C28.4003 78.6696 28.3468 78.964 28.3468 79.2585V107.204Z" fill="#026670"/>
</svg>
