<svg width="50" height="50" viewBox="0 0 50 50" fill="none" xmlns="http://www.w3.org/2000/svg">
<path d="M34.3 25.7832C41.2175 25.7832 46.8253 20.1754 46.8253 13.2578C46.8253 6.34022 41.2175 0.732422 34.3 0.732422C27.3824 0.732422 21.7746 6.34022 21.7746 13.2578C21.7746 20.1754 27.3824 25.7832 34.3 25.7832Z" fill="#72C730"/>
<path d="M37.0402 23.0426C30.1227 23.0426 24.515 17.4349 24.515 10.5175C24.515 7.75839 25.4178 5.21611 26.9293 3.14648C23.81 5.4246 21.7751 9.09901 21.7751 13.2573C21.7751 20.1748 27.3829 25.7825 34.3003 25.7825C38.4587 25.7825 42.1331 23.7476 44.4111 20.6283C42.3415 22.1398 39.7992 23.0426 37.0402 23.0426Z" fill="#8CD157"/>
<path d="M26.6769 34.6183L20.8069 31.9266C20.2506 31.6716 19.8938 31.1156 19.8938 30.5035V26.5664H12.6969V30.5035C12.6969 31.1156 12.3402 31.6716 11.7838 31.9266L5.91378 34.6183C4.15011 35.427 3.06525 37.2371 3.18331 39.1737L3.79904 49.2683H28.7917L29.4074 39.1738C29.5256 37.2371 28.4406 35.4271 26.6769 34.6183Z" fill="#B48764"/>
<path d="M26.6769 34.6179L22.2158 32.5723C21.6374 35.3152 19.2048 37.3749 16.2897 37.3749C13.3762 37.3749 10.9448 35.3176 10.3648 32.5769L5.91379 34.6179C4.15012 35.4267 3.06516 37.2366 3.18333 39.1733L3.79905 49.2678H28.7917L29.4074 39.1732C29.5256 37.2365 28.4406 35.4267 26.6769 34.6179Z" fill="#016951"/>
<path d="M7.21105 38.5096L4.73283 35.3926C3.68547 36.3337 3.09455 37.717 3.18332 39.1723L3.79894 49.2668H8.37862V41.7348C8.37862 40.5561 7.96554 39.4149 7.21105 38.5096Z" fill="#176F58"/>
<path d="M25.3796 38.5096L27.8578 35.3926C28.9052 36.3337 29.4961 37.717 29.4073 39.1723L28.7916 49.2668H24.2119V41.7348C24.2119 40.5561 24.6251 39.4149 25.3796 38.5096Z" fill="#176F58"/>
<path d="M16.299 13.2832C18.684 13.2832 20.6174 11.3498 20.6174 8.96484C20.6174 6.57988 18.684 4.64648 16.299 4.64648C13.914 4.64648 11.9807 6.57988 11.9807 8.96484C11.9807 11.3498 13.914 13.2832 16.299 13.2832Z" fill="#6E4B53"/>
<path d="M16.299 24.7968C21.0689 24.7968 24.9357 21.0914 24.9357 16.5205C24.9357 11.9496 21.0689 8.24414 16.299 8.24414C11.5291 8.24414 7.66229 11.9496 7.66229 16.5205C7.66229 21.0914 11.5291 24.7968 16.299 24.7968Z" fill="#5C414B"/>
<path d="M13.4205 17.6017C10.5416 14.7229 10.1114 12.2411 10.1793 10.6836C8.62456 12.1803 7.66284 14.2434 7.66284 16.5223C7.66284 18.0831 8.11548 19.5408 8.90014 20.7848L13.4205 17.6017Z" fill="#503441"/>
<path d="M24.5049 19.0695C24.4472 19.0508 24.0923 19.0395 24.0923 19.0395C23.7105 19.0395 23.3408 19.5193 23.3408 19.5193L22.0687 18.2799C22.0687 18.2799 16.4911 18.7039 12.74 16.0293C11.7615 18.0842 10.0328 19.5194 10.0328 19.5194L8.35812 19.0396C8.35772 19.0396 8.35743 19.0398 8.35704 19.0398C8.27823 19.0413 8.19757 19.0496 8.11554 19.0654C7.41505 19.2008 6.94318 19.8704 6.94318 20.5838V21.1053C6.94318 21.7936 7.3839 22.4431 8.05431 22.5996C8.20528 22.6348 8.35226 22.6448 8.49288 22.6336C8.85069 22.6051 9.16309 22.8654 9.22755 23.2185C9.83936 26.5718 12.769 29.1152 16.2991 29.1152C19.8292 29.1152 22.7589 26.5718 23.3707 23.2185C23.4351 22.8654 23.7475 22.6051 24.1054 22.6336C24.246 22.6448 24.393 22.6348 24.5439 22.5996C25.2143 22.4431 25.6551 21.7936 25.6551 21.1053V20.4495C25.6551 19.7722 25.149 19.2788 24.5049 19.0695Z" fill="#C39772"/>
<path d="M17.7262 28.9692C14.4474 28.2976 11.981 25.3963 11.981 21.9188V17.3242C11.0611 18.6594 10.0328 19.5198 10.0328 19.5198L8.35809 19.04C8.3577 19.04 8.35741 19.0402 8.35702 19.0402C8.27811 19.0417 8.19754 19.05 8.11541 19.0658C7.41493 19.2012 6.94305 19.8708 6.94305 20.5842V21.1057C6.94305 21.794 7.38378 22.4434 8.05418 22.6C8.20516 22.6352 8.35204 22.6452 8.49276 22.634C8.85057 22.6054 9.16287 22.8658 9.22742 23.2189C9.83924 26.5722 12.7688 29.1156 16.299 29.1156C16.7884 29.1157 17.2645 29.0623 17.7262 28.9692Z" fill="#B48764"/>
<path d="M34.3004 0C29.3662 0 24.87 2.71347 22.5665 7.08143C22.3777 7.43924 22.5149 7.88221 22.8727 8.07088C23.2305 8.25985 23.6734 8.12254 23.8621 7.76473C25.9114 3.8788 29.9111 1.46484 34.3004 1.46484C40.8029 1.46484 46.0931 6.75506 46.0931 13.2576C46.0931 19.7601 40.8029 25.0503 34.3004 25.0503C32.0849 25.0503 29.9261 24.4328 28.0574 23.2642C27.7143 23.0499 27.2625 23.154 27.048 23.4969C26.8336 23.8399 26.9378 24.2918 27.2808 24.5063C29.3825 25.8206 31.8099 26.5152 34.3003 26.5152C41.6105 26.5152 47.5579 20.5678 47.5579 13.2576C47.558 5.94735 41.6106 0 34.3004 0Z" fill="black"/>
<path d="M26.9822 33.9517L21.1122 31.26C20.8171 31.1247 20.6263 30.8274 20.6263 30.5026V28.5587C22.3894 27.4065 23.678 25.5648 24.084 23.3696C24.0846 23.3689 24.0852 23.3681 24.0859 23.3674C24.2947 23.3799 24.5058 23.3613 24.7134 23.3121C25.6812 23.083 26.3837 22.1548 26.3837 21.1049V20.5441C26.3837 19.7679 25.994 19.0705 25.3924 18.6681C25.5721 17.9651 25.6639 17.2457 25.6639 16.5214C25.6639 13.3407 23.9408 10.5397 21.3451 8.93622C21.3297 6.16435 19.0706 3.91406 16.2952 3.91406C13.5199 3.91406 11.2608 6.16445 11.2454 8.93622C8.64962 10.5397 6.92648 13.3407 6.92648 16.5215C6.92648 17.2437 7.01789 17.9613 7.1965 18.6625C6.59513 19.0628 6.20676 19.7632 6.20676 20.5527V21.105C6.20676 22.1549 6.9092 23.0831 7.87707 23.3122C8.08468 23.3613 8.29572 23.38 8.5046 23.3674C8.50529 23.3681 8.50597 23.3689 8.50656 23.3696C8.91251 25.5648 10.2012 27.4066 11.9644 28.5587V30.5026C11.9644 30.8274 11.7736 31.1247 11.4784 31.26L5.60832 33.9517C3.58498 34.8795 2.31663 36.9956 2.45208 39.2174L3.0678 49.312C3.09153 49.7006 3.41399 49.9998 3.79817 49.9998C3.81311 49.9998 3.82824 49.9993 3.84338 49.9985C4.24709 49.9738 4.55451 49.6265 4.52981 49.2228L3.91408 39.1283C3.85793 38.2066 4.13283 37.31 4.65149 36.5831L6.64816 38.979C7.29162 39.7513 7.64601 40.7301 7.64601 41.7353V49.2674C7.64601 49.672 7.97394 49.9998 8.37843 49.9998C8.78292 49.9998 9.11085 49.672 9.11085 49.2674V41.7354C9.11085 40.3882 8.63585 39.0763 7.77345 38.0413L5.70969 35.5649C5.87092 35.4594 6.04074 35.3649 6.21877 35.2832L9.72784 33.6742C10.7279 36.4021 13.3426 38.2576 16.295 38.2576C19.2569 38.2576 21.8628 36.4048 22.862 33.6741L26.3713 35.2832C26.5493 35.3649 26.7192 35.4594 26.8804 35.5649L24.8166 38.0413C23.9541 39.0763 23.4792 40.3881 23.4792 41.7354V49.2674C23.4792 49.672 23.8071 49.9998 24.2116 49.9998C24.6161 49.9998 24.944 49.672 24.944 49.2674V41.7354C24.944 40.7302 25.2984 39.7513 25.942 38.9791L27.9387 36.5832C28.4573 37.3102 28.7322 38.2067 28.6761 39.1284L28.0603 49.2229C28.0357 49.6267 28.343 49.9739 28.7468 49.9985C28.7619 49.9994 28.777 49.9999 28.792 49.9999C29.1761 49.9999 29.4986 49.7007 29.5223 49.3121L30.1381 39.2175C30.274 36.9956 29.0055 34.8795 26.9822 33.9517ZM16.2954 5.3789C17.997 5.3789 19.4245 6.5706 19.7897 8.16298C18.7094 7.74384 17.5301 7.51249 16.2954 7.51249C15.0608 7.51249 13.8815 7.74384 12.8012 8.16288C13.1664 6.5706 14.5939 5.3789 16.2954 5.3789ZM9.94571 23.0954C9.81339 22.3749 9.14562 21.8511 8.42706 21.9046C8.35802 21.9095 8.28644 21.9036 8.21476 21.8866C7.90529 21.8133 7.67179 21.4773 7.67179 21.1049V20.5526C7.67179 20.1784 7.92365 19.841 8.24513 19.7846C8.51535 19.7371 8.77491 19.8365 8.93888 20.0505C9.07531 20.2284 9.25724 20.3556 9.46544 20.4186C9.76954 20.5103 10.1051 20.4565 10.3629 20.2744C10.9581 19.8543 11.4627 19.3213 11.8625 18.6904C12.079 18.3487 11.9776 17.8963 11.6359 17.6797C11.2942 17.4632 10.8418 17.5646 10.6252 17.9062C10.3973 18.2659 10.1246 18.5819 9.81183 18.8492C9.47765 18.555 9.06222 18.3725 8.62169 18.3225C8.46945 17.7325 8.39132 17.1288 8.39132 16.5214C8.39132 12.3616 11.937 8.97733 16.2952 8.97733C20.6534 8.97733 24.1991 12.3616 24.1991 16.5214C24.1991 17.128 24.1213 17.7307 23.9694 18.32C23.7542 18.3353 23.5341 18.3711 23.3325 18.4247L22.7399 17.9374C22.4565 17.7045 22.1012 17.5879 21.7391 17.6093C21.0792 17.6482 19.3319 17.694 17.3612 17.2782C14.9258 16.7644 13.0602 15.749 11.8161 14.2601C11.5567 13.9497 11.0948 13.9084 10.7845 14.1678C10.474 14.4271 10.4327 14.889 10.6921 15.1994C12.152 16.9466 14.294 18.1282 17.0589 18.7115C19.1918 19.1614 21.0862 19.1144 21.8138 19.0722L22.727 19.8232C22.9636 20.0176 23.2958 20.0447 23.5603 19.8907C23.6928 19.8166 24.1438 19.746 24.3435 19.7859C24.6715 19.8511 24.9188 20.177 24.9188 20.544V21.1049C24.9188 21.4772 24.6854 21.8132 24.3759 21.8865C24.3042 21.9035 24.2329 21.9093 24.1638 21.9045C23.4449 21.8521 22.7773 22.3746 22.6449 23.0952C22.0821 26.1594 19.4117 28.3835 16.2952 28.3835C13.1789 28.3836 10.5085 26.1595 9.94571 23.0954ZM16.2954 36.7926C13.9221 36.7926 11.8253 35.2765 11.0651 33.0611L12.0893 32.5915C12.9034 32.2182 13.4295 31.3982 13.4295 30.5025V29.3111C14.3225 29.6579 15.2896 29.8484 16.2955 29.8484C17.3014 29.8484 18.2685 29.6579 19.1616 29.3111V30.5025C19.1616 31.3982 19.6877 32.2181 20.5018 32.5915L21.5266 33.0614C20.7669 35.2793 18.6763 36.7926 16.2954 36.7926Z" fill="black"/>
<path d="M35.8367 16.9001C38.5757 16.0934 40.1975 13.3554 39.6089 10.5313C39.181 8.47799 37.5139 6.8109 35.4606 6.38297C33.823 6.04176 32.1523 6.4404 30.8773 7.47702C29.6023 8.51363 28.871 10.0498 28.871 11.6915C28.871 12.096 29.199 12.4239 29.6035 12.4239C30.0079 12.4239 30.3359 12.096 30.3359 11.6915C30.3359 10.4926 30.8701 9.37076 31.8014 8.61354C32.7327 7.85631 33.9576 7.56598 35.1617 7.81705C36.6531 8.12789 37.864 9.33883 38.1748 10.8302C38.6063 12.9004 37.4231 14.9059 35.4227 15.4951C34.3133 15.8218 33.5679 16.7842 33.5679 17.8898V17.954C33.5679 18.3585 33.8958 18.6865 34.3003 18.6865C34.7048 18.6865 35.0327 18.3585 35.0327 17.954V17.8898C35.0328 17.4395 35.3559 17.0418 35.8367 16.9001Z" fill="white"/>
<path d="M34.3081 20.3535H34.3003C33.8958 20.3535 33.5718 20.6814 33.5718 21.0859C33.5718 21.4904 33.9036 21.8184 34.3081 21.8184C34.7126 21.8184 35.0405 21.4904 35.0405 21.0859C35.0405 20.6814 34.7126 20.3535 34.3081 20.3535Z" fill="white"/>
</svg>
