<svg width="50" height="50" viewBox="0 0 50 50" fill="none" xmlns="http://www.w3.org/2000/svg">
<path d="M17.9688 30.4688V21.875C17.9687 21.6678 17.8864 21.4691 17.7399 21.3226C17.5934 21.1761 17.3947 21.0938 17.1875 21.0938H14.0625C13.8553 21.0938 13.6566 21.1761 13.5101 21.3226C13.3636 21.4691 13.2813 21.6678 13.2812 21.875V30.4688H14.8438V22.6562H16.4062V30.4688H17.9688Z" fill="#176F58"/>
<path d="M30.4688 33.5938V22.6562C30.4687 22.4491 30.3864 22.2503 30.2399 22.1038C30.0934 21.9573 29.8947 21.875 29.6875 21.875H26.5625C26.3553 21.875 26.1566 21.9573 26.0101 22.1038C25.8636 22.2503 25.7813 22.4491 25.7812 22.6562V33.5938H27.3438V23.4375H28.9062V33.5938H30.4688Z" fill="#176F58"/>
<path d="M24.2188 33.5938V19.5312C24.2187 19.3241 24.1364 19.1253 23.9899 18.9788C23.8434 18.8323 23.6447 18.75 23.4375 18.75H20.3125C20.1053 18.75 19.9066 18.8323 19.7601 18.9788C19.6136 19.1253 19.5313 19.3241 19.5312 19.5312V32.0312H21.0938V20.3125H22.6562V33.5938H24.2188Z" fill="#176F58"/>
<path d="M36.7188 27.3438V19.5312C36.7187 19.3241 36.6364 19.1253 36.4899 18.9788C36.3434 18.8323 36.1447 18.75 35.9375 18.75H32.8125C32.6053 18.75 32.4066 18.8323 32.2601 18.9788C32.1136 19.1253 32.0313 19.3241 32.0312 19.5312V28.125H33.5938V20.3125H35.1562V27.3438H36.7188Z" fill="#176F58"/>
<path d="M42.9688 26.5625V14.8438C42.9687 14.6366 42.8864 14.4378 42.7399 14.2913C42.5934 14.1448 42.3947 14.0625 42.1875 14.0625H39.0625C38.8553 14.0625 38.6566 14.1448 38.5101 14.2913C38.3636 14.4378 38.2813 14.6366 38.2812 14.8438V26.5625H39.8438V15.625H41.4062V26.5625H42.9688Z" fill="#176F58"/>
<path d="M13.51 19.3024C13.6565 19.4489 13.8553 19.5312 14.0625 19.5312C14.2697 19.5312 14.4684 19.4489 14.6149 19.3024L21.0639 12.8534L27.5443 20.0539C27.6152 20.1327 27.7015 20.1963 27.7978 20.2407C27.8941 20.2851 27.9984 20.3094 28.1045 20.3122C28.1113 20.3124 28.1181 20.3125 28.125 20.3125C28.3322 20.3125 28.5309 20.2302 28.6774 20.0837L39.0625 9.69863V11.7188C39.0625 11.9259 39.1448 12.1247 39.2913 12.2712C39.4378 12.4177 39.6365 12.5 39.8437 12.5H42.9687C43.1759 12.5 43.3746 12.4177 43.5211 12.2712C43.6677 12.1247 43.75 11.9259 43.75 11.7188V2.34375C43.75 2.13655 43.6677 1.93784 43.5211 1.79133C43.3746 1.64481 43.1759 1.5625 42.9687 1.5625H33.5937C33.3865 1.5625 33.1878 1.64481 33.0413 1.79133C32.8948 1.93784 32.8125 2.13655 32.8125 2.34375V5.46875C32.8125 5.67595 32.8948 5.87466 33.0413 6.02117C33.1878 6.16769 33.3865 6.25 33.5937 6.25H35.6139L28.1548 13.7091L21.6744 6.50864C21.6035 6.42981 21.5172 6.36625 21.4209 6.32183C21.3246 6.27742 21.2203 6.25308 21.1142 6.25029C21.0082 6.2475 20.9027 6.26632 20.8042 6.30562C20.7057 6.34491 20.6162 6.40384 20.5413 6.47883L11.1663 15.8538C11.0197 16.0003 10.9374 16.1991 10.9374 16.4062C10.9374 16.6134 11.0197 16.8122 11.1663 16.9587L13.51 19.3024ZM21.0639 8.16593L27.5443 15.3664C27.6152 15.4452 27.7015 15.5088 27.7978 15.5532C27.8941 15.5976 27.9984 15.6219 28.1045 15.6247C28.2105 15.6275 28.3159 15.6087 28.4145 15.5694C28.513 15.5301 28.6024 15.4712 28.6774 15.3962L38.0524 6.02117C38.1617 5.9119 38.2361 5.77269 38.2662 5.62115C38.2963 5.4696 38.2808 5.31253 38.2217 5.16978C38.1626 5.02704 38.0625 4.90503 37.934 4.81918C37.8055 4.73334 37.6545 4.68751 37.5 4.6875H34.375V3.125H42.1875V10.9375H40.625V7.8125C40.625 7.65798 40.5792 7.50693 40.4933 7.37845C40.4075 7.24997 40.2854 7.14983 40.1427 7.0907C39.9999 7.03157 39.8428 7.0161 39.6913 7.04625C39.5397 7.0764 39.4005 7.15082 39.2913 7.26008L28.1548 18.3966L21.6744 11.1961C21.6035 11.1173 21.5172 11.0537 21.4209 11.0093C21.3246 10.9649 21.2202 10.9406 21.1142 10.9378C21.1074 10.9376 21.1006 10.9375 21.0937 10.9375C20.8865 10.9375 20.6878 11.0198 20.5412 11.1663L14.0625 17.6451L12.8235 16.4062L21.0639 8.16593Z" fill="#176F58"/>
<path d="M8.59375 47.6559V46.0934H10.9375C11.1447 46.0934 11.3434 46.0111 11.4899 45.8646C11.6364 45.718 11.7187 45.5193 11.7188 45.3121V43.2653C15.4492 46.6896 20.3581 48.5408 25.4207 48.4325C30.4833 48.3242 35.3086 46.2649 38.8892 42.6842L47.4275 34.1462C47.9437 33.63 48.2534 32.9429 48.298 32.2142C48.3427 31.4855 48.1194 30.7657 47.6701 30.1903C47.2208 29.6149 46.5766 29.2237 45.8588 29.0903C45.1411 28.957 44.3993 29.0908 43.7734 29.4665C43.5067 29.0537 43.144 28.7116 42.7164 28.4695C42.2887 28.2273 41.8088 28.0923 41.3176 28.0759C40.8264 28.0595 40.3386 28.1623 39.8958 28.3754C39.4529 28.5886 39.0683 28.9057 38.7747 29.2998L38.4434 29.7442C38.2741 29.6143 38.0928 29.5008 37.9019 29.4052C37.4977 29.2031 37.0569 29.0848 36.6059 29.0574C36.1549 29.0299 35.7029 29.0939 35.2773 29.2455C34.8516 29.3971 34.461 29.6332 34.1288 29.9396C33.7967 30.2459 33.5299 30.6163 33.3445 31.0283L31.375 35.4048C30.9625 35.2402 30.5223 35.1557 30.0781 35.1559H20.6361L19.3025 33.8222C18.3238 32.8463 17.052 32.2183 15.6821 32.0346C14.3123 31.8509 12.92 32.1216 11.7188 32.8053V32.0309C11.7187 31.8237 11.6364 31.625 11.4899 31.4785C11.3434 31.3319 11.1447 31.2496 10.9375 31.2496H8.59375V30.4684C8.59375 30.2612 8.51144 30.0625 8.36492 29.916C8.21841 29.7694 8.0197 29.6871 7.8125 29.6871H1.5625V31.2496H7.03125V46.8746H1.5625V48.4371H7.8125C8.0197 48.4371 8.21841 48.3548 8.36492 48.2083C8.51144 48.0618 8.59375 47.8631 8.59375 47.6559V47.6559ZM41.9792 29.8483C42.2462 30.0087 42.4556 30.2493 42.5777 30.5358L36.3789 36.7346C35.5492 37.5655 34.6124 38.2822 33.5934 38.8656L40.0274 30.2336C40.2465 29.9381 40.5679 29.7348 40.9288 29.6635C41.2897 29.5923 41.6643 29.6581 41.9792 29.8483V29.8483ZM34.7692 31.6695C34.8683 31.4494 35.0108 31.2517 35.1881 31.0881C35.3655 30.9245 35.5741 30.7984 35.8014 30.7175C36.0287 30.6365 36.2701 30.6023 36.5109 30.617C36.7518 30.6316 36.9872 30.6948 37.203 30.8027C37.3114 30.8572 37.414 30.9224 37.5093 30.9975L33.1115 36.8976C32.9885 36.6876 32.8442 36.4909 32.6808 36.3105L34.7692 31.6695ZM18.1975 34.927L19.76 36.4895C19.9066 36.6361 20.1053 36.7184 20.3125 36.7184H30.0781C30.5961 36.7184 31.0929 36.9242 31.4592 37.2904C31.8255 37.6567 32.0312 38.1535 32.0312 38.6715C32.0312 39.1895 31.8255 39.6863 31.4592 40.0526C31.0929 40.4189 30.5961 40.6246 30.0781 40.6246H20.3125V42.1871H30.0781C30.5615 42.1873 31.0398 42.0874 31.4828 41.8939C31.9257 41.7004 32.3239 41.4173 32.6523 41.0625C34.4604 40.3188 36.1027 39.2233 37.4838 37.8395L44.3024 31.0209C44.5703 30.753 44.9337 30.6025 45.3126 30.6025C45.6915 30.6025 46.0549 30.753 46.3228 31.0209C46.5907 31.2889 46.7412 31.6523 46.7412 32.0312C46.7412 32.4101 46.5907 32.7734 46.3227 33.0413L37.7843 41.5794C34.3936 44.9699 29.795 46.8747 24.9999 46.8746C20.2049 46.8746 15.6062 44.9697 12.2156 41.5791L11.7188 41.0822V34.7144C12.6246 33.9223 13.7974 33.5038 15.0001 33.5432C16.2027 33.5827 17.3456 34.0773 18.1975 34.927V34.927ZM10.1562 32.8121V44.5309H8.59375V32.8121H10.1562Z" fill="#176F58"/>
</svg>
