<svg width="50" height="50" viewBox="0 0 50 50" fill="none" xmlns="http://www.w3.org/2000/svg">
<path d="M45.357 4.94336H4.64311C3.69603 4.94336 2.92827 5.71112 2.92827 6.6582V41.0449C2.92827 41.992 3.69603 42.7598 4.64311 42.7598H45.357C46.3041 42.7598 47.0718 41.992 47.0718 41.0449V6.6582C47.0718 5.71112 46.3041 4.94336 45.357 4.94336Z" fill="#8CD157"/>
<path d="M6.53413 41.0449V6.6582C6.53413 6.43301 6.57848 6.21002 6.66466 6.00196C6.75084 5.79391 6.87716 5.60486 7.03639 5.44563C7.35799 5.12403 7.79417 4.94336 8.24897 4.94336H4.64311C4.18831 4.94336 3.75213 5.12403 3.43053 5.44563C3.10894 5.76722 2.92827 6.2034 2.92827 6.6582V41.0449C2.92827 41.4997 3.10894 41.9359 3.43053 42.2575C3.75213 42.5791 4.18831 42.7598 4.64311 42.7598H8.24897C7.79417 42.7598 7.35799 42.5791 7.03639 42.2575C6.7148 41.9359 6.53413 41.4997 6.53413 41.0449V41.0449Z" fill="#B9E295"/>
<path d="M43.4658 41.0449V6.6582C43.4658 6.43301 43.4215 6.21002 43.3353 6.00196C43.2491 5.79391 43.1228 5.60486 42.9635 5.44563C42.8043 5.28639 42.6153 5.16007 42.4072 5.07389C42.1991 4.98772 41.9762 4.94336 41.751 4.94336H45.3568C45.582 4.94336 45.805 4.98772 46.0131 5.07389C46.2211 5.16007 46.4102 5.28639 46.5694 5.44563C46.7286 5.60486 46.855 5.79391 46.9411 6.00196C47.0273 6.21002 47.0717 6.43301 47.0717 6.6582V41.0449C47.0717 41.4997 46.891 41.9359 46.5694 42.2575C46.2478 42.5791 45.8116 42.7598 45.3568 42.7598H41.751C42.2058 42.7598 42.6419 42.5791 42.9635 42.2575C43.2851 41.9359 43.4658 41.4997 43.4658 41.0449V41.0449Z" fill="#B9E295"/>
<path d="M47.0716 6.6582C47.0716 6.2034 46.891 5.76722 46.5694 5.44563C46.2478 5.12403 45.8116 4.94336 45.3568 4.94336H4.64311C4.18831 4.94336 3.75213 5.12403 3.43053 5.44563C3.10894 5.76722 2.92827 6.2034 2.92827 6.6582V13.2445H47.0716V6.6582Z" fill="#016951"/>
<path d="M8.25639 4.94336H4.64311C4.18831 4.94336 3.75213 5.12403 3.43053 5.44563C3.10894 5.76722 2.92827 6.2034 2.92827 6.6582V13.2445H6.54155V6.6582C6.54155 6.2034 6.72222 5.76722 7.04382 5.44563C7.36541 5.12403 7.80159 4.94336 8.25639 4.94336V4.94336Z" fill="#2A7D6B"/>
<path d="M41.7435 4.94336H45.3568C45.8116 4.94336 46.2478 5.12403 46.5694 5.44563C46.891 5.76722 47.0716 6.2034 47.0716 6.6582V13.2445H43.4584V6.6582C43.4584 6.2034 43.2777 5.76722 42.9561 5.44563C42.6345 5.12403 42.1983 4.94336 41.7435 4.94336V4.94336Z" fill="#2A7D6B"/>
<path d="M8.336 10.4781C9.10014 10.4781 9.71959 9.85867 9.71959 9.09453C9.71959 8.33039 9.10014 7.71094 8.336 7.71094C7.57186 7.71094 6.95241 8.33039 6.95241 9.09453C6.95241 9.85867 7.57186 10.4781 8.336 10.4781Z" fill="#72C730"/>
<path d="M13.6648 10.4781C14.429 10.4781 15.0484 9.85867 15.0484 9.09453C15.0484 8.33039 14.429 7.71094 13.6648 7.71094C12.9007 7.71094 12.2812 8.33039 12.2812 9.09453C12.2812 9.85867 12.9007 10.4781 13.6648 10.4781Z" fill="#72C730"/>
<path d="M18.9939 10.4781C19.758 10.4781 20.3775 9.85867 20.3775 9.09453C20.3775 8.33039 19.758 7.71094 18.9939 7.71094C18.2298 7.71094 17.6103 8.33039 17.6103 9.09453C17.6103 9.85867 18.2298 10.4781 18.9939 10.4781Z" fill="#72C730"/>
<path d="M41.9935 8.13086H24.4873C23.9051 8.13086 23.4332 8.6028 23.4332 9.18496C23.4332 9.76713 23.9051 10.2391 24.4873 10.2391H41.9935C42.5757 10.2391 43.0476 9.76713 43.0476 9.18496C43.0476 8.6028 42.5757 8.13086 41.9935 8.13086Z" fill="#72C730"/>
<path d="M9.03969 36.6541H16.8211C16.8202 35.4005 17.1079 34.1635 17.6621 33.039C18.2162 31.9145 19.0219 30.9327 20.0166 30.1697L15.278 24.0059C13.3377 25.4944 11.7659 27.4094 10.6842 29.6027C9.60243 31.7959 9.03976 34.2086 9.03969 36.6541V36.6541Z" fill="#F8AF23"/>
<path d="M34.7221 24.0059L29.9836 30.1705C30.9784 30.9335 31.784 31.9152 32.3382 33.0397C32.8923 34.1642 33.1801 35.4013 33.1791 36.6549H40.9606C40.9606 34.2092 40.3979 31.7964 39.3162 29.603C38.2344 27.4096 36.6625 25.4945 34.7221 24.0059Z" fill="#F46275"/>
<path d="M25 20.6934C21.4819 20.6899 18.0622 21.8549 15.2779 24.0055L20.0166 30.1703C21.4441 29.0688 23.1969 28.4724 25 28.4746V20.6934Z" fill="#9E9E9E"/>
<path d="M25 20.6934V28.4746C26.8031 28.4723 28.556 29.0687 29.9836 30.1701L34.7221 24.0055C31.9378 21.8549 28.5181 20.6899 25 20.6934V20.6934Z" fill="#F46275"/>
<path d="M25 40.3242C26.0382 40.3242 26.8799 39.4826 26.8799 38.4443C26.8799 37.4061 26.0382 36.5645 25 36.5645C23.9618 36.5645 23.1201 37.4061 23.1201 38.4443C23.1201 39.4826 23.9618 40.3242 25 40.3242Z" fill="#F8AF23"/>
<path d="M10.166 23.5676C12.575 23.5676 14.5279 21.6147 14.5279 19.2057C14.5279 16.7966 12.575 14.8438 10.166 14.8438C7.75696 14.8438 5.80406 16.7966 5.80406 19.2057C5.80406 21.6147 7.75696 23.5676 10.166 23.5676Z" fill="#D7D7D7"/>
<path d="M8.36751 19.0676C8.76533 19.0676 9.08783 18.7451 9.08783 18.3473C9.08783 17.9494 8.76533 17.627 8.36751 17.627C7.9697 17.627 7.6472 17.9494 7.6472 18.3473C7.6472 18.7451 7.9697 19.0676 8.36751 19.0676Z" fill="#3F3679"/>
<path d="M11.9645 19.0676C12.3623 19.0676 12.6848 18.7451 12.6848 18.3473C12.6848 17.9494 12.3623 17.627 11.9645 17.627C11.5667 17.627 11.2442 17.9494 11.2442 18.3473C11.2442 18.7451 11.5667 19.0676 11.9645 19.0676Z" fill="#3F3679"/>
<path d="M39.834 23.5676C42.2431 23.5676 44.196 21.6147 44.196 19.2057C44.196 16.7966 42.2431 14.8438 39.834 14.8438C37.425 14.8438 35.4721 16.7966 35.4721 19.2057C35.4721 21.6147 37.425 23.5676 39.834 23.5676Z" fill="white"/>
<path d="M38.0356 19.0656C38.4334 19.0656 38.7559 18.7431 38.7559 18.3453C38.7559 17.9475 38.4334 17.625 38.0356 17.625C37.6378 17.625 37.3153 17.9475 37.3153 18.3453C37.3153 18.7431 37.6378 19.0656 38.0356 19.0656Z" fill="#3F3679"/>
<path d="M41.6325 19.0656C42.0303 19.0656 42.3528 18.7431 42.3528 18.3453C42.3528 17.9475 42.0303 17.625 41.6325 17.625C41.2346 17.625 40.9121 17.9475 40.9121 18.3453C40.9121 18.7431 41.2346 19.0656 41.6325 19.0656Z" fill="#3F3679"/>
<path d="M8.33587 7.41797C8.00427 7.41797 7.68013 7.5163 7.40442 7.70052C7.12871 7.88474 6.91382 8.14659 6.78692 8.45294C6.66003 8.75929 6.62683 9.09639 6.69152 9.42161C6.75621 9.74683 6.91588 10.0456 7.15036 10.28C7.38483 10.5145 7.68356 10.6742 8.00878 10.7389C8.33401 10.8036 8.67111 10.7704 8.97746 10.6435C9.28381 10.5166 9.54565 10.3017 9.72988 10.026C9.9141 9.75027 10.0124 9.42612 10.0124 9.09453C10.012 8.65002 9.83518 8.22385 9.52086 7.90954C9.20654 7.59522 8.78037 7.41843 8.33587 7.41797V7.41797ZM8.33587 10.185C8.12015 10.185 7.90928 10.121 7.72993 10.0011C7.55057 9.88129 7.41078 9.71095 7.32824 9.51165C7.2457 9.31236 7.22411 9.09306 7.26621 8.88149C7.30831 8.66993 7.4122 8.4756 7.56475 8.32308C7.71729 8.17056 7.91164 8.0667 8.12321 8.02464C8.33479 7.98258 8.55408 8.00421 8.75336 8.08679C8.95265 8.16936 9.12297 8.30918 9.24278 8.48856C9.3626 8.66794 9.42653 8.87882 9.42649 9.09453C9.42613 9.38365 9.3111 9.66083 9.10664 9.86525C8.90218 10.0697 8.62499 10.1846 8.33587 10.185V10.185Z" fill="#3F3679"/>
<path d="M13.6648 7.41797C13.3332 7.41793 13.009 7.51623 12.7333 7.70043C12.4576 7.88462 12.2426 8.14645 12.1157 8.4528C11.9888 8.75915 11.9556 9.09626 12.0202 9.42149C12.0849 9.74673 12.2446 10.0455 12.479 10.28C12.7135 10.5145 13.0122 10.6742 13.3375 10.7389C13.6627 10.8036 13.9998 10.7704 14.3062 10.6435C14.6125 10.5166 14.8744 10.3017 15.0586 10.026C15.2428 9.75029 15.3412 9.42613 15.3412 9.09453C15.3407 8.65006 15.1639 8.22392 14.8497 7.90961C14.5354 7.5953 14.1093 7.41849 13.6648 7.41797V7.41797ZM13.6648 10.185C13.4491 10.185 13.2382 10.1211 13.0588 10.0012C12.8794 9.88141 12.7396 9.71108 12.657 9.51179C12.5745 9.3125 12.5528 9.09319 12.5949 8.88161C12.637 8.67003 12.7409 8.47569 12.8934 8.32315C13.046 8.17061 13.2403 8.06673 13.4519 8.02466C13.6635 7.98258 13.8828 8.0042 14.0821 8.08677C14.2814 8.16934 14.4517 8.30916 14.5715 8.48854C14.6913 8.66792 14.7553 8.87881 14.7552 9.09453C14.7549 9.38362 14.6399 9.66076 14.4355 9.86518C14.231 10.0696 13.9539 10.1846 13.6648 10.185V10.185Z" fill="#3F3679"/>
<path d="M18.9939 7.41797C18.6623 7.41793 18.3381 7.51623 18.0624 7.70043C17.7866 7.88462 17.5717 8.14645 17.4448 8.4528C17.3179 8.75915 17.2846 9.09626 17.3493 9.42149C17.414 9.74673 17.5736 10.0455 17.8081 10.28C18.0426 10.5145 18.3413 10.6742 18.6665 10.7389C18.9918 10.8036 19.3289 10.7704 19.6352 10.6435C19.9416 10.5166 20.2035 10.3017 20.3877 10.026C20.5719 9.75029 20.6703 9.42613 20.6703 9.09453C20.6698 8.65006 20.493 8.22392 20.1788 7.90961C19.8645 7.5953 19.4384 7.41849 18.9939 7.41797V7.41797ZM18.9939 10.185C18.7782 10.185 18.5673 10.1211 18.3879 10.0012C18.2085 9.88141 18.0687 9.71108 17.9861 9.51179C17.9035 9.3125 17.8819 9.09319 17.924 8.88161C17.9661 8.67003 18.07 8.47569 18.2225 8.32315C18.375 8.17061 18.5694 8.06673 18.781 8.02466C18.9925 7.98258 19.2118 8.0042 19.4111 8.08677C19.6104 8.16934 19.7808 8.30916 19.9006 8.48854C20.0204 8.66792 20.0844 8.87881 20.0843 9.09453C20.084 9.38362 19.969 9.66076 19.7645 9.86518C19.5601 10.0696 19.283 10.1846 18.9939 10.185V10.185Z" fill="#3F3679"/>
<path d="M41.9935 7.83789H24.4873C24.1369 7.84823 23.8043 7.99468 23.5602 8.24618C23.316 8.49767 23.1794 8.83442 23.1794 9.18496C23.1794 9.5355 23.316 9.87225 23.5602 10.1237C23.8043 10.3752 24.1369 10.5217 24.4873 10.532H41.9935C42.3439 10.5217 42.6765 10.3752 42.9207 10.1237C43.1649 9.87225 43.3015 9.5355 43.3015 9.18496C43.3015 8.83442 43.1649 8.49767 42.9207 8.24618C42.6765 7.99468 42.3439 7.84823 41.9935 7.83789ZM41.9935 9.94609H24.4873C24.2906 9.93837 24.1045 9.85481 23.9681 9.71291C23.8317 9.57101 23.7555 9.38181 23.7555 9.18496C23.7555 8.98811 23.8317 8.79891 23.9681 8.65701C24.1045 8.51512 24.2906 8.43155 24.4873 8.42383H41.9935C42.1902 8.43155 42.3763 8.51512 42.5128 8.65701C42.6492 8.79891 42.7254 8.98811 42.7254 9.18496C42.7254 9.38181 42.6492 9.57101 42.5128 9.71291C42.3763 9.85481 42.1902 9.93837 41.9935 9.94609V9.94609Z" fill="#3F3679"/>
<path d="M5.05663 44.7617H1.44334C1.36564 44.7617 1.29113 44.7926 1.23618 44.8475C1.18124 44.9025 1.15038 44.977 1.15038 45.0547C1.15038 45.1324 1.18124 45.2069 1.23618 45.2618C1.29113 45.3168 1.36564 45.3477 1.44334 45.3477H5.05663C5.13433 45.3477 5.20884 45.3168 5.26379 45.2618C5.31873 45.2069 5.34959 45.1324 5.34959 45.0547C5.34959 44.977 5.31873 44.9025 5.26379 44.8475C5.20884 44.7926 5.13433 44.7617 5.05663 44.7617V44.7617Z" fill="#3F3679"/>
<path d="M48.5567 44.7617H44.9434C44.8657 44.7617 44.7912 44.7926 44.7362 44.8475C44.6813 44.9025 44.6504 44.977 44.6504 45.0547C44.6504 45.1324 44.6813 45.2069 44.7362 45.2618C44.7912 45.3168 44.8657 45.3477 44.9434 45.3477H48.5567C48.6344 45.3477 48.7089 45.3168 48.7638 45.2618C48.8188 45.2069 48.8496 45.1324 48.8496 45.0547C48.8496 44.977 48.8188 44.9025 48.7638 44.8475C48.7089 44.7926 48.6344 44.7617 48.5567 44.7617Z" fill="#3F3679"/>
<path d="M42.058 44.7617H7.94203C7.86433 44.7617 7.78981 44.7926 7.73487 44.8475C7.67993 44.9025 7.64906 44.977 7.64906 45.0547C7.64906 45.1324 7.67993 45.2069 7.73487 45.2618C7.78981 45.3168 7.86433 45.3477 7.94203 45.3477H42.058C42.1357 45.3477 42.2103 45.3168 42.2652 45.2618C42.3201 45.2069 42.351 45.1324 42.351 45.0547C42.351 44.977 42.3201 44.9025 42.2652 44.8475C42.2103 44.7926 42.1357 44.7617 42.058 44.7617Z" fill="#3F3679"/>
<path d="M1.44334 43.0527H48.5566C48.6343 43.0527 48.7088 43.0219 48.7638 42.9669C48.8187 42.912 48.8496 42.8375 48.8496 42.7598C48.8496 42.6821 48.8187 42.6075 48.7638 42.5526C48.7088 42.4977 48.6343 42.4668 48.5566 42.4668H46.7728C46.9605 42.2806 47.1094 42.0591 47.211 41.8151C47.3125 41.571 47.3648 41.3093 47.3646 41.0449V6.6582C47.364 6.12589 47.1523 5.61555 46.7759 5.23915C46.3995 4.86275 45.8891 4.65101 45.3568 4.65039H4.64315C4.11083 4.65101 3.6005 4.86275 3.2241 5.23915C2.84769 5.61555 2.63596 6.12589 2.63534 6.6582V41.0449C2.6352 41.3093 2.68743 41.571 2.789 41.8151C2.89058 42.0591 3.03949 42.2806 3.22713 42.4668H1.44334C1.36564 42.4668 1.29113 42.4977 1.23618 42.5526C1.18124 42.6075 1.15038 42.6821 1.15038 42.7598C1.15038 42.8375 1.18124 42.912 1.23618 42.9669C1.29113 43.0219 1.36564 43.0527 1.44334 43.0527V43.0527ZM3.22069 6.6582C3.2211 6.28123 3.37104 5.91981 3.6376 5.65324C3.90417 5.38668 4.26559 5.23674 4.64256 5.23633H45.3568C45.7338 5.23674 46.0952 5.38668 46.3618 5.65324C46.6283 5.91981 46.7783 6.28123 46.7787 6.6582V12.9516H3.22127L3.22069 6.6582ZM3.22069 41.0449V13.5375H46.7787V41.0449C46.7782 41.4219 46.6283 41.7833 46.3617 42.0498C46.0952 42.3164 45.7338 42.4663 45.3568 42.4668H4.64315C4.26619 42.4663 3.9048 42.3164 3.63825 42.0498C3.37169 41.7833 3.22174 41.4219 3.22127 41.0449H3.22069Z" fill="#3F3679"/>
<path d="M34.901 23.7735C32.0685 21.5777 28.584 20.3906 25.0001 20.4005C20.6909 20.4053 16.5597 22.1192 13.5127 25.1662C10.4656 28.2132 8.75165 32.3444 8.74673 36.6536C8.74673 36.7313 8.7776 36.8058 8.83254 36.8607C8.88749 36.9157 8.962 36.9465 9.0397 36.9465H16.821C16.8987 36.9465 16.9732 36.9157 17.0281 36.8607C17.0831 36.8058 17.1139 36.7313 17.1139 36.6536C17.1136 35.1811 17.5257 33.738 18.3034 32.4877C19.0811 31.2374 20.1934 30.2299 21.5143 29.5792C22.8352 28.9286 24.3119 28.6608 25.7771 28.8063C27.2424 28.9518 28.6376 29.5047 29.8047 30.4024C30.3231 30.8018 30.7904 31.2634 31.1961 31.7768L26.2809 36.692C25.8358 36.3669 25.2838 36.2229 24.7366 36.2893C24.1894 36.3557 23.6878 36.6274 23.3333 37.0496C22.9789 37.4717 22.798 38.0127 22.8272 38.5631C22.8565 39.1136 23.0938 39.6324 23.491 40.0145C23.8882 40.3967 24.4158 40.6137 24.9669 40.6217C25.5181 40.6297 26.0517 40.428 26.4598 40.0575C26.868 39.687 27.1201 39.1753 27.1653 38.6259C27.2105 38.0765 27.0453 37.5305 26.7032 37.0983L31.5469 32.2545C32.4235 33.5536 32.8902 35.0857 32.8868 36.6528C32.8868 36.7305 32.9176 36.805 32.9726 36.8599C33.0275 36.9149 33.102 36.9458 33.1797 36.9458H40.961C41.0387 36.9458 41.1132 36.9149 41.1682 36.8599C41.2231 36.805 41.254 36.7305 41.254 36.6528C41.2598 34.1615 40.6894 31.7026 39.5873 29.4684C38.4852 27.2341 36.8813 25.2851 34.901 23.7735V23.7735ZM26.587 38.4434C26.5879 38.7974 26.4709 39.1416 26.2543 39.4215C26.0377 39.7014 25.7339 39.9012 25.391 39.9891C25.0482 40.077 24.6858 40.0481 24.3612 39.907C24.0366 39.7658 23.7683 39.5204 23.5988 39.2097C23.4293 38.8989 23.3683 38.5405 23.4254 38.1912C23.4824 37.8419 23.6544 37.5216 23.9139 37.2809C24.1735 37.0403 24.5059 36.893 24.8585 36.8625C25.2112 36.832 25.5639 36.9199 25.861 37.1124L24.793 38.1803C24.765 38.2074 24.7427 38.2397 24.7274 38.2754C24.712 38.3112 24.7039 38.3496 24.7036 38.3885C24.7033 38.4274 24.7107 38.466 24.7254 38.502C24.7401 38.538 24.7619 38.5707 24.7894 38.5982C24.8169 38.6257 24.8496 38.6475 24.8856 38.6622C24.9216 38.6769 24.9602 38.6843 24.9991 38.684C25.038 38.6837 25.0764 38.6756 25.1122 38.6602C25.1479 38.6449 25.1803 38.6226 25.2073 38.5946L26.2854 37.5165C26.4813 37.7858 26.5869 38.1102 26.587 38.4432V38.4434ZM24.7071 28.1866C23.0399 28.239 21.4263 28.7879 20.0731 29.7631L16.0547 24.5356L15.6899 24.061C18.2983 22.1152 21.4533 21.0403 24.7071 20.9889V28.1866ZM16.5331 36.3606H9.33599C9.37341 34.0583 9.92118 31.7929 10.9398 29.7279C11.9584 27.6628 13.4226 25.8495 15.2266 24.4186L19.6094 30.1206C18.6811 30.8809 17.9262 31.8312 17.3956 32.9075C16.865 33.9838 16.5709 35.1612 16.5331 36.3606V36.3606ZM25.293 20.9895C28.5468 21.041 31.7017 22.116 34.31 24.0618L33.7542 24.7844L29.927 29.7633C28.5738 28.7881 26.9602 28.2392 25.293 28.1868V20.9895ZM33.467 36.3606C33.4155 34.7382 32.8951 33.1656 31.9688 31.8327L33.3555 30.446C33.4089 30.3907 33.4384 30.3167 33.4378 30.2399C33.4371 30.1631 33.4063 30.0896 33.352 30.0353C33.2976 29.9809 33.2242 29.9501 33.1473 29.9495C33.0705 29.9488 32.9965 29.9783 32.9413 30.0317L31.6143 31.3586C31.2498 30.9054 30.84 30.4905 30.3913 30.1204L34.7741 24.4184C36.5781 25.8494 38.0421 27.6628 39.0606 29.7278C40.0792 31.7929 40.6268 34.0583 40.6641 36.3606H33.467Z" fill="#3F3679"/>
<path d="M14.8211 19.2055C14.821 18.2848 14.548 17.3849 14.0365 16.6194C13.525 15.854 12.798 15.2574 11.9474 14.9051C11.0969 14.5528 10.1609 14.4606 9.258 14.6402C8.35506 14.8199 7.52566 15.2632 6.87468 15.9142C6.22369 16.5652 5.78036 17.3946 5.60075 18.2975C5.42113 19.2004 5.5133 20.1364 5.86559 20.9869C6.21788 21.8375 6.81448 22.5645 7.57994 23.076C8.3454 23.5875 9.24535 23.8605 10.166 23.8605C11.4002 23.8591 12.5834 23.3683 13.4561 22.4956C14.3288 21.6229 14.8197 20.4396 14.8211 19.2055V19.2055ZM6.09704 19.2055C6.09707 18.4007 6.33575 17.614 6.78287 16.9449C7.23 16.2758 7.86549 15.7543 8.609 15.4464C9.3525 15.1385 10.1706 15.0579 10.9599 15.2149C11.7492 15.372 12.4742 15.7595 13.0432 16.3286C13.6123 16.8976 13.9998 17.6226 14.1568 18.4119C14.3137 19.2012 14.2331 20.0193 13.9252 20.7628C13.6172 21.5063 13.0957 22.1418 12.4265 22.5889C11.7574 23.036 10.9707 23.2746 10.166 23.2746C9.08717 23.2734 8.05291 22.8442 7.2901 22.0814C6.52729 21.3186 6.09822 20.2843 6.09704 19.2055V19.2055Z" fill="#3F3679"/>
<path d="M11.2648 21.9739C11.2859 22.0065 11.3134 22.0346 11.3455 22.0565C11.3776 22.0784 11.4138 22.0937 11.4519 22.1015C11.49 22.1093 11.5293 22.1095 11.5674 22.1019C11.6056 22.0944 11.6419 22.0793 11.6741 22.0576C11.7064 22.0359 11.734 22.008 11.7554 21.9755C11.7768 21.943 11.7915 21.9066 11.7986 21.8684C11.8058 21.8301 11.8052 21.7909 11.797 21.7528C11.7888 21.7148 11.7732 21.6788 11.7509 21.6469C11.5763 21.3868 11.3404 21.1736 11.0641 21.0261C10.7877 20.8785 10.4793 20.8011 10.1661 20.8008C9.85278 20.8004 9.54422 20.8771 9.26751 21.0239C8.99081 21.1708 8.75445 21.3835 8.57923 21.6432C8.55694 21.675 8.54121 21.711 8.53296 21.749C8.5247 21.787 8.52409 21.8262 8.53116 21.8645C8.53822 21.9027 8.55283 21.9391 8.57412 21.9716C8.59541 22.0042 8.62296 22.0321 8.65516 22.0539C8.68737 22.0757 8.72358 22.0908 8.7617 22.0985C8.79981 22.1061 8.83907 22.1061 8.87717 22.0984C8.91528 22.0907 8.95148 22.0755 8.98365 22.0537C9.01583 22.0319 9.04334 22.0039 9.06459 21.9713C9.18609 21.7911 9.35004 21.6435 9.54199 21.5416C9.73395 21.4397 9.94802 21.3865 10.1654 21.3867C10.3827 21.387 10.5967 21.4407 10.7884 21.543C10.9801 21.6454 11.1437 21.7934 11.2648 21.9739V21.9739Z" fill="#3F3679"/>
<path d="M39.834 14.5508C38.9134 14.5508 38.0134 14.8238 37.2479 15.3353C36.4824 15.8468 35.8858 16.5737 35.5335 17.4243C35.1812 18.2749 35.089 19.2108 35.2686 20.1138C35.4482 21.0167 35.8915 21.8462 36.5425 22.4972C37.1935 23.1482 38.0229 23.5915 38.9259 23.7711C39.8289 23.9507 40.7648 23.8585 41.6154 23.5062C42.4659 23.1539 43.1929 22.5573 43.7044 21.7918C44.2159 21.0263 44.4889 20.1263 44.4889 19.2057C44.4874 17.9716 43.9966 16.7884 43.1239 15.9158C42.2513 15.0431 41.0681 14.5522 39.834 14.5508V14.5508ZM39.834 23.2748C39.0293 23.2748 38.2426 23.0362 37.5734 22.5891C36.9043 22.142 36.3828 21.5065 36.0748 20.763C35.7668 20.0195 35.6863 19.2013 35.8433 18.412C36.0003 17.6227 36.3878 16.8977 36.9568 16.3287C37.5259 15.7596 38.2509 15.3721 39.0402 15.2151C39.8295 15.0581 40.6476 15.1387 41.3911 15.4466C42.1346 15.7546 42.7701 16.2761 43.2172 16.9453C43.6643 17.6144 43.903 18.4011 43.903 19.2059C43.9017 20.2846 43.4726 21.3189 42.7098 22.0817C41.947 22.8445 40.9128 23.2736 39.834 23.2748V23.2748Z" fill="#3F3679"/>
<path d="M41.3398 20.8532C41.2755 20.8096 41.1965 20.7933 41.1202 20.808C41.0439 20.8226 40.9765 20.867 40.9329 20.9313C40.8114 21.1115 40.6475 21.2591 40.4555 21.361C40.2636 21.463 40.0495 21.5161 39.8322 21.5159C39.6148 21.5156 39.4009 21.462 39.2092 21.3596C39.0174 21.2572 38.8538 21.1092 38.7327 20.9288C38.6888 20.8657 38.6218 20.8225 38.5463 20.8084C38.4708 20.7943 38.3927 20.8104 38.329 20.8533C38.2652 20.8962 38.2208 20.9624 38.2054 21.0376C38.19 21.1129 38.2048 21.1912 38.2466 21.2557C38.4212 21.5158 38.6571 21.729 38.9334 21.8766C39.2098 22.0241 39.5182 22.1015 39.8315 22.1018C40.1447 22.1022 40.4533 22.0256 40.73 21.8787C41.0067 21.7318 41.2431 21.5191 41.4183 21.2594C41.4617 21.1951 41.4777 21.1162 41.463 21.0401C41.4483 20.9639 41.404 20.8967 41.3398 20.8532V20.8532Z" fill="#3F3679"/>
</svg>
