<svg width="50" height="50" viewBox="0 0 50 50" fill="none" xmlns="http://www.w3.org/2000/svg">
<g clip-path="url(#clip0)">
<path d="M46.7817 30.5175L45.6637 29.6602C44.3814 28.6763 43.5779 27.2528 43.4014 25.6521C43.2259 24.0621 43.7069 22.4548 44.7211 21.2424C44.9806 20.9321 44.9395 20.4702 44.6292 20.2106C44.3189 19.9511 43.857 19.9923 43.5976 20.3025C42.3287 21.8196 41.7265 23.828 41.9454 25.8128C42.1662 27.814 43.17 29.5931 44.7723 30.8225L45.8902 31.6798C46.85 32.4163 47.1179 33.7613 46.5133 34.8087L44.2516 38.7267C43.6468 39.7743 42.3475 40.2152 41.2301 39.7523L39.928 39.2121C37.8034 38.3316 35.4427 38.4861 33.4511 39.636C31.4589 40.7861 30.1443 42.7538 29.8443 45.0345L29.6608 46.4319C29.5028 47.631 28.4717 48.5352 27.2617 48.5352H22.7383C21.5283 48.5352 20.4972 47.631 20.3396 46.4319L20.1559 45.0344C19.856 42.7537 18.5414 40.7861 16.5491 39.636C14.5573 38.4861 12.1966 38.3315 10.0719 39.2122L8.77051 39.7521C7.65264 40.2148 6.35342 39.7743 5.74864 38.7267L3.48692 34.8086C2.88233 33.7613 3.1502 32.4162 4.10977 31.6799L5.22813 30.8223C7.05293 29.4221 8.09942 27.2999 8.09942 25C8.09942 22.7001 7.05284 20.5779 5.22793 19.1775L4.10987 18.3203C3.1501 17.5838 2.88223 16.2388 3.48682 15.1914L5.74854 11.2734C6.35332 10.2258 7.65264 9.78506 8.77002 10.2478L10.0721 10.788C12.1965 11.6685 14.5572 11.5139 16.549 10.3641C18.5412 9.21396 19.8558 7.24629 20.1559 4.96562L20.3394 3.56816C20.4972 2.36904 21.5283 1.46484 22.7383 1.46484H27.2617C28.4717 1.46484 29.5028 2.36904 29.6605 3.56807L29.8442 4.96562C30.1441 7.24629 31.4586 9.21387 33.4509 10.364C35.4427 11.5139 37.8034 11.6684 39.9281 10.7878L41.2295 10.2479C42.3472 9.78486 43.6464 10.2257 44.2514 11.2733L46.513 15.1913C47.107 16.2203 46.8536 17.5541 45.9237 18.2939C45.6072 18.5458 45.5548 19.0065 45.8067 19.3231C46.0586 19.6397 46.5192 19.6921 46.8359 19.4402C48.3286 18.2524 48.7353 16.111 47.7818 14.459L45.52 10.5409C44.549 8.85908 42.4636 8.15137 40.6686 8.89463L39.3671 9.43457C37.6667 10.1392 35.7774 10.0156 34.1833 9.09522C32.5888 8.17471 31.5365 6.5998 31.2965 4.77451L31.1128 3.37695C30.8598 1.45186 29.2041 0 27.2617 0H22.7383C20.7959 0 19.1402 1.45186 18.887 3.37725L18.7035 4.77461C18.4634 6.6 17.4112 8.1748 15.8166 9.09541C14.2227 10.0157 12.3331 10.1395 10.6331 9.43486L9.33106 8.89463C7.53624 8.15146 5.45088 8.85928 4.47998 10.5411L2.21826 14.4591C1.24756 16.1406 1.67735 18.3002 3.21836 19.4826L4.33633 20.3399C5.79678 21.4606 6.63448 23.1593 6.63448 25.0001C6.63448 26.8409 5.79678 28.5396 4.33653 29.6601L3.21817 30.5176C1.67735 31.6999 1.24746 33.8595 2.21826 35.5409L4.47998 39.459C5.45088 41.1408 7.53643 41.8485 9.33145 41.1053L10.6329 40.5653C12.3331 39.8606 14.2226 39.9842 15.8167 40.9047C17.4112 41.8252 18.4635 43.4001 18.7035 45.2254L18.8872 46.6229C19.1402 48.5481 20.7959 50 22.7383 50H27.2617C29.2041 50 30.8598 48.5481 31.113 46.6228L31.2965 45.2254C31.5366 43.4 32.5888 41.8252 34.1834 40.9046C35.7774 39.9843 37.6669 39.8605 39.3669 40.5651L40.6691 41.1054C42.4638 41.8485 44.5491 41.1407 45.5201 39.4589L47.7819 35.5409C48.7526 33.8595 48.3227 31.6999 46.7817 30.5175V30.5175Z" fill="#2A7D6B"/>
<path d="M14.7635 34.5036C14.4878 34.2077 14.0242 34.1913 13.7283 34.467C13.4323 34.7428 13.416 35.2062 13.6917 35.5022C16.5978 38.6212 20.7086 40.4101 24.9697 40.4101C33.4669 40.4101 40.3799 33.4967 40.3799 24.9989C40.3799 16.5012 33.4669 9.58789 24.9697 9.58789C16.4721 9.58789 9.55858 16.5013 9.55858 24.999C9.55858 27.8515 10.3444 30.6383 11.831 33.0582C12.0428 33.4029 12.4938 33.5106 12.8385 33.2989C13.1831 33.0872 13.2909 32.6361 13.0792 32.2915C11.7343 30.1022 11.0234 27.5807 11.0234 24.999C11.0234 17.309 17.2797 11.0527 24.9698 11.0527C32.6593 11.0527 38.9151 17.309 38.9151 24.999C38.9151 32.6891 32.6593 38.9453 24.9698 38.9453C21.1135 38.9453 17.3934 37.3264 14.7635 34.5036V34.5036Z" fill="#2A7D6B"/>
<path d="M20.3098 30.477C19.2622 29.9113 17.9496 30.3035 17.3839 31.3515C17.1098 31.859 17.05 32.4429 17.2151 32.9955C17.3802 33.5481 17.7508 34.0033 18.2584 34.2773C20.0399 35.239 21.334 35.5775 22.6765 35.7011V36.1425C22.6765 37.3331 23.6452 38.3019 24.8358 38.3019C26.0264 38.3019 26.9952 37.3332 26.9952 36.1425V35.5193C30.5154 34.6951 32.4213 32.0289 32.7556 29.641C33.193 26.5173 31.227 23.8429 27.7468 22.8278H27.7469C27.4787 22.7496 27.2296 22.6757 26.9952 22.605V18.6683C27.5183 18.855 27.8226 19.0626 27.8684 19.095C28.3393 19.4279 28.9121 19.5577 29.4802 19.4601C30.0487 19.3625 30.5452 19.0494 30.8782 18.5783C31.5655 17.6061 31.3338 16.2559 30.3616 15.5687C30.0123 15.3216 28.8164 14.5561 26.9951 14.2114V13.8586C26.9951 12.668 26.0263 11.6992 24.8357 11.6992C23.6451 11.6992 22.6764 12.6679 22.6764 13.8586V14.3385C22.645 14.346 22.6136 14.3536 22.5824 14.3613C20.0819 14.9829 18.2113 16.9116 17.8169 19.2749C17.474 21.329 18.3165 23.288 20.0155 24.3876C20.7336 24.8522 21.5879 25.2739 22.6764 25.6994V31.3561C21.907 31.2389 21.2563 30.9879 20.3098 30.477V30.477ZM23.6628 24.5071C22.4447 24.0571 21.5387 23.6283 20.8115 23.1578C19.6104 22.3806 19.0167 20.9851 19.2619 19.5161C19.5602 17.7289 21.0023 16.2636 22.9359 15.7829C23.1279 15.7353 23.3256 15.693 23.5404 15.6538C23.8885 15.5903 24.1414 15.2871 24.1414 14.9333V13.8587C24.1414 13.4758 24.4529 13.1642 24.8358 13.1642C25.2188 13.1642 25.5303 13.4757 25.5303 13.8587V14.8389C25.5303 15.2094 25.807 15.5216 26.175 15.566C28.0643 15.7943 29.2895 16.6047 29.5161 16.7648C29.8287 16.9859 29.9033 17.4201 29.6822 17.7329C29.5751 17.8844 29.4155 17.9851 29.2326 18.0164C29.0499 18.0478 28.8657 18.0061 28.7142 17.899C28.5599 17.7899 27.723 17.234 26.3894 16.9998C26.1763 16.9624 25.9574 17.0211 25.7918 17.1604C25.626 17.2995 25.5303 17.5049 25.5303 17.7213V23.1467C25.5303 23.4673 25.7389 23.7507 26.0451 23.846C26.4321 23.9664 26.8546 24.0935 27.3368 24.2341H27.3369C30.0781 25.0337 31.6358 27.0763 31.3051 29.4379C31.0261 31.4297 29.3221 33.6733 26.144 34.1958C25.7901 34.254 25.5304 34.56 25.5304 34.9186V36.1426C25.5304 36.5255 25.2189 36.8371 24.8359 36.8371C24.453 36.8371 24.1415 36.5256 24.1415 36.1426V35.0162C24.1415 34.6244 23.8333 34.3021 23.4419 34.2845C22.0008 34.2198 20.8045 33.9871 18.9543 32.9884C18.791 32.9003 18.6718 32.7539 18.6186 32.5761C18.5655 32.3983 18.5847 32.2105 18.6729 32.0475C18.7984 31.815 19.0381 31.6828 19.2853 31.6828C19.3967 31.6828 19.5094 31.7096 19.614 31.7661C21.0438 32.5379 21.9919 32.8224 23.3714 32.8937C23.5709 32.9032 23.7679 32.8315 23.9135 32.6933C24.0591 32.555 24.1416 32.363 24.1416 32.1622V25.1943C24.1414 24.8876 23.9504 24.6134 23.6628 24.5071V24.5071Z" fill="#2A7D6B"/>
<path d="M24.1414 17.8516C24.1414 17.6248 24.0364 17.4108 23.857 17.2722C23.6775 17.1334 23.4438 17.0857 23.2247 17.1427C21.5609 17.5752 20.7943 18.7698 20.6318 19.7434C20.4767 20.6715 20.8258 21.5115 21.5658 21.9904C21.5658 21.9904 21.5659 21.9905 21.566 21.9905C21.9845 22.2613 22.4923 22.5243 23.1185 22.7946C23.2116 22.8349 23.3104 22.8546 23.4087 22.8546C23.5498 22.8546 23.6899 22.8139 23.8112 22.7342C24.0171 22.5987 24.1413 22.3687 24.1413 22.1222V17.8516H24.1414ZM22.6765 20.9504C22.5635 20.8866 22.4586 20.8233 22.3618 20.7608C22.0524 20.5605 22.036 20.2283 22.0766 19.9848C22.1296 19.6671 22.3156 19.3022 22.6765 19.0078V20.9504Z" fill="#2A7D6B"/>
<path d="M25.8142 32.5827C25.9439 32.6833 26.1021 32.7362 26.2629 32.7362C26.3238 32.7362 26.3853 32.7286 26.4455 32.7131C28.335 32.2266 29.7025 30.8654 29.9295 29.2451C30.1661 27.5558 29.0516 26.181 26.948 25.5674C26.7855 25.52 26.6275 25.4733 26.4722 25.4269C26.2505 25.361 26.0107 25.4034 25.8252 25.5416C25.6398 25.6799 25.5305 25.8975 25.5305 26.1288V32.0037C25.5305 32.2303 25.6352 32.4439 25.8142 32.5827V32.5827ZM26.9953 27.1285C28.4276 27.6892 28.5477 28.5509 28.4787 29.042C28.3614 29.8798 27.7356 30.5295 26.9953 30.933V27.1285Z" fill="#2A7D6B"/>
</g>
<defs>
<clipPath id="clip0">
<rect width="50" height="50" fill="white"/>
</clipPath>
</defs>
</svg>
