<svg width="133" height="133" viewBox="0 0 133 133" fill="none" xmlns="http://www.w3.org/2000/svg">
<g clip-path="url(#clip0)">
<path d="M66.5 133C29.8312 133 0 103.169 0 66.5C0 29.8312 29.8312 0 66.5 0C78.9218 0 91.038 3.44738 101.541 9.97101C103.377 11.11 103.939 13.5221 102.8 15.3579C101.659 17.1935 99.2469 17.7601 97.4131 16.617C88.1511 10.8633 77.4612 7.82375 66.5 7.82375C34.1455 7.82375 7.82346 34.1467 7.82346 66.5003C7.82346 98.8539 34.1455 125.177 66.5 125.177C98.8536 125.177 125.177 98.8536 125.177 66.5C125.177 59.9968 124.121 53.6115 122.039 47.5219C121.34 45.4784 122.432 43.2536 124.476 42.5548C126.524 41.86 128.744 42.9481 129.443 44.9916C131.802 51.8983 133 59.1351 133 66.5003C133 103.169 103.169 133 66.5 133Z" fill="#026670"/>
<path d="M66.5 89.0618C65.5078 89.0618 64.5482 88.6848 63.8219 88.0002L32.5278 58.6031C30.953 57.1241 30.8755 54.6485 32.3548 53.0737C33.8341 51.5009 36.3093 51.4194 37.8842 52.9027L66.1682 79.4721L117.563 18.4607C118.952 16.8083 121.422 16.5966 123.074 17.9899C124.726 19.3815 124.938 21.8486 123.545 23.5009L69.4909 87.6704C68.8002 88.4914 67.7998 88.9927 66.7281 89.0559C66.6529 89.0597 66.5754 89.0618 66.5 89.0618Z" fill="#026670"/>
</g>
<defs>
<clipPath id="clip0">
<rect width="133" height="133" fill="white"/>
</clipPath>
</defs>
</svg>
