<svg width="150" height="150" viewBox="0 0 150 150" fill="none" xmlns="http://www.w3.org/2000/svg">
<g clip-path="url(#clip0)">
<path d="M39.9088 87.7813C39.9088 86.5559 40.2146 85.401 40.7514 84.3867H30.4541V138.09C30.4541 141.85 33.5024 144.899 37.2627 144.899C41.0229 144.899 44.0713 141.85 44.0713 138.09V94.36C41.6124 93.1895 39.9088 90.6811 39.9088 87.7813Z" fill="#176F58"/>
<path d="M23.0402 77.4925C23.0159 77.4831 22.9916 77.4752 22.967 77.4652L14.0203 73.9062C14.0203 73.9062 13.8967 79.5474 13.8967 138.088C13.8967 141.849 16.945 144.897 20.7053 144.897C24.4655 144.897 27.5141 141.849 27.5141 138.089V84.1771C24.6223 83.4049 22.6362 80.5889 23.0402 77.4925Z" fill="#176F58"/>
<path d="M28.9075 0C22.4036 0 17.1486 5.27197 17.1486 11.7589C17.1486 18.2385 22.4103 23.5181 28.9075 23.5181C35.4006 23.5181 40.6667 18.2549 40.6667 11.7589C40.6667 5.26758 35.4044 0 28.9075 0Z" fill="#176F58"/>
<path d="M52.2378 49.0586H34.6397C33.9686 49.0586 33.3864 49.5364 33.2549 50.1944L31.4484 59.2554C35.8975 61.6396 37.9453 67.0343 36.0352 71.8363C34.6005 75.4425 31.3116 77.7537 27.7005 78.1229C27.6035 78.9906 28.2762 79.6902 29.0956 79.6902H46.6936C47.3645 79.6902 47.947 79.2121 48.0785 78.5538L53.6227 50.7464C53.7967 49.871 53.1258 49.0586 52.2378 49.0586Z" fill="#176F58"/>
<path d="M80.4197 40.8164L62.4941 41.6449L43.3108 29.5239C42.4037 28.9509 41.3529 28.6465 40.28 28.6465C35.3388 28.6465 18.6762 28.6465 13.7262 28.6465C6.35951 28.6465 0.336364 34.6395 0.299449 42.0059C0.282164 45.4682 0.227379 56.3092 0.210094 59.8131C0.198375 62.1475 1.61752 64.2504 3.78636 65.1132L24.5898 73.3895C27.4978 74.5479 30.7993 73.1279 31.9579 70.2152C33.1161 67.304 31.6949 64.0043 28.7833 62.8462L11.5758 56.0004C11.6001 51.1849 11.5887 53.4527 11.6458 42.063C11.6458 42.0627 11.6458 42.0624 11.6458 42.0618C11.7009 41.427 12.2464 40.9482 12.883 40.9761C13.5197 41.0039 14.0206 41.5286 14.0206 42.1658V52.251L27.0255 57.4245L28.65 49.2773C29.2172 46.4309 31.7362 44.3645 34.6395 44.3645C44.9871 44.3645 42.1653 44.3645 52.2375 44.3645C56.0933 44.3645 58.979 47.891 58.227 51.6653L58.1034 52.2858C59.7994 52.7965 61.5411 53.0147 63.3109 52.9477C64.5425 52.9008 66.0894 52.8384 67.7154 52.7634C68.2826 50.7275 69.2655 48.8039 70.6445 47.1176C73.1373 44.0692 76.6412 42.1248 80.4788 41.5922C80.4531 41.3355 80.4334 41.0769 80.4197 40.8164Z" fill="#176F58"/>
<path d="M116.486 96.1953V133.089C116.486 135.015 118.047 136.575 119.972 136.575C121.898 136.575 123.459 135.015 123.459 133.089V96.1953H116.486Z" fill="#176F58"/>
<path d="M68.8864 96.1953V133.089C68.8864 135.014 70.4473 136.575 72.373 136.575C74.2987 136.575 75.8596 135.014 75.8596 133.089V96.1953H68.8864Z" fill="#176F58"/>
<path d="M81.3941 96.1953V138.252H81.3938C81.3938 141.922 84.3689 144.897 88.0392 144.897C91.7095 144.897 94.6846 141.922 94.6846 138.252V96.1953H81.3941Z" fill="#176F58"/>
<path d="M97.5533 96.1953V138.252H97.553C97.553 141.922 100.528 144.897 104.198 144.897C107.869 144.897 110.844 141.922 110.844 138.252V96.1953H97.5533Z" fill="#176F58"/>
<path d="M50.5023 95.0625V144.846C50.5023 147.692 52.8097 150 55.6562 150C58.5026 150 60.8101 147.692 60.8101 144.846V95.0625H50.5023Z" fill="#176F58"/>
<path d="M96.1174 28.4961C89.7788 28.4961 84.6404 33.6345 84.6404 39.9731C84.6404 41.9929 85.1639 43.8892 86.0797 45.5378C88.8773 43.8175 92.4307 43.4141 95.6976 44.7658C98.2971 45.8404 100.239 47.8303 101.312 50.2065C105.039 48.3107 107.594 44.4415 107.594 39.9731C107.594 33.6342 102.456 28.4961 96.1174 28.4961Z" fill="#176F58"/>
<path d="M146.431 84.4213C144.082 84.4213 128.19 84.4213 125.981 84.4213C128.464 83.315 129.764 80.5872 129.091 77.9798C128.521 75.7746 124.171 58.9263 123.612 56.7615C122.048 50.7041 116.855 46.3491 110.724 45.7749C109.171 49.6705 106.107 52.8053 102.255 54.4447C102.273 55.904 101.975 57.3527 101.449 58.6251L96.8206 69.8177C98.0678 69.2109 99.4512 68.8403 100.913 68.7665L104.054 61.1678C104.598 59.8523 106.106 59.2274 107.42 59.7706C108.736 60.3144 109.361 61.8214 108.817 63.1368L106.496 68.7533H110.723V59.8058C110.723 59.2518 111.134 58.7842 111.684 58.7145C112.234 58.6447 112.749 58.9942 112.888 59.531C114.647 66.3425 114.797 66.924 116.579 73.827H103.419C100.36 73.827 97.8809 76.3064 97.8809 79.3649C97.8809 81.6214 99.2326 83.5594 101.169 84.4222H83.6388C84.9062 83.8582 85.9512 82.8272 86.5075 81.4811L96.7597 56.6874C97.9283 53.8611 96.5845 50.6224 93.7582 49.4537C90.9317 48.2854 87.6935 49.6289 86.5245 52.4552L83.2116 60.4673L80.4779 53.2579L82.9289 48.5156C82.3688 47.6537 81.8915 46.7344 81.5066 45.7676C78.5578 46.0603 75.8493 47.4993 73.9506 49.8214C71.8134 52.4347 70.9723 55.8311 71.6426 59.1398L75.9627 80.4647C76.3251 82.2536 77.5316 83.7073 79.1332 84.4225C75.0252 84.4225 47.19 84.4225 47.19 84.4225C45.3355 84.4225 43.8317 85.926 43.8317 87.7808C43.8317 89.6353 45.3352 91.1391 47.19 91.1391C51.0346 91.1391 129.274 91.1391 132.508 91.1391V144.846C132.508 147.693 134.815 150 137.662 150C140.508 150 142.816 147.693 142.816 144.846V91.1379H146.431C148.286 91.1379 149.789 89.6344 149.789 87.7796C149.79 85.9251 148.286 84.4213 146.431 84.4213Z" fill="#176F58"/>
</g>
<defs>
<clipPath id="clip0">
<rect width="150" height="150" fill="white"/>
</clipPath>
</defs>
</svg>
