<svg width="103" height="342" viewBox="0 0 103 342" fill="none" xmlns="http://www.w3.org/2000/svg">
  <line x1="47.7988" y1="335.042" x2="47.8974" y2="7.9994" stroke="black" stroke-width="4" />
  <path d="M26 331C24.8954 331 24 331.895 24 333C24 334.105 24.8954 335 26 335L26 331ZM26 335L49 335L49 331L26 331L26 335Z" fill="black" />
  <path d="M27 267C25.8954 267 25 267.895 25 269C25 270.105 25.8954 271 27 271L27 267ZM27 271L49 271L49 267L27 267L27 271Z" fill="black" />
  <path d="M26 202C24.8954 202 24 202.895 24 204C24 205.105 24.8954 206 26 206L26 202ZM26 206L49 206L49 202L26 202L26 206Z" fill="black" />
  <path d="M26 137C24.8954 137 24 137.895 24 139C24 140.105 24.8954 141 26 141L26 137ZM26 141L49 141L49 137L26 137L26 141Z" fill="black" />
  <path d="M26 72C24.8954 72 24 72.8954 24 74C24 75.1046 24.8954 76 26 76L26 72ZM26 76L49 76L49 72L26 72L26 76Z" fill="black" />
  <path d="M26 8C24.8954 8 24 8.89543 24 10C24 11.1046 24.8954 12 26 12L26 8ZM26 12L49 12L49 8L26 8L26 12Z" fill="black" />
  <path d="M72 238C73.1046 238 74 237.105 74 236C74 234.895 73.1046 234 72 234L72 238ZM49 238L72 238L72 234L49 234L49 238Z" fill="black" />
  <path d="M72 173C73.1046 173 74 172.105 74 171C74 169.895 73.1046 169 72 169L72 173ZM49 173L72 173L72 169L49 169L49 173Z" fill="black" />
  <path d="M72 109C73.1046 109 74 108.105 74 107C74 105.895 73.1046 105 72 105L72 109ZM49 109L72 109L72 105L49 105L49 109Z" fill="black" />
  <path d="M72 43C73.1046 43 74 42.1046 74 41C74 39.8954 73.1046 39 72 39L72 43ZM49 43L72 43L72 39L49 39L49 43Z" fill="black" />
  <path d="M72 304C73.1046 304 74 303.105 74 302C74 300.895 73.1046 300 72 300L72 304ZM49 304L72 304L72 300L49 300L49 304Z" fill="black" />
  <circle cx="9.5" cy="9.5" r="9" fill="white" stroke="black" />
  <path d="M10.444 5.2V15H9.436V6.096H7.126V5.2H10.444Z" fill="black" />
  <circle cx="92.5" cy="41.5" r="9" fill="white" stroke="black" />
  <path
    d="M96.42 45.104V46H89.546V45.286L93.62 41.296C94.1333 40.792 94.4787 40.358 94.656 39.994C94.8427 39.6207 94.936 39.2473 94.936 38.874C94.936 38.2953 94.7353 37.8473 94.334 37.53C93.942 37.2033 93.3773 37.04 92.64 37.04C91.492 37.04 90.6007 37.404 89.966 38.132L89.252 37.516C89.6347 37.068 90.12 36.7227 90.708 36.48C91.3053 36.2373 91.9773 36.116 92.724 36.116C93.7227 36.116 94.5113 36.354 95.09 36.83C95.678 37.2967 95.972 37.9407 95.972 38.762C95.972 39.266 95.86 39.7513 95.636 40.218C95.412 40.6847 94.9873 41.2213 94.362 41.828L91.03 45.104H96.42Z"
    fill="black" />
  <circle cx="12.5" cy="73.5" r="9" fill="white" stroke="black" />
  <path
    d="M13.06 72.4C14.0867 72.456 14.866 72.736 15.398 73.24C15.9393 73.7347 16.21 74.3833 16.21 75.186C16.21 75.746 16.0747 76.2453 15.804 76.684C15.5333 77.1133 15.132 77.454 14.6 77.706C14.068 77.958 13.4193 78.084 12.654 78.084C11.9447 78.084 11.2727 77.972 10.638 77.748C10.0127 77.5147 9.50867 77.2067 9.126 76.824L9.616 76.026C9.94267 76.362 10.3767 76.6373 10.918 76.852C11.4593 77.0573 12.038 77.16 12.654 77.16C13.4567 77.16 14.0773 76.9873 14.516 76.642C14.9547 76.2873 15.174 75.802 15.174 75.186C15.174 74.5793 14.9547 74.1033 14.516 73.758C14.0773 73.4127 13.4147 73.24 12.528 73.24H11.828V72.498L14.544 69.096H9.532V68.2H15.832V68.914L13.06 72.4Z"
    fill="black" />
  <circle cx="11.5" cy="136.5" r="9" fill="white" stroke="black" />
  <path
    d="M11.304 135.218C12.7227 135.218 13.754 135.475 14.398 135.988C15.0513 136.492 15.378 137.201 15.378 138.116C15.378 138.685 15.2427 139.194 14.972 139.642C14.7107 140.09 14.314 140.445 13.782 140.706C13.25 140.958 12.5967 141.084 11.822 141.084C11.122 141.084 10.4547 140.972 9.82 140.748C9.19467 140.515 8.69067 140.207 8.308 139.824L8.798 139.026C9.12467 139.362 9.554 139.637 10.086 139.852C10.618 140.057 11.192 140.16 11.808 140.16C12.62 140.16 13.2453 139.978 13.684 139.614C14.132 139.25 14.356 138.765 14.356 138.158C14.356 137.486 14.104 136.977 13.6 136.632C13.1053 136.287 12.2653 136.114 11.08 136.114H8.994L9.498 131.2H14.86V132.096H10.38L10.044 135.218H11.304Z"
    fill="black" />
  <circle cx="91.5" cy="169.5" r="9" fill="white" stroke="black" />
  <path
    d="M91.788 168.134C92.432 168.134 93.0013 168.255 93.496 168.498C94 168.741 94.392 169.086 94.672 169.534C94.952 169.973 95.092 170.486 95.092 171.074C95.092 171.671 94.9473 172.199 94.658 172.656C94.3687 173.113 93.9673 173.468 93.454 173.72C92.95 173.963 92.3807 174.084 91.746 174.084C90.4487 174.084 89.4547 173.659 88.764 172.81C88.0733 171.951 87.728 170.743 87.728 169.184C87.728 168.092 87.9147 167.168 88.288 166.412C88.6613 165.656 89.184 165.087 89.856 164.704C90.528 164.312 91.312 164.116 92.208 164.116C93.1787 164.116 93.9533 164.293 94.532 164.648L94.126 165.46C93.6593 165.152 93.0247 164.998 92.222 164.998C91.1393 164.998 90.29 165.343 89.674 166.034C89.058 166.715 88.75 167.709 88.75 169.016C88.75 169.249 88.764 169.515 88.792 169.814C89.0347 169.282 89.422 168.871 89.954 168.582C90.486 168.283 91.0973 168.134 91.788 168.134ZM91.704 173.23C92.4133 173.23 92.9873 173.039 93.426 172.656C93.874 172.264 94.098 171.746 94.098 171.102C94.098 170.458 93.874 169.945 93.426 169.562C92.9873 169.179 92.39 168.988 91.634 168.988C91.1393 168.988 90.7007 169.081 90.318 169.268C89.9447 169.455 89.6507 169.711 89.436 170.038C89.2213 170.365 89.114 170.729 89.114 171.13C89.114 171.503 89.212 171.849 89.408 172.166C89.6133 172.483 89.912 172.74 90.304 172.936C90.696 173.132 91.1627 173.23 91.704 173.23Z"
    fill="black" />
  <circle cx="11.5" cy="203.5" r="9" fill="white" stroke="black" />
  <path d="M14.644 198.2V198.914L10.542 208H9.45L13.482 199.096H8.442V200.93H7.448V198.2H14.644Z" fill="black" />
  <circle cx="92.5" cy="234.5" r="9" fill="white" stroke="black" />
  <path
    d="M94.342 233.862C94.958 234.067 95.4293 234.375 95.756 234.786C96.092 235.197 96.26 235.691 96.26 236.27C96.26 236.839 96.106 237.339 95.798 237.768C95.49 238.188 95.0467 238.515 94.468 238.748C93.8987 238.972 93.2267 239.084 92.452 239.084C91.276 239.084 90.352 238.832 89.68 238.328C89.008 237.824 88.672 237.138 88.672 236.27C88.672 235.682 88.8307 235.187 89.148 234.786C89.4747 234.375 89.946 234.067 90.562 233.862C90.058 233.666 89.6753 233.386 89.414 233.022C89.1527 232.649 89.022 232.21 89.022 231.706C89.022 230.913 89.33 230.283 89.946 229.816C90.5713 229.349 91.4067 229.116 92.452 229.116C93.1427 229.116 93.7447 229.223 94.258 229.438C94.7807 229.643 95.1867 229.942 95.476 230.334C95.7653 230.726 95.91 231.183 95.91 231.706C95.91 232.21 95.7747 232.649 95.504 233.022C95.2333 233.386 94.846 233.666 94.342 233.862ZM90.03 231.734C90.03 232.275 90.2447 232.705 90.674 233.022C91.1033 233.339 91.696 233.498 92.452 233.498C93.208 233.498 93.8007 233.339 94.23 233.022C94.6687 232.705 94.888 232.28 94.888 231.748C94.888 231.197 94.664 230.763 94.216 230.446C93.7773 230.129 93.1893 229.97 92.452 229.97C91.7053 229.97 91.1127 230.129 90.674 230.446C90.2447 230.763 90.03 231.193 90.03 231.734ZM92.452 238.23C93.32 238.23 93.9967 238.053 94.482 237.698C94.9767 237.343 95.224 236.863 95.224 236.256C95.224 235.649 94.9767 235.173 94.482 234.828C93.9967 234.473 93.32 234.296 92.452 234.296C91.5933 234.296 90.9167 234.473 90.422 234.828C89.9367 235.173 89.694 235.649 89.694 236.256C89.694 236.872 89.9367 237.357 90.422 237.712C90.9073 238.057 91.584 238.23 92.452 238.23Z"
    fill="black" />
  <circle cx="11.5" cy="270.5" r="9" fill="white" stroke="black" />
  <path
    d="M10.78 265.116C12.0773 265.116 13.0713 265.545 13.762 266.404C14.4527 267.253 14.798 268.457 14.798 270.016C14.798 271.108 14.6113 272.032 14.238 272.788C13.8647 273.544 13.342 274.118 12.67 274.51C11.998 274.893 11.214 275.084 10.318 275.084C9.34733 275.084 8.57267 274.907 7.994 274.552L8.4 273.74C8.86667 274.048 9.50133 274.202 10.304 274.202C11.3867 274.202 12.236 273.861 12.852 273.18C13.468 272.489 13.776 271.491 13.776 270.184C13.776 269.941 13.762 269.675 13.734 269.386C13.4913 269.918 13.104 270.333 12.572 270.632C12.04 270.921 11.4287 271.066 10.738 271.066C10.094 271.066 9.52 270.945 9.016 270.702C8.52133 270.459 8.134 270.119 7.854 269.68C7.574 269.232 7.434 268.714 7.434 268.126C7.434 267.529 7.57867 267.001 7.868 266.544C8.15733 266.087 8.554 265.737 9.058 265.494C9.57133 265.242 10.1453 265.116 10.78 265.116ZM10.892 270.212C11.3867 270.212 11.8207 270.119 12.194 269.932C12.5767 269.745 12.8753 269.489 13.09 269.162C13.3047 268.835 13.412 268.471 13.412 268.07C13.412 267.697 13.3093 267.351 13.104 267.034C12.908 266.717 12.614 266.46 12.222 266.264C11.83 266.068 11.3633 265.97 10.822 265.97C10.1127 265.97 9.534 266.166 9.086 266.558C8.64733 266.941 8.428 267.454 8.428 268.098C8.428 268.742 8.64733 269.255 9.086 269.638C9.534 270.021 10.136 270.212 10.892 270.212Z"
    fill="black" />
  <circle cx="92.5" cy="303.5" r="9" fill="white" stroke="black" />
  <path
    d="M89.444 299.2V309H88.436V300.096H86.126V299.2H89.444ZM95.6926 309.084C94.9366 309.084 94.2599 308.883 93.6626 308.482C93.0746 308.081 92.6126 307.507 92.2766 306.76C91.9499 306.004 91.7866 305.117 91.7866 304.1C91.7866 303.083 91.9499 302.201 92.2766 301.454C92.6126 300.698 93.0746 300.119 93.6626 299.718C94.2599 299.317 94.9366 299.116 95.6926 299.116C96.4486 299.116 97.1206 299.317 97.7086 299.718C98.3059 300.119 98.7726 300.698 99.1086 301.454C99.4446 302.201 99.6126 303.083 99.6126 304.1C99.6126 305.117 99.4446 306.004 99.1086 306.76C98.7726 307.507 98.3059 308.081 97.7086 308.482C97.1206 308.883 96.4486 309.084 95.6926 309.084ZM95.6926 308.16C96.2619 308.16 96.7613 308.001 97.1906 307.684C97.6293 307.367 97.9699 306.905 98.2126 306.298C98.4553 305.691 98.5766 304.959 98.5766 304.1C98.5766 303.241 98.4553 302.509 98.2126 301.902C97.9699 301.295 97.6293 300.833 97.1906 300.516C96.7613 300.199 96.2619 300.04 95.6926 300.04C95.1233 300.04 94.6193 300.199 94.1806 300.516C93.7513 300.833 93.4153 301.295 93.1726 301.902C92.9299 302.509 92.8086 303.241 92.8086 304.1C92.8086 304.959 92.9299 305.691 93.1726 306.298C93.4153 306.905 93.7513 307.367 94.1806 307.684C94.6193 308.001 95.1233 308.16 95.6926 308.16Z"
    fill="black" />
  <circle cx="11.5" cy="332.5" r="9" fill="white" stroke="black" />
  <path d="M9.444 328.2V338H8.436V329.096H6.126V328.2H9.444ZM14.5026 328.2V338H13.4946V329.096H11.1846V328.2H14.5026Z" fill="black" />
  <circle cx="92.5" cy="104.5" r="9" fill="white" stroke="black" />
  <path d="M96.058 106.424H94.098V109H93.09V106.424H87.56V105.696L92.754 99.2H93.874L88.862 105.528H93.118V103.26H94.098V105.528H96.058V106.424Z" fill="black" />
</svg>
